<svg id="cl-svg-image-placeholder"  xmlns="http://www.w3.org/2000/svg" viewBox="0 0 24 24"><path d="M94.3,4.6v14h-14v-14H94.3 M94.3,2.6h-14c-1.1,0-2,0.9-2,2v14c0,1.1,0.9,2,2,2h14c1.1,0,2-0.9,2-2v-14
	C96.3,3.5,95.4,2.6,94.3,2.6z M89.4,11.5l-3,3.9l-2.1-2.6l-3,3.9h12C93.3,16.6,89.4,11.5,89.4,11.5z"/>
<g>
	<path d="M-11,20.6c-0.1,0.1-0.1,0.3-0.2,0.4c-0.1,0.1-0.2,0.1-0.3,0.2c-0.2,0.2-0.5,0.4-0.7,0.5c-0.1,0.1-0.3,0.1-0.5,0.1
		c-0.3,0-0.6,0.1-0.9,0.1c0-0.3,0-0.6-0.1-0.9c0,0-0.1,0-0.1,0c0,0.3,0,0.6-0.1,1c-0.7,0.1-0.7-0.5-0.8-0.9c0,0.9,0,0.8-0.8,0.4
		c-0.9-0.4-0.9-1.3-1.3-1.9c0-0.1,0-0.2,0-0.3c0.2-0.7-0.2-1.3-1-1.3c-1.5-0.1-2-0.5-2.1-1.9c0-0.2,0.1-0.3,0.2-0.5
		c0.1-0.2,0.2-0.5,0.2-0.7c0-0.4,0-0.8,0-1.4c-0.4,0.5,0.1,1-0.3,1.5c-0.1-0.5-0.4-0.8-0.3-1.1c0.1-0.6-0.1-1.2-0.3-1.7
		c-0.6-1.6-0.2-4.2,1.1-5.4c1.5-1.4,3.3-2.5,5.4-2.7c2-0.1,3.7,0.6,5.1,2.1c0.2,0.2,0.4,0.3,0.6,0.4c1.3,1,1.9,3.1,1.3,4.4
		c-0.2,0.3-0.3,0.7,0.1,1c0,0,0.1,0.1,0,0.2c-0.2,0.8-0.4,1.7-0.6,2.5c0,0.1-0.1,0.1-0.2,0.2c0-0.4,0-0.8,0-1.2
		c-0.3,0.6-0.2,1.4,0.2,1.8c0.1,0.1,0.3,0.4,0.2,0.5c-0.2,0.9-0.7,1.7-1.7,2c-0.2,0.1-0.4,0-0.6-0.1c-0.4-0.1-0.8-0.1-1,0.3
		c-0.1,0.2,0,0.6,0,0.9c0,0.3,0.4,0.7-0.3,0.9c-0.1,0-0.2,0.4-0.3,0.6c-0.1-0.1-0.1-0.1-0.2-0.2c0,0-0.1,0.1-0.1,0.1
		C-11.2,20.5-11.1,20.6-11,20.6z M-8.9,14.2c0.2-0.3,0.3-0.6,0.4-0.8c-0.5-1-1.5-1-2.4-1.3c-0.1,0-0.1,0-0.2,0
		c-0.3,0.3-0.7,0.5-1,0.8c-0.3,0.2-0.3,0.5-0.1,0.8c0.2,0.3,0.1,0.7,0.2,1c-0.1,0-0.1,0-0.2,0c-0.1-0.2-0.1-0.4-0.2-0.6
		c-0.1,0-0.1,0-0.2,0c0,0.2,0,0.5,0.1,0.6c0.8,0.9,1.8,1,2.9,0.8c-0.9,0-1.7,0-2.4-0.8c0.2-0.1,0.4-0.2,0.6-0.3
		c1.3,0.9,1.3,0.9,1.6,0.7c-0.2,0-0.3,0-0.4,0c-0.2-0.2-0.4-0.4-0.5-0.6c0-0.1,0.1-0.3,0.2-0.3c0.3-0.2,0.6-0.3,1-0.5
		c-0.1,0.2-0.1,0.4-0.2,0.6c0,0,0.1,0,0.1,0c0.1-0.4,0.3-0.8,0.4-1.2C-9,13.6-9,13.8-8.9,14.2z M-13.7,17.3c0,0,0.1,0,0.1,0
		c0,0.1,0.1,0.2,0.1,0.2c0,0.5,0.3,0.8,0.7,0.8c0.5-0.1,0.5-0.6,0.4-1c-0.2-0.6-0.4-1.2-0.6-1.8c-0.2-0.5-0.6-0.6-1-0.6
		c-0.2,0-0.5,0.4-0.6,0.7c-0.2,0.4-0.2,0.8-0.4,1.2c-0.2,0.7-0.1,1.2,0.5,1.6c0.1,0.1,0.4,0.2,0.5,0.1c0.1-0.1,0.2-0.3,0.3-0.4
		C-13.7,17.8-13.7,17.5-13.7,17.3z M-17.4,15.7c0,0,0,0.1,0,0.1c0.1,0,0.2,0,0.3,0c0.5-0.3,0.9-0.6,1.4-0.9c0.6-0.3,0.7-0.8,0.8-1.4
		c0.1-0.6-0.8-1.3-1.3-1.2c-0.4,0.1-0.9,0.2-1.3,0.4c-0.4,0.2-0.8,0.5-1,0.9c-0.2,0.3-0.1,0.8-0.1,1.1c0,0,0.1,0,0.1,0
		c0.1-0.2,0.2-0.4,0.4-0.7c0.2,0.3,0.4,0.6,0.6,0.8c0-0.3,0-0.6,0.1-0.9c0-0.1,0.3-0.2,0.4-0.1c0.3,0.1,0.6,0.2,0.9,0.3
		c0.1,0.1,0.2,0.4,0.1,0.5c-0.3,0.4-0.4,0.9-1,0.9C-17.2,15.5-17.3,15.6-17.4,15.7z M-8.3,11.6c0.2,0.6,0.3,1.1,0.4,1.6
		c0.2-0.3,0.3-0.5,0.5-0.8C-8.1,12.6-7.9,12-8.3,11.6z M-19.1,12.2c0,0.1,0.1,0.3,0.2,0.6c0,0,0.1,0,0.1,0c0.1-0.4,0.1-0.7,0.2-1.1
		c0,0-0.1,0-0.1,0C-18.9,11.8-19,12-19.1,12.2z"/>
	<path class="st0" d="M-11,20.6c-0.1-0.1-0.2-0.1-0.3-0.2c0,0,0.1-0.1,0.1-0.1c0.1,0.1,0.1,0.1,0.2,0.2C-10.9,20.5-11,20.6-11,20.6z
		"/>
</g>
<circle class="st1" cx="-10.5" cy="14.3" r="0.8"/>
<circle class="st1" cx="-16.8" cy="14.3" r="0.8"/>
<g>
	<path d="M2,12.5c0-0.3,0-0.7,0-1c0-0.1,0-0.1,0-0.2C2.2,10,2.5,8.9,3,7.8C3,7.7,3,7.6,3.1,7.5C3.3,7.8,3.5,8,3.6,8.3
		c0.1,0.1,0.1,0.2,0.1,0.3C3.6,9,3.5,9.3,3.5,9.7c-0.1,0.4,0.1,0.7,0.5,0.7c0.4,0.1,0.7-0.1,0.8-0.5c0.1-0.2,0.1-0.5,0.1-0.7
		c0-0.4,0.2-0.6,0.5-0.6c0,0,0.1,0,0.1,0c0.3-0.1,0.5-0.5,0.4-0.8C5.7,7.5,5.4,7.4,5.1,7.4C5,7.5,4.9,7.5,4.8,7.5
		c-0.1,0-0.2,0-0.3-0.1C4.4,7.1,4.2,6.9,4,6.6C3.8,6.3,3.8,6.3,4,6.1C5.9,3.5,8.5,2.1,11.7,2c0.4,0,0.8,0,1.2,0
		c-0.1,0.4-0.1,0.9-0.2,1.3c0,0-0.1,0.1-0.2,0.1c-0.4,0.1-0.9,0.1-1.3,0.2c-0.3,0.1-0.5,0.4-0.5,0.7c0,0.3,0.3,0.5,0.6,0.5
		c0.1,0,0.2,0,0.3,0c0.4-0.1,0.9-0.1,1.3-0.2c0.1,0,0.2,0,0.3,0.1c0.6,0.3,1.1,0.6,1.6,1c0.2,0.1,0.5,0.2,0.7,0
		c0.3-0.2,0.6-0.4,0.8-0.6c0.3-0.2,0.3-0.6,0.1-0.9C16.3,3.9,16,3.8,15.7,4c-0.1,0.1-0.2,0.2-0.4,0.3c-0.1,0-0.2,0-0.2,0
		c-0.4-0.2-0.8-0.4-1.1-0.7c0,0-0.1-0.1-0.1-0.1c0.1-0.4,0.1-0.9,0.2-1.3c0.1,0,0.1,0,0.2,0c2.4,0.6,4.3,1.8,5.8,3.8
		c0.1,0.1,0.1,0.2,0,0.3c-0.4,0.7-0.8,1.5-1.2,2.2c-0.1,0.1-0.1,0.3-0.1,0.5c0,0.3,0.2,0.4,0.5,0.5c0.3,0,0.5-0.1,0.7-0.3
		c0.3-0.5,0.6-1,0.8-1.6c0-0.1,0.1-0.1,0.1-0.2c0.7,1.2,1.2,3,1.1,5.1c-0.1,1.4-0.4,2.6-1,3.9c-0.2-0.4-0.3-0.8-0.5-1.2
		c0-0.1-0.1-0.3,0-0.4c0.1-0.6,0.2-1.1,0.3-1.7c0-0.1,0-0.2,0-0.4c-0.1-0.3-0.3-0.5-0.6-0.5c-0.3,0-0.5,0.2-0.6,0.5
		c-0.2,0.7-0.3,1.4-0.4,2.1c0,0.1,0,0.3,0,0.4c0.1,0.3,0.2,0.6,0.3,0.9c0,0.1,0.1,0.3,0.1,0.4c-0.1,0-0.1,0-0.2,0
		c-0.6,0.1-1.3,0.1-1.9,0.2c-0.4,0-0.6,0.3-0.6,0.7c0,0.4,0.3,0.6,0.7,0.6c0.6,0,1.1-0.1,1.7-0.1c0.2,0,0.5,0,0.8-0.1
		C20,17.9,20,17.9,20,18c-0.6,0.8-1.3,1.5-2.1,2c-1.1,0.8-2.3,1.3-3.6,1.7c-0.1,0-0.2,0-0.2-0.1c-0.1-0.3-0.2-0.6-0.3-0.8
		c0-0.1,0-0.2,0.1-0.2c0.2-0.1,0.4-0.3,0.5-0.4c0.3-0.2,0.4-0.6,0.1-0.9c-0.2-0.3-0.6-0.3-0.9-0.1c-0.3,0.2-0.6,0.4-0.8,0.6
		c-0.4,0.3-0.5,0.5-0.3,1c0.1,0.4,0.3,0.7,0.4,1.1c-2.2,0.6-6.9-1.2-8.1-3c0.3-0.3,0.5-0.6,0.8-0.9c0.2-0.2,0.3-0.4,0.2-0.7
		c-0.1-0.6-0.3-1.2-0.4-1.8C5.3,15.1,5,14.9,4.6,15c-0.3,0.1-0.5,0.4-0.4,0.8c0.1,0.5,0.2,0.9,0.3,1.4c0,0.1,0,0.1,0,0.2
		c-0.2,0.2-0.4,0.3-0.5,0.5c0-0.1-0.1-0.1-0.1-0.1c-0.8-1.2-1.4-2.5-1.7-4C2.1,13.3,2.1,12.9,2,12.5z M6,12c0,3.3,2.7,6,6,6
		c3.3,0,6.1-2.7,6.1-6c0-3.3-2.7-6-6-6.1C8.7,6,6,8.7,6,12z"/>
	<path d="M12,7.2c2.7,0,4.8,2.2,4.8,4.8c0,2.7-2.2,4.8-4.8,4.8c-2.7,0-4.8-2.2-4.8-4.8C7.2,9.4,9.4,7.2,12,7.2z M8.9,12.1
		c0,1.7,1.4,3.1,3.1,3.1c1.7,0,3.1-1.4,3.1-3.1c0-0.1,0-0.2,0.1-0.3c0.6-1.1-0.2-2.4-1.5-2.5c-0.1,0-0.3,0-0.4-0.1
		C11.2,8.3,8.9,9.8,8.9,12.1z"/>
	<path d="M12.3,10.2c-0.3,0.6-0.3,1.1,0.1,1.7c0.3,0.5,0.8,0.8,1.5,0.8c-0.1,0.8-1.2,1.4-2.1,1.2c-1-0.2-1.7-1.2-1.5-2.3
		C10.3,10.7,11.4,10,12.3,10.2z"/>
	<path d="M13.3,11c0-0.3,0.2-0.5,0.5-0.5c0.3,0,0.5,0.2,0.5,0.5c0,0.2-0.2,0.4-0.4,0.5C13.5,11.5,13.3,11.3,13.3,11z"/>
</g>
</svg>
