<svg xmlns="http://www.w3.org/2000/svg" viewBox="0 0 86.19 86.96"><defs><style>.cls-1{fill:#e51e25;}</style></defs><g id="Calque_2" data-name="Calque 2"><g id="Vector_Graphics" data-name="Vector Graphics"><path class="cls-1" d="M69,29.86c.35.38.3.57.35,1.12s1.41,1.06,1.9,1.39a4,4,0,0,1,1.66,2h.18c-.09.42,0,.79.28.92a3.44,3.44,0,0,1,.36,1.91c-.73.43-.45,1.27,0,1.73.93.93-1.07,1.79-1.19,2.53a1,1,0,0,1-.28,1,2.19,2.19,0,0,1-.82,1.46c-.37.13-.69,0-.54.63,1.54-.86,2.47,1.86,2.57,2.87.16,1.58-1.67,3.57-3.29,2.67-.78,0-1.21-.48-1.64-1.17H68.4a5.11,5.11,0,0,1-.45-3,2.87,2.87,0,0,0-2.09-.37c-1.57-.19-1.8.9-2.91,1.54.36,1.32-.76,1.73-1.9,1.73-.18-.33-.63-1.19-1-1.27,0,.35-.17.25-.27.36v.19c.66.16.11,1.34.55,1.72-.46.95-.93,1.92-1.73.82v.09h-.81c-.17-.48-.5-.24-1-.54.12.19,0,.41.27.63a6.74,6.74,0,0,0-1.8,2.91A4.18,4.18,0,0,0,54,54.84a2.29,2.29,0,0,0-1.27.63,22.09,22.09,0,0,0-.62,2.33c-.39,1.39-1.71,2.64-1.38,4.21H50.5a1,1,0,0,1-.36,1,1.57,1.57,0,0,1-.36,1.27,3.63,3.63,0,0,1-1.37,2.27c-1.31.53-2.26,2-3.45,2.45a.85.85,0,0,0-.9.27,2.5,2.5,0,0,0-1.1.18c-.38.37-2.58.63-2.91.28a2.74,2.74,0,0,1-1.26-.64,5.2,5.2,0,0,1-2.1.18V69.1c-.71-.3-1.39-.64-2-.91a4.38,4.38,0,0,1-3.37-2.27.87.87,0,0,0-1.53,0c-.63,1.13-1,1-1.83.18.53-.89,1.35-2.31,1.17-3.18A10.52,10.52,0,0,0,26.61,60c-.56-.54-1.77-1.47-2.7-1-.74.38-1.19,2.26-.75,2.74h.19a13.76,13.76,0,0,0,2.36,3.73v-.19c.69,0,1-2.42,1.91-1.72h.27v.27c.73.27.18,1,0,1.41-.29.92-2-.53-2,1a10,10,0,0,1,.18,1.59c0,.66.49.32,1,.32a1.65,1.65,0,0,1-.1,2.27,2.13,2.13,0,0,1-.63,1c-.21.79.11.9.82,1.18s.22.67.35,1.09c.27.73.95.89,0,1.82s-1.37.26-1.08,2c0,.24-.69,2.26-1,2-.62-.67-2.46,2-2.67,2.22a3.3,3.3,0,0,1-2.72,1.19c-.94,0-1.88,1.18-2.46,1.54a2,2,0,0,0-1.36.37,1.33,1.33,0,0,0-1.18.27,6.21,6.21,0,0,0-2.91.63c-1,.3-1.28,1.6-2.54,1.27a3.73,3.73,0,0,1-1.28-1.58c0-.84-1.51-1.37-2-1.86-.38-.22-1-.57-1.36-.78-.63-.3-.59-1.25-1.7-1.51-1.74-.4-.47-1.46-.48-2.89-.36-.63-1.4-.57-1.65-1.28H1a2.79,2.79,0,0,1,.37-1.27h.18c0-.72-2-2.81,0-2.81-.42-.86.26-1.62-.63-2.36a1,1,0,0,0-.42-1.42c-.77-.54-.61-2.22.36-2.22a5.12,5.12,0,0,0,2.27-1.57A6.9,6.9,0,0,1,4,63.79c.28-.28,1.32-1.4,1.32-1.69A2.23,2.23,0,0,1,6,60.29c.29-1.39,2.48-1.24,2.59-2,.14-1,0-1.82,1.22-1.82,1.65,0,.72,1.44.72,2.27,0,.1,4.41,1,3.51-1.4-.72-1.88,1.49-2.73,1.77-1.05-.13,1.66.28,2.22,1.45,2.73,1,0,1.61.45,2.37.45,0-.94-.15-2.72-1.42-2.72-.36,0-.81-.91-1.23-.91s-.78-1.9-.86-2.41-.58-.93-.58-1.5a8,8,0,0,1,.9-2.72c.28-.55,1-1.33,1.28-1.91a5.6,5.6,0,0,0,.81-.19v-.18c.55,0,.9-.63,1.27-.63a.34.34,0,0,0,.41-.23c.36-.33,1.64.32,2,.32a.84.84,0,0,0,.82-.36,6.84,6.84,0,0,0,1.64.81c.28,0,.49-.39.54,0l1.64-.27v.09c1-.5,2.44-.48,2.37-2,.79.17.87.66,1.53.64,1.9-.24,1.69-2,2.91-2.64v-.18c.55-.13.94,0,1,.55h.17c-.13,1.32,1.1.81,1.9.81.65,0,1.88.8,2.33.33.74-.7,1.31.77,1.31,1.4.61.31.85-.84,1.36-1a1.07,1.07,0,0,1,1-1.27v-.18a2.24,2.24,0,0,0,1.82-.64,2.61,2.61,0,0,0,2.19-.73c1.25-.35,2.78,0,4.17-.08l.09.36.37-.36c-.22.74.14.48.63.72,0-.38-.2-.72.36-.72v.45h.28v-.37c.65,0,.07,1,.8,1,0-.35.21-.14.38-.27.19.46.61.55.91,0H54.5V42.3c.39,0,.53-.17.46-.63.36.16.64-.19.64.45h.18a6.67,6.67,0,0,0,0-1.73c0-.37.42,0,0-.81.57.2.64.11.44-.46h.38c.43-.92,1.2-1.67,1.44-2.45.3-2.05.45-2.91,1.73-4.27.07-.07,1.18-1.11,1.18-1.09,0-.25,1.14-.2,1.31-.24.85-.18.47-1.24,1.07-1.51.4-.16.47,0,.8,0,0,1.44,1.49.1,1.82.1.75,0,.68.9,1.27.9.79,0,1-.55,1.81-.72M29.61,73.46c.35-.5.74-.68,1.09-.27,2.71,1.32-2.21,3.71-1.44.63a.65.65,0,0,0,.35-.36m36.25-8.9c0-1.33.28-1.64,1.5-1.23.7.25-.4,1.78-1.5,1.23M85.39,52.11c1.68-1.13.21,2.08,0,0M15.71,49.57c-1.14,1.16-2.27,1.59-2.27-.63,1-.51,2.42-1.37,2.27.63M60.32,48.2c-.42,0-.22-.26,0-.36v.36m-33-3.9c-.73.37-1.26-.21-1.36-.82.4-1.2,1.46-3.72,2.82-2.36,1,1.12-1,2.48-1.46,3.18M54.23,41H54v-.18h.54c-.11.24-.09.48-.27.63V41M28.52,38.22c0,.89-.52,2.94-1.45,1.72-.21-.42-.59-1.16-.73-1.45,0-.9,1.55-2.58,1.55-1.32a3.3,3.3,0,0,0,.63,1m54-10.82a1.65,1.65,0,0,1,1.51.51c1,1.42-1.24,2-1.24,2.13s-1-.62-1.13-1.11a1.47,1.47,0,0,1,.86-1.53m-24.7-1.09c.4-.41,1.28-2.24,2.26-1.27.22.1.78.91.82.91,1.06,0-.49,1.89-.75,2.08-1.21.88-2.33-.5-2.33-1.72M47.42.33c1.43-1.14,2.26,1,3.54,1.36,1.23-.08,2.45-.11,2.45,1.42,0,.55.93,1.13,1.33,1.36.62.37.39,1,.76,1.4.25.71.89,1.37,1,2.18.09.55-.8,1.37-.08,1.91a6.52,6.52,0,0,1-.56,2.91,15.08,15.08,0,0,0-1,2.27c0,.33-2.79,2.59-2.91,2.64V18c-.28-.06-.51,0-.54.27-1.87,0-4.46,1.84-5.72.18a3.34,3.34,0,0,1-.74-.18v-.18h-.45v.18a7.65,7.65,0,0,1-3.45-1.72,14.26,14.26,0,0,1-1.55-1.78,25.23,25.23,0,0,0-1.54-4c.1-.28.2-1.11.28-1.27s-.72-1.91-.18-1.91c.79,0,.87-1.74.94-2.18.21-1.15,1.44-1.65,1.78-2.63.51-.38,1.41-.36,1.82-.64a3.83,3.83,0,0,0,1-.64.93.93,0,0,1,1-.91A2.89,2.89,0,0,0,47.42.33"/></g></g></svg>