<svg xmlns="http://www.w3.org/2000/svg" viewBox="0 0 46.11 66.99"><defs><style>.cls-1{fill:#e51e25;}</style></defs><g id="Calque_2" data-name="Calque 2"><g id="Vector_Graphics" data-name="Vector Graphics"><path class="cls-1" d="M25.22,56.27c1.35,0,2.26,2.1,2.64,3.14.16.43-.27.55-.44.89-.32.64.5,1.15.5,1.8-.43,1.13-1.12,2.95-2.31,3.48.37-.16-.66.18-.52,0-.57,0,.24,1.37-.18,1.37s-.19-1.09-.25-1.31c0-.7-.72-.85-.94-.94-1.27-.2.29,2-.51,2.25,0-.62-.11-1.57-.06-2-.45,0-1.17-1.08-1.7-1.27s-.79.37-1.31.58c0,.08.73-2,.06-1.38-.23.24-.47-.31-.15-.31s-.2-.44-.48-.44a.87.87,0,0,0-1-1c-.32.05-1.52-.11-.94-.73.2-.22.61-.11.72-.3s1.34-.57,1.32-.57c0-.17.79-.34.9-.41.29-.16.56-.75.95-1,.79-.48,2.24-1.29,2.35-2.24.11,0,1.38.15,1.38.32M8.1,60.41c0,.39-.63.29-.63-.06,0-.53.63-.53.63.06m4.64-.69c-1.09,1.08-2-1.76-.32-1.76,1.05,0,1.25,1.76.32,1.76m24.46-.63a.19.19,0,1,1,.38,0c0,.32-.39,0-.38,0m-1.88-.69c-.17-.12-.17-.25,0-.38.18.1.18.23,0,.38M7.91,57.84c-.42.88-.93,0,0,0M31.49,58c.13-.12.44-.18.44.13-.21.2-.35.16-.44-.13m.7-.31.12-.19c.21,0-.12.42-.12.19M30.43,55.2c.25-1.26,2.91-.35,1.76,1.26-.34.46-1.37.71-1.74.11-.24-.4,0-1,0-1.37m-1.89,1.26a2.44,2.44,0,0,0-.06-.26c.23,0,.38-.15.38.19l-.32.07m-5.64-.75c0,.19.26.56-.19.56s.25-.61.19-.56M33.56,56c-.15,0-.43.19-.43-.31.28,0,.43.07.43.31m-6.08-.18c0-.09-.07-.38.25-.38.17,0,.23.56,0,.56l-.25-.18m-8.59-3.64c1.08.27,1.62,2.63.5,2.63-.69,0-.81.82-1.66.34-.08-.05-.66-.83-.66-.46-.14-.7-.65-1.22-.13-1.91a1.55,1.55,0,0,1,1.95-.6m-5.46,2.63h-.19l.19-.19v.19m20.07-.25a.26.26,0,0,1,.19-.12c0,.22-.1.07-.19.12M2.39,54.2c-.07.08-.13.17-.19.25a.21.21,0,0,1,.19-.25m28.67-.88c0-1.19,1.81-1.08,1.81.13s-1.81,1.09-1.81-.13m6,.81h0M26.16,53.2c.17.12.17.22,0,.31-.17-.12-.17-.23,0-.31M39,52.75l.19-.19c.1,0,.07.21.06.26L39,52.75M24.4,52.31l-.06-.25.25.13a1.22,1.22,0,0,1-.19.12M6,51.31c0-.08-.82,1.2-.82.69,0-.26.61-.59.82-.69m16.87.07c0,1.36-1,0,0,0m10.85-.26a.38.38,0,1,1,.58.46c-.47.47-.58-.2-.58-.46m-.37.38-.2-.19c.15-.27.3-.25.45.07-.19.24-.27.28-.25.12M.13,51.19C0,51.06,0,51,.13,50.87c.17.09.17.19,0,.32m36.63-.63a.31.31,0,0,1-.12-.38c.29.13.33.26.12.38m1.38-.75.25-.13c0,.09,0,.32-.12.32a1.27,1.27,0,0,0-.13-.19m-4.45,0c.12,0,.19,0,.19.12S33.69,49.89,33.69,49.81ZM32,49.87l-.38-.25a.7.7,0,0,0,.19-.06,2.32,2.32,0,0,1,.19.31m-5.65-.5h0m-23.9-.25a.58.58,0,0,1,.5-.25.52.52,0,0,1-.5.25m18.63-.07c-.07,0,0-.23,0,0M4.27,48.11c-.1.5-.91.68-1.32.76.18-.36,1-.59,1.32-.76M24.59,9.91c.21-.42,1.57-.52,2-.37.78.29,1,1.44.9,2.17s-.85.78-.6,1.52c.31.93-.38,1.7-.38,2.57s.07,1.4.07,2.08-.73.61-1.2,1.06c-.15,1.16-2.43.77-2.44,1.88-.4,0-1.58.79-1.07,1.1A2.39,2.39,0,0,1,23.21,24c0,.87-1.12.92-.91,2a8.22,8.22,0,0,1,0,1.91c0,.38.09,2.26-.43,2.26,0,.36-.49.95.24,1l.5.66c.24.65-.12.39-.12.85s0,.69-.56.69c.28.28.44.69.5.69,1.16,0,.16,1.16,1.16,1.5.76.27,2.56.55,2.6,1.39s1.57.46,1.57.62-2.06,1.08-.47,1.26c1,.12.2.94-.09,1.38.31,0,1-.13,1.06.31-.46,0-1.2-.4-1.44.19-.33.83.25.88.82,1.25-.31.31-.85,0-1.2,0a.3.3,0,0,0,.38.19c0,.31-.33-.06-.44-.06-.8,0-.37.77-.25,1.13-1,0-1.5.44-1.5,1.38-1.54-.77-.51,1.17-.51,1.69-.8,0-1,.5-.75,1.2-.49,0-1.06.28-.84.91.09.3-.32.67-.47.22s-1.05,0-1.32,0-1.47-1-1.76-.69c-.75,0-.41-1.76-1.32-1.76l.25-.69c0-.82-.92.73-.87.63-.06.14-1.13,1.35-1.13.87S17,46.23,17,45.54c0-.43-1-.54-1.12-1-.32-1,.42-1.46-1-1.46,0-.44-.28-1.55,0-1.76.46-.34.13-.71.13-1.13s.33-.77.43-1.11c.31-1.05-.43-1.4-.43-2.27,0-.71-.57-.25-.57-.69.45,0,.93.3,1.26-.06,0-.2.15-.85,0-1,0-.68,2.85-2,1.87-3,.28.26-.09-.53-.31-.62a7.67,7.67,0,0,1-1.2-.64c-.69-.49-.15-1.59-.71-2.16a2.94,2.94,0,0,1-.1-2c.23-.64,1.36-1.21,1.45-1.57,0-.51,1.62-.64.87-1.38-.49-.51.26-1.51.6-1.85.55-.55.91-.79.5-1.6-.3-.61.11-1.93-.28-2.32,1.5,1.5,1.95-2.76,1.95-3.32,0,.26,1.35-1.08,1.38-1.13,1.72,0,.4-.55.76-1.37s1.58-1.46,2.12-2.21m7.84,37a1.15,1.15,0,0,1-1.3,1.85c-1.2-.5-.14-1.34-.14-2,.17.18.47-.12.56-.12a2.62,2.62,0,0,1,.88.25M6.27,48.18c.56,0,.78-1.32,1.57-1.32-.06.49-1.57,2-1.57,1.32m20.08-1.51A1.55,1.55,0,0,1,27,47.74c-.38,0-.69-.79-.69-1.07m-10.79-.06c0,.8-1.58.8,0,0M33.18,46c.65-.85,1.46.7.71,1a.64.64,0,0,1-.71-1m5.09.57.12-.32c.29.24.25.34-.12.32m-20.83-.32a.19.19,0,0,1,.12-.06S17.53,46.29,17.44,46.29Zm6.71-.5a.24.24,0,0,1,.32-.12c-.09.29-.19.33-.32.12m1.7,0a.32.32,0,0,1-.25-.37c.08.12.16.25.25.37M7.22,45.6c0,.29-.45-.11-.11-.29A4.44,4.44,0,0,1,8.41,45c.6,0-.29.57-.28.56a1.73,1.73,0,0,1-.91.06m17.44-1a.64.64,0,0,1,.37.63,2.22,2.22,0,0,0-.37-.63m14.61-.94c.41,0,.75,1.19.32,1.19s-.73-1.19-.32-1.19m-25,.69c0,.6-.81.42-.81-.13,0-1.2,1.29.13.81.13m-6.4-.44c-.11.48-.79.47-1.06.19.32,0,.69-.19,1.06-.19m27.42-4.08c.3.48.82.65,1.14,1.09.51.68-.08,1-.08,1.67,0,1.45-2.32,1.69-3.19.77a2.41,2.41,0,0,1,0-2.51,2.33,2.33,0,0,1,2.17-1m7.84,3.58c.32-.5.78.14.49.37s-.78-.08-.49-.37M7.34,42c0,.47-1.42.21-1-.72a.63.63,0,0,1,1-.26c.46.33,0,.59,0,1m35.26-.76c.47-.47,1.61-.43,1.18.51-.36.78-1.18.09-1.18-.51m-12.36,0c.19.2-.19.32-.19.19s.13-.12.19-.19m9-1.13c0-.32.34.34,0,0M41,40c0-.24.5-.74.5-.19,0,.26-.5.48-.5.19M5,39.71c0,.1-.12.08-.18-.07l.06-.18c.26,0,.06.17.12.25m30.93-.19c.09-.25.19-.25.32,0-.08.11-.18.11-.32,0M27,38.58c.09-.18.69-.47.69,0s-.69.35-.69,0M32.56,38l-.13-.18c.29,0,.33.05.13.18m-7.84-2.45-.06-.24a.24.24,0,0,1,.31.18c0,.13-.21,0-.25.06m1.94-1.37c0-.35,1.07-.4,1.07.06s-1.07.53-1.07-.06M16.06,33c.61.6-1.25.2-.37,0,.13-.13.22,0,.37,0m12.36.44a.11.11,0,0,1,.12-.12A.11.11,0,0,1,28.42,33.43Zm8.34-.24c.09-.17.17-.17.25,0s-.25.27-.25,0m-6.65-1L30.3,32c.06.2-.19.45-.19.19m-5.52-.44c0-.78,1.19-.86,1.19-.06s-1.19.78-1.19.06M9.72,31.05l-.31.12c0-.17.31-.53.31-.12m35.76-1.19c0-.35.63-.35.63,0a.31.31,0,0,1-.63,0M37,29.8c0-.58.48-.31.63,0a.32.32,0,0,1-.63,0m-4.82-4c.19.3.89.08,1.28.28s.45.46.68.68a2.47,2.47,0,0,1,.06,1.63c-.15.26-.39,1-.56,1.12-2.78,1.72-4.76-2.62-1.46-3.71m2.94,2.64.06-.25c0,.1.18.25-.06.25M29.8,27c.25,0,0,.45,0,0m-6.21-1.39c-.43,0,0-.25,0,0m1.13-1.12.37-.38c0,.49,0,1.18-.37.38m14.43-.69c0,.13-.25,0-.19-.19a.17.17,0,0,1,.19.19M8.53,22.27c0,.13-.69-.32-.18-.95.67-.84.18,1,.18.95M28,20l.25.12c-.12.21-.21.17-.25-.12m5,0c-.22.66-.57-.33-.57-.44.18,0,1,0,.57.44m-3.89-.69c.25,0,0,.41,0,0m7.78.19c-.18,0-.15-.17-.07-.25.16.09.18.18.07.25m8-1.51c-.12-.08-.08-.17.12-.25s.55.63.37.85-.71-.37-.49-.6m-27.23-.94.07-.06c.29,0,.51.63.69.81l-.47-.4c-.56-.38-.66-.5-.29-.35m25.54-.57c0-.11.31-.11,0,0M16.19,16a.9.9,0,0,1,.5.44c-.08,0-.78-.44-.5-.44m-.57-.37c.08,0,.23.1.44.31C15.81,15.93,15.66,15.83,15.62,15.62Zm1.57-.38-.12.31c-.66,0,.12-.84.12-.31m24.53-.56c0-.48,1-.43,1,.12,0,.71-1,.48-1-.12m-27.67-.19c.17.17.88.36.88.63-.25,0-1.2-.63-.88-.63m1.13.56c-.25,0,0-.37.13-.18l-.13.18m14-4.39c.33.47.8.74.94,1.32a1.21,1.21,0,0,1-1.41,1.28c-1.76-.24-1.09-2.6.47-2.6m9.1,2c0-.33.18-.05.19,0s-.19.33-.19,0M31.93,9.6c.68,0,.73,2.31,0,2.31-.53,0-.69-2.31,0-2.31m-11.6,1.63.19-.13c.37,0,.12.37,0,.37a.72.72,0,0,1-.19-.24M38.64,9.72l-.06-.25c.31.07.34.15.06.25M31.93,5.83a2.08,2.08,0,0,1,1.73.44,1.35,1.35,0,0,1-.44,2.36c-2.64,1.15-2.26-2.8-1.29-2.8M26.1,3.76a8.62,8.62,0,0,1,2.1-1.21c.61-.17,1.78.26,1.78,1.09s-.34,2.44-1.44,2.16c-.59-.14-.41.78-.68,1.1a2.5,2.5,0,0,1-2.73.31c-1.06-.5-.93-2.52-.22-3.07,0-.16,1-.38,1.19-.38M21.39,7.09c-.71-.36-.93.72-1.72.15-.63-.44.06-1.1.59-1.1.36.36.48-.18.77-.31,1.08-.48,1.1.77.36,1.26M7.47,6.52a.53.53,0,0,1-.38-.12c.33-.66.27,0,.38.12M41.72,4.64a2.27,2.27,0,0,1-.06-.25l.18-.06c.21.12.16.22-.12.31M40.59,3.07c0-1,.64.52.69.74.22.95-.28.66-.31.33s-.07-.86-.38-1.07M12.74,3.2c0,.7-.87-.25-.19-.25.06.08.13.16.19.25m13.17-.88c0-.55.05-2,.56-2.32.44,0,0,2.32-.56,2.32m-6.46-.57c-.48.2-.85.72-1.42.3A.85.85,0,0,1,17.94.88c.81-.81,1.51-.17,1.51.87"/></g></g></svg>