<svg xmlns="http://www.w3.org/2000/svg" viewBox="0 0 56.07 76.06"><defs><style>.cls-1{fill:#e51e25;}</style></defs><g id="Calque_2" data-name="Calque 2"><g id="Vector_Graphics" data-name="Vector Graphics"><path class="cls-1" d="M20.77,74.42a2.05,2.05,0,0,1-.16-.38c.31.11.85,1.25,1,1.6a.43.43,0,0,1,.17.42c-.6-.3-.57-1.32-1-1.64M19.64,55.63c.67-.67,1.32.78,2.1.63v.08h.17v.09h.34v.08h.29v.08h.17v.09c.55.14.53.81.87,1.17a2.81,2.81,0,0,1,.68,1c.16.46,0,1,.53,1.13a6.72,6.72,0,0,1,2.67,1.68v.17h.08c-.1.35.17.8.17,1.22h.08v.13h.09v.25c.17.11.09.39.25.5a2.15,2.15,0,0,1-.59,1v.55a4.7,4.7,0,0,1-1.26,1.3c-.06.34-.39.54-.46,1a2.52,2.52,0,0,1-.46,1c-.41-.07-.78.84-1.18.34h-.59a12.18,12.18,0,0,0-1-1.05v-.17h-.08v-.08h.08c0-.22,0-.45-.16-.55a1,1,0,0,1-.21-.59c-.1-.32-.55-.51-.76-.17v.17a.67.67,0,0,1-.38.25v.09a3.06,3.06,0,0,1-.8-.72c-.6,0-1.12.21-1.73.21a2.7,2.7,0,0,1-1-.46h-.3v-.08c-.52-.08-2.42-1.5-2.35-2.11-.37-.36-.46-1.26-.72-1.76h-.08v-.25c-.27-.2.08-1.58.08-2h.09c0-.28,0-.57.12-.72.06-.51.83-.62.89-1.13a1.42,1.42,0,0,0,.42-.59h.08a1.48,1.48,0,0,1,.51-.8,4.36,4.36,0,0,1,1.51-.72v-.08h.33v.08h1.06v-.08h.21c0-.12.12-.12.25-.08M.76,67.48a.17.17,0,0,1-.17.09C.5,67-.18,66,.05,65.55a.55.55,0,0,0,.2.5v.17H.34v.3l.25.33c.11.17.31.46.17.63m55.12-13v-.08H56v.08h.09c.15.69-.67.28-.17,0M.43,47.13l.16-.08.09.25a2.5,2.5,0,0,1-.25.09c0-1.22-.14,0,0-.26M.59,46v-.25H.76c.05.18,0,.28-.17.25M40.08,32c.58,0,.59.45,1,.5,0,.54.89,1,1.23.55a.67.67,0,0,1,.25-.38h1.18v.09l.42.12c.15.35.51.55.57,1,.1.71-.3,1.06-.66,1.55h-.25c-.09.17-.31.16-.54.16.05.22.27.34.23.58a7.78,7.78,0,0,0-.11,1.27,1,1,0,0,0,.42.8,6.54,6.54,0,0,1,.42.72c0,.45-.19.42,0,1-.21-.23-1.14-.47-1.22,0h.09v.17c.36.18,0,1-.42,1a4,4,0,0,0-.72.33v.34l-.25.29v.42h-.09c.07.49-.68.61-.88,1-.29.08-.42.32-.62.5a1.74,1.74,0,0,1-.72.13L39,44.4a1.78,1.78,0,0,0-.8-.08v.08L38,44.32v.08h-.25c-.18.21-.67.23-.8.42-.36,0-1.15.35-1.3.09h-.3v-.09c-.77-.11-1.41-1-2.35-.88-.07,0-.28-.2-.34-.25a2.66,2.66,0,0,1-.88-1c-.29-.13-.44-.8-.72-.8-.67,0-.67-1.09-.88-1.48a.45.45,0,0,0,.17-.46v-.25h.08c0-.27.06-.52-.08-.67a8.83,8.83,0,0,0-.68-.8c0-.6.47-1,.47-1.56,0-.28-.16-.53-.05-.81s.39-.16.39-.32.54-.5.58-.55c-.06-.36-.29-1.26.25-1.26V33.6h.21v-.09h.17c.13-.15.6-.31.76-.5s.37-.36.3-.72c.32-.14.46-.38.88-.31a.71.71,0,0,0,.67-.15h.21c.2-.12.53-.17.63-.53.28-.94,1.14-.14,1.49.28s1.6-.89,1.85-.38a2.93,2.93,0,0,0,1.29.84v.08a.63.63,0,0,1,.34-.08M15.52,29.31c.28-.09,1.16-.11,1.3.08h.42c.16.17.62.18.91.21.48,0,.71.54,1.15.59v.08h.26c.1.18.39.17.5.34.65.07,1.27,1.25,1.68,1.6v.59h-.08a3,3,0,0,0,.67,1.34.75.75,0,0,1,.55.76c.07,0,.09.06.08.13l-.25.25c-.12.44-.34.49-.34,1.09,0,.76.39,1.44-.12,2C22,39,21.34,39.47,20.79,40s-.56,1-.9,1.4a1.89,1.89,0,0,1-.59,1.38,3.28,3.28,0,0,1-1.57,0A13.58,13.58,0,0,0,16,43c-.74,0-1.5,0-2.26,0v-.08H13.5V42.8h-.16a7.64,7.64,0,0,0-.89-.58,6.19,6.19,0,0,1-.63-.3c-.52,0-1.22.11-1.22-.59h-.09V41h-.08v-.21a.72.72,0,0,0-.3-.26c0-.31-.83-.57-.83-.92a2.92,2.92,0,0,0-.21-.8c-.23-.12-.3-1-.23-1.28.12-.53-.58-1.66-.19-1.92v-.25h.08v-.17c.12-.1.21-.36.34-.46v-.42c.12-.15.13-.57.29-.71.07-.49.72-.69.88-1.24.23-.86.8-1,1.39-1.37.13-.13.41-.13.42-.38h.17c0-.3.59-.67.89-.71v-.09h.37v-.08h.25v-.08H14.8v-.09h.26v-.09h.17v-.08c.13,0,.27,0,.29-.08M44.19,40c.14,0,.45.06.25.33,0-.15-.13-.22-.25-.33m6.22-7.91c-.37-.61-.14-1.7.8-1.3A.8.8,0,0,1,51.52,32c-.47.43-.51.37-1.11.17m1.52-1.59c-.19-.1-.36,0-.34-.26a2.5,2.5,0,0,1,1.47.42c-.39.08-.65-.21-1.05-.16v.08c-.07,0-.1,0-.08-.08m-5.34-6.86c-.15-.21-.26-.18-.29-.42.29.1.68.31.63.63a.42.42,0,0,1-.34-.21m-.46-.58c-.2-.05-.33-.1-.34-.3a.66.66,0,0,1,.34.3M32.34,20.77c-.06.23-.05.44-.17.55v.25h-.09v.17H32V22h-.09v.42c-.25.19,0,.51-.42.63-.14-.53.29-.74.38-1.22a3.34,3.34,0,0,1,.55-1.34c0,.15,0,.3-.08.33M45.5,22.62a.17.17,0,0,1,.12-.08v.17a.18.18,0,0,0-.12-.09m-9-11.06v-.08c.5.08,1.5.06,1.8.38h.17c.17.26.6.47.72.84,1.05.09,1.24,1.06,1.59,1.85.14.31.94,1.16.59,1.43a.93.93,0,0,0-.16.59h-.09v.71H41v.42H41a2.41,2.41,0,0,1-.18.47H40.7v.16h-.08v.34c-.26.47-.47,1.14-1.26,1.18v.08a.88.88,0,0,1-.59.17,2.31,2.31,0,0,1-1.13.71,5,5,0,0,1-1.27.17c-.08,0-.15,0-.17-.08a2.06,2.06,0,0,1-1.55-.46h-.21v-.09h-.17v-.08a3.8,3.8,0,0,1-1.22-.8c-.19-.38-.62-.7-.71-1.14a1.68,1.68,0,0,1-.17-1c-.14-.37-.77-1-.34-1.31v-.37h.08v-.17H32v-.25h.08v-.43h.09v-.2h.08A4,4,0,0,1,33,13c.43-.41,1.14-.38,1.3-1.06a.9.9,0,0,1,.86-.16,2.67,2.67,0,0,0,1.37-.22M17.36,12a.36.36,0,0,1-.12.08V11.4c.23.07.12.36.12.63M25.53.26c.08-.18,0-.28.16-.26V.17h-.08c0,.3-.19,1-.46,1.05a.7.7,0,0,1,.29-.63c0-.15,0-.3.09-.33m13,.46V.59A1.44,1.44,0,0,1,39.1.8V.89H39V1c-.25,0-.36-.17-.5-.25M38.39.59a.2.2,0,0,1,.13-.08c0,.13-.05.05-.13.08"/></g></g></svg>