<svg xmlns="http://www.w3.org/2000/svg" viewBox="0 0 69.04 69.42"><defs><style>.cls-1{fill:#e51e25;}</style></defs><g id="Calque_2" data-name="Calque 2"><g id="Vector_Graphics" data-name="Vector Graphics"><path class="cls-1" d="M26.62,66a1.83,1.83,0,0,1,1.87,1.07c.07.16.25,1.41-.1,1.41-.05,0-.52.71-.76.78-.41.12-1,.31-1.3,0h-.24c-.27-.21-.44-.6-.76-.72v-.38c-.92-.85.75-1.72,1.1-2.11.11,0,.2,0,.19-.09M17.91,51.54c.22,0,.33-.19.39,0a4.31,4.31,0,0,1,1.32.55c.25.18.15.55.45.55a.71.71,0,0,1,.43.24v.19h.09v.29h.1v.19h.09a4.9,4.9,0,0,1,.15,1.34H21v.38h-.09a1.34,1.34,0,0,1-.15.57c-.4,0-.2.67-.19.91H20.5c-.15.28-1.33,1.28-1.58,1.15h-.43a1.24,1.24,0,0,1-1.38,0h-.2v-.15a2.45,2.45,0,0,1-.81,0c-.31-.15-.24-.53-.62-.57l-.29-.29c-.22-.19-.79-1.7-.62-1.91a.75.75,0,0,1,0-.52v-.39h.09v-.19h.1a2.41,2.41,0,0,1,0-.71c.32-.25.62-.36.72-.72a9.25,9.25,0,0,1,1.72-.91v-.1h.48v.1c.12-.06.23-.15.23,0m16-43.65c.32-.52.46-.95,1.15-.95.47,0,.78.67,1,.67s0,.78,0,.87c-.29.75-.9.21-1.4.46a2.3,2.3,0,0,0-.54.72c-.15.72.11.75.38,1.16a2.41,2.41,0,0,0,.69.73c.28.18.86.3,1,.5.25,0,.45-.12.57,0h.53c.28.31,1.57.17,1.87.1h.14c.2-.2.77-.24,1-.43s.77-.57,1-.77c.32-.83,2-.55,1.18.15-.5.43-1.07,1.12-1.7,1.14v.1h-.19c-.16.14-.66.22-.82.38h-.19a6.6,6.6,0,0,1-1.79.39c-.69.08-1,.05-.4.61a10.81,10.81,0,0,1,1.81,1.1c.3.31,1.16,1.15,1.67,1.15.33-1.12,3.56-.35,3.25.67-.25-.06-.49-.15-.62,0h-.28v.1a2.2,2.2,0,0,0-1,.23c.23.45.4,1.11.77,1.39v.29l.24.33v.38a1.73,1.73,0,0,1,.47,1.06c.1.49.55.51.63.95a1.51,1.51,0,0,1,.09,1.1v.62h.1v.39h.09v.33h.1v.38c.5.42,1.93,1.67,2.63.91h.38V25H48c.15-.2.57-.05.86-.21a1.71,1.71,0,0,1,1.56,0c.4.14,1.19.58.77,1-.17.15-.59-.05-.65-.13h-.19v-.09a2.76,2.76,0,0,1-.53-.19l-.38-.29c-.33,0-2.69.31-1.87,1a2.74,2.74,0,0,0,2,.88v.1h.2v.09h.38v.1H51c.31.24.67.28.71.81-.27.29-1.09.36-1.28.1h-.19v-.1a5.23,5.23,0,0,1-1.13-.64,2.62,2.62,0,0,0-1-.58c-.49-.16-.64-.72-1-.88v-.1h-.57c-.61-.49-2-.66-2.2.19h-.1a.61.61,0,0,1-.43.68,3.39,3.39,0,0,0-.19-.3V26.2h-.38v.19c-.58.3.23,1.11.57.43a8.94,8.94,0,0,1,2,2.39H46a.62.62,0,0,0,.53.39c0,.06.05.16.09.23-.23,0-1.2-.28-1.2-.52a1.52,1.52,0,0,0-.33-.48c-.73-.15-1-.13-1,.67a6.45,6.45,0,0,0,.29.62v.19h.1c-.11.22.55,1.76-.15,1.41-.1,0-.25-1.47-.33-1.69-.19-.58-.61-.75-.91-1.11-.7-.19-1,.87-1.48.87a1.81,1.81,0,0,0-.81.52c0,.31-1.28,1.05-1.63,1.1v.1a3.21,3.21,0,0,1-1,.43V32a1.06,1.06,0,0,1-.43.19l-.37.29c-1.8-.34.69,2.56.91,2.92-.4,0-.37-.28-.54-.38-.4-.1-1.15-.47-1.19-.92-.24,0-1-1.34-1.19-1.62a23.21,23.21,0,0,1-3.23,0c-.41,0-2.54-.68-2.8-.38a1.47,1.47,0,0,0-.53.29,1.34,1.34,0,0,0,1,.42.48.48,0,0,1,.29.48H30v.1h-.29v-.1h-.38v-.09H29.2v-.1l-.57-.29c-.25-.07-.57-.44-.91-.42v-.1h-.29v-.1h-.24v-.09h-.28V32h-.39c-.11-.07-.62-.06-.81-.19V32h.09v.1c.34.19.72.23,1,.57V33h.1v.19H27c-.09.37.34.54.34,1s-.9.27-1.15.38c-.76.9-2-.14-2.11-1H24l.09-.19c-.36-.41-.68-1-1.29-1.1-.16-.28-.8-.45-.95-.77,0,.38,0,1.12.28,1.29v.24h.1c0,.44.09.87.09,1.34.41-.61,1.83.68,1.11,1.25a.82.82,0,0,0-.78.63c-.15.7,1.09.85.87,1.71h-.19v.19c-.88.18-1.33,1.1-.55,1.7s.3,1.47-.46,1c-.68-.1-.9.82-.9,1.34.37.19.71,1.29.14,1.29s-1.63-.06-1.24,1c.14.34.82.92.1,1v.1c-.42,0-1-.44-1.3-.2h-.19a2.48,2.48,0,0,1-.91.91v.1h.1v.38c.38.27.27,1.22-.43,1,0-.42-.65-.64-1-.76-.13.19-.38,0-.58.19a4.28,4.28,0,0,1-.43.72,3.73,3.73,0,0,1-.67.48c-.17,0-.31.46-.34.62s-.51.07-.67.09c-.25-.33-1.1-.36-1.54-.2-.82.3-.48,1.82-1,1.78a4.11,4.11,0,0,1,.07-1.27c.1-.31-.45-.75-.61-1h-.18c-.17-.47-1.1-.32-1.29,0H8.93v.09H8.45v.1a2.85,2.85,0,0,1-1.72-.67c-.47-.31-1.18-1.08-1.82-1v-.1a1,1,0,0,1-.76-1.19h.09c0-.45-.78-.59-1.1-.73-.58-.26.06-.85.15-1.16.34-1.11-1.1-.68-1.6-.62s-.43-.57-.17-.79.79-.71.52-1c.3-1.29-1.62-.07-1.62-1.43.25-.74,1.24-.21,1.1-1.29h-.1V38.2H1.33c-.31-.45-1-.14-1.3-.62-.27-.91,1.17-.53,1.42-1.17s-.14-1-.36-1.41-.77-.48-.27-1,1.23.41,1.61-.52c.15-.36-.22-.71-.39-.94-.36-.19-.2-.83.29-.91a.83.83,0,0,0,1.19-.29,1.36,1.36,0,0,0-.47-1.19v-.53c.19-.11.36-.17.47-.09.6,0,1.37.58,1.29-.64,0-.23-.06-.46-.07-.69,0-.49.15-.23.32-.59a2.8,2.8,0,0,1,.9.44c1-.15.83-.84,1.44-1.6.49-.6,1.16-.06,1.53.26,1.53,0,.54-1.34,1.24-1.77.6-.17.78.6.91.86V26l.39.38c.16-.08.36-.13.43,0h.19v.1A1,1,0,0,0,13,26c.12-.26.32-.8.76-.49.76.51.67,1.84,1.92,1v-.62c.26-.12.13-.91.48-.91-.17-.11-.33-.25-.48-.33v-.2h-.1V24.1a1.57,1.57,0,0,1,.08-.62c.19-.7,0-.54-.13-1.07s1.74-1,.73-1.61c-.52,0-1.59.24-1.07-.63.16-.27.54-.3.68-.42.66,0,.21-.86.67-.86-.16-.15-.05-.26-.05-.24v-.19c.3-.23,1-1.82.2-1.82-.06,0-.91-.43-.91-.53,0-.38-1.82-.24-1.82-1.24a2.24,2.24,0,0,1,1.44.38c.18.48,2.09,1,2.09.77a5.76,5.76,0,0,0,.82-.86c.65-.63-.39-1.32-.34-1.82-.16-.11-.19-.2-.19-.48.43-.21.41-.14.81.1.69.52.84.17,1.11-.34,0-.75.92-.81,1.36-1.07.61-.37-.36-1.86.45-1.75a14.37,14.37,0,0,0,1.1,1.53h.48v-.09h.24v-.1A2.48,2.48,0,0,0,24.61,11c.21-.23.14-1.92.91-1-.14,1.11,1.85.38,1.1-.53.21-.42.41-.46.67-.07.13.21,0,.53.29.48s.28-.4.28-.65c0-.63-.26-1.32.54-1.66a1.76,1.76,0,0,1,2.52,1.42c.64.21,1.28-.24,1.91-.43.36-.15.61-.52,1.1-.62M31.73,45.8c.17.13.22.49.29.58s0,.13-.09.14.21.27,0,.29v.28h-.1c0,.14.19.23,0,.19v.19c-.23.33.06,1.12-.67.91A4.12,4.12,0,0,1,31,46.71h.09c-.23-.23.31-1.22.62-.91m12.58,2.39c-.19,0-.26-.1-.24-.28.22.05.14.15.24.28m2-1.1V46.9h.19c0,.17,0,.24-.19.19m-8.94-2.2a1.65,1.65,0,0,1-.1-1.62c.53-.15,1.1.73,1.1,1.1a5.32,5.32,0,0,1-.2,1.53.44.44,0,0,1-.62-.34h-.09v-.38c-.14,0-.14-.14-.09-.29m-12.58,0c0-.49,1-2.5,1.43-1.31.28.69-.38,1.31-.81,1.6-.29,0-.37-.12-.62-.29m-1.38-2.62c.34.35.58,1.07,0,1.28.14.67-.61.82-1.11.82-.39-.87-.08-2.1,1.11-2.1m1.76.62.34-.1a.45.45,0,0,1-.34.48,2.41,2.41,0,0,1,0-.38m3-.15a.39.39,0,0,1-.39-.28c.29-.08.44,0,.39.28m16.39-3c-.48-.41-1-.53-1.1-1.24.56.18,1.12,1.42,1.63.9-.14,0,.33-.27.38-.28s.25.22.29.28v.19h.09a6.2,6.2,0,0,1,1.2,3.11c-.63-.08-1.83-1.2-1.77-1.86h-.1v-.15h-.09c0-.39-.31-.66-.53-.95m18.17,1.39c-.58-1.12,1.43,0,0,0m-37.67-.91h.09v.09h.24v.1h.1c.28,1.13-1.21.42-.43-.19m10.18.19c.27-.23,1-1.31,1-.19,0,.81-.8,1.15-1,.19m33.61-.29V40H69c0,.14,0,.22-.14.19M43,40c-.13-.13-.18-.14-.29-.24a1.54,1.54,0,0,1-.46-.42c-.21-.27-.16-.45.18-.54.34.16,1.86,1,.81,1.3,0-.19-.11,0-.24-.1m-9-1.34c.49-.47,1-.44,1,.34-.62.4-1,.75-1-.34M26.52,38h-.29v.1h-.14v.09c-.45.15-.87.72-1.38.82-.08.06-.14.21-.29.28,0-.49.76-.44.76-.91a16.15,16.15,0,0,1,1.73-1c0,.31-.22.46-.39.62m14-.34c0-.45.32-1.19.84-.67.19.19.16.25.16.58-.49.5-.49.3-1,.09m-1.91-1.86c.85-.42,1.15.51.39.77-.24-.23-.42-.38-.39-.77M25.8,35.43c.31.5.68,1-.19,1-.28-.35-.7-1,.19-1m12.49.09a.16.16,0,0,1,.18-.09v.09h-.18m-6.94-1.67c.64.43-.49.76-.91.38s0-1,.39-.62a.61.61,0,0,1,.52.24M44.21,32v-.09h.48c.06.27.64.51.91.67v.33c-.51,0-1.56-.44-1.39-.91m2.92-1.62v-.1h.67v.19c.54-.13,1.06.63,1.1,1.1-.28.1-1.35,0-1.49-.19h-.19c-.28-.19-.59-.63-.52-.81v-.1h-.38c.26,0,.53-.08.81-.09m15.34.29v-.2h.19c.05.17,0,.23-.19.2m-15.58-.91v-.1H47a.34.34,0,0,0,.1.24c-.26,0,0-.08,0-.1s-.44,0-.19,0M17,26.2a4.12,4.12,0,0,0-.24-.67c-.24.61-.61,1.4.19,1.72,0-.47,0-.6.05-1.05m35.38-3.64c.2-.34.5-.32.9-.38v.1h.1c-.13.5-1,1.18-1,.28m-2.54-2c.31-.25,2.14-.94,1.91-.1a4.81,4.81,0,0,0-.8.43c-.35,0-1.16.11-1.11-.33M48,19.08c-.1-.54.17-1.21.43-.53.07.34,0,.63-.33.62,0-.08,0-.11-.1-.09m-.57-.72c0-.2-.21-.32,0-.29V18c.85.12,0,.54-.52.48a4.76,4.76,0,0,1,.52-.1M47.08,18l-.29.09V18H46.7l.43-.24c-.06,0-.08.14-.05.24m3.25-.91c.31.07,1.66.23.9.77-.27.2-.55.14-.9.14-.39-.57-2.56.25-3-.34h-.24v-.09c-.87,0-1.87.3-2.2-.58h-.1c0-.54,1.3.09,1.54.19v.1h.28v.1H47v.09h.72c.56.5,2.16,0,2.63-.38m5.73-.53c.47-.06,1.31-.29,1.46.3s-1.7.79-2.1.83c-.56,0-2.11-.1-.93-.58a6.76,6.76,0,0,0,1-.35h.38v-.1c.11,0,.17,0,.14-.1M46.6,15.35c.48,0,.72,0,.72.67s-.65.8-1.2.95c-.18-.45-.49-1.92.48-1.62M48.41,14c.58-.69,2.85-.51,1.68.38H49.9v.1h-.28v.09h-.53v-.09c-.22,0-.33.16-.39,0-.34,0-.46-.29-.29-.48M43.68,8.61c.3-.53,1.06.19,1.39.33,0,.49.15,1.39-.38,1.67s-1.65-.37-1.48-1h-.1c.14-.44.07-1,.57-1M15.14,4.4V4.21h.14c0,.52-.52.86-.52,1.15A3.28,3.28,0,0,1,14,6.5a.62.62,0,0,1,.28-.57c.12-.37.61-1.46.91-1.53M19.3,1.58v-.1a.18.18,0,0,1,.1.2h-.19c0-.09,0-.12.09-.1M27.81,0h.1a.18.18,0,0,1-.1.19V0"/></g></g></svg>