<svg xmlns="http://www.w3.org/2000/svg" viewBox="0 0 42.03 69.42"><defs><style>.cls-1{fill:#e51e25;}</style></defs><g id="Calque_2" data-name="Calque 2"><g id="Vector_Graphics" data-name="Vector Graphics"><path class="cls-1" d="M7.05,69.33c.07-.21.34,0,.45,0-.08.07-.37.15-.45,0m5.74-2.91c.56-.23.88.08.88.68,0,.42-1,.74-1.05.18a1.52,1.52,0,0,1-.22-.22c.06-.18.18-.67.39-.64m-6.24,0c.33-.26.48-.06.84-.06v.08l-.23.09v-.09H7.08v.09H6.69c0-.12,0-.08-.14-.11m.28-1.2a.71.71,0,0,1-.25.34c0-.19.1-.38.25-.34m20-24.38c.25-.25.4.31.73.11.49-.27.63.56,1,.56v.08s.36-.2.36,0c0,0,0,.35,0,.41a1.43,1.43,0,0,0,.5.14.86.86,0,0,0,0,.61.3.3,0,0,1,.41,0c-.21.45-.28.43,0,.95.07.14,0,.54-.21.54s0,.57,0,.53c-.07.21-.35.61-.58.61,0,.2.18.23.22.48s.26.07.36.1,0,.14.32.14.22-.27.46-.33.25.1.32.26c.15.36.24.32.57.38a.26.26,0,0,1,.2-.19c.37-.18.2,0,.41.19s-.11.36.14.38c.07.12.41.41.41.56.16.1.38,0,.56,0s.08.32.05.55.21,0,.17.28v-.06c.1.25.23.64.55.64a2.14,2.14,0,0,1,.5-.36c.42,0,1.17-1.28,1.55-.92,0,.37-.46.52-.75.59-.14.09-.33.38-.55.47s-.1.44-.19.61-.06.32-.23.36v.47c.13,0,.24.46.29.62.12.4,1.25-.44,1,.26-.21,0-.41,0-.62,0s-.19.16-.39.18c-.45,0-.25.51-.51.65v.48c.27.08.06.85.28,1.11s.64.22.64.35,0,.24.12.36-.39-.07-.5-.2-.22-.26-.32-.28a3,3,0,0,1-.41-.18c-.41-.13-.16.16-.39.16s-.27.16-.33.23c0,.55.08.63-.56.63-.06.2-.36.3-.36.48s0,.46-.22.49a.25.25,0,0,1-.31-.12c-.31-.14-.22.1-.47.15a2.61,2.61,0,0,0-.3.19c0,.16-.32.47-.39.42a1.36,1.36,0,0,1-.39-.25c-.25,0-.8-.12-.89.17H29a.24.24,0,0,1-.45.14c-.3-.59-.58-.25-1-.09,0,.19.23.36.39.42.08.25-.33.67-.06.88.11.09.34.06.47.09s0,.33,0,.33c-.3,0-.44.4-.09.5,1,.29,0,.48-.08.72H28a1,1,0,0,0,.16.39.84.84,0,0,1,.39.05c.32.16-.24.32-.3.34-.29.14-.15.54-.14.82s.22.3.22.56a1.81,1.81,0,0,0-.57.46c-.17.21.19.68-.15.65v.06c-.12,0-.75.32-.75.45s-.1.17,0,.34c.28.35-.16.31-.23.53s-.08.19-.08.34-.54-.14-.58-.15a.37.37,0,0,0-.45.29h-.05c0,.25,0,.47-.37.47-.08-.3-.48-.14-.66-.14,0,.19-.16.27-.33.36s0,.37-.34.44c-.18,0-.18-.29-.35-.31s-.22,0-.28-.08h-.5c-.1.16-.51.15-.66.28-.12.79-.57-.21-.66-.27a.37.37,0,0,0-.47-.06c-.35.15-.3,0-.52-.17s-.41-.31-.86-.26c-.69.08-.14-.57-.57-.78s-.36-.48-.78-.37-.54-.45-.24-.44c.19-.35-.12-.43-.34-.64-.12.14-.29,0-.39-.08,0-.28.25-.22.25-.48a.44.44,0,0,0-.56-.48c-.81.12.37-.72-.13-.79v-.06c-.19,0-.29,0-.39-.11s.17-.17.36-.33.11-.46,0-.68a1.5,1.5,0,0,0-.75-.65,9,9,0,0,1-1.35-.61h-.13c-.11-.16-.56-.2-.73-.25,0-.12-1-.19-1.08-.3h-.08V57.3a.58.58,0,0,1-.3,0c-.06-.09-.86-.25-.86-.36a8.58,8.58,0,0,0-.9-.31c-.35-.08-.95-.28-1.1-.58-.4-.25-.48-.47-.64-1.08.24-.1.05-.4.3-.6A1.13,1.13,0,0,1,9.69,54v-.06h.16v-.05c0,.06,1.05.22,1.11.25s.75.2.75.44c.22.23.77.16,1,.36h.17V55c.36,0,.49.49.82.49.09,0,.09.1.23.12s.67,0,.75.19l.33.08v.06h0v0l.31.06.14.14a.8.8,0,0,0,.3-.06c.14.14.9.39,1,.25.27.28.72-.17,1-.17s-.25-.78-.33-.83h-.14v0c-.3,0-.82-.6-.34-.5a.45.45,0,0,1,.34,0l0,0c0,.25.76.38.83.72.26.15.66,0,1,0,0-.13.14-.18.28-.16.07-.17,2.12-.29,1.27-1v-.17c-.21-.14-.25-.89-.44-1.13V53c-.5-.61-.37-2.6-1.41-2.77a1.66,1.66,0,0,1-.08-.65.61.61,0,0,1,.61-.57c-.09-.28-.09-.19-.2-.19s0-.24,0-.36-.12.07-.13-.05h.11v-.06l.08.06a.61.61,0,0,0-.19-.56.14.14,0,0,1-.09.11.42.42,0,0,1,.06-.14c-.15,0-.15-.12-.28-.16s-.19,0-.36,0c0-.49-.86-.13-1,.06S17.1,48,17,48v.25a.52.52,0,0,0-.34.54c0-.06-.38.45-.41.48s-.05.19-.22.22-.41.08-.55.14a7,7,0,0,0-.76.28h-.19V50h-.81v-.06a.2.2,0,0,0-.11.06.25.25,0,0,0-.27-.06,1.27,1.27,0,0,1-.78-.65,4.49,4.49,0,0,1,0-1.62c.31-.38-.25-1,.35-1,.24-.29-.22-.34.25-.43a.3.3,0,0,0,.23-.4c.1,0,0-.17.15-.17a2.44,2.44,0,0,0,.46-.07c.12,0,.21-.16.39-.18v0l.72,0c.15,0,.3.11.39,0,.29-.09.54-.44,1-.54s.82-.21,1,0h.11a9.11,9.11,0,0,1,1.06.45,4.67,4.67,0,0,0,.63.08v0c.28-.1.74.09.86-.22.2,0,.38.08.32-.21s.36-.26.48-.07c.1-.12.3-.19.34-.39-.31-.3,0-.39.25-.39A.4.4,0,0,0,21.8,44c.19.07.27.21.41.11.51.07.52-.8.84-.44s.42.32.74,0,.08-.79.35-1c.45-.31.28-.74.87-.93-.07-.4.3-.45.53-.58s.16.08.31.08.1-.33.34-.33.07.34.43.18a.31.31,0,0,0,.19-.18M1.43,64.78v-.11c.09,0,.05.06,0,.11M15,63.65a1.94,1.94,0,0,1-.34.36c.2-.2,0-.36.34-.36m-4.8-1.5-.16,0c0-.21.14-.24.16,0M41.8,61.4c-.31-.35-.87-.4-.91-.94a1.22,1.22,0,0,1,.27,0v.11c.23,0,.33.17.5.25s.65.38.14.58m-4.49-5.54c.15-.1,0-.1.25-.17,0,.2-.14.28-.25.39a1.38,1.38,0,0,1-.41.11,2.28,2.28,0,0,1,.41-.33m-9.86-.28c-.21-.21-.42,0-.47.23.22.11.38,0,.47-.23m-1.08-.41c0,.39,0,.3.33.44V55.5c.25-.16-.09-.39-.33-.33M20.44,50.1c-.35-.35-.58.23-.8.39a2.07,2.07,0,0,0,.19.61c0,.33.32.69.37,1.09,0,.07.41.93.37.93s.47,1.09.48,1.16h.08c0,.48.56.42.64.72.2,0,.65.41.78.17h.08a6.13,6.13,0,0,0,0-.86h.11v.53a1.15,1.15,0,0,0,.83-.75.09.09,0,0,0,.08-.11l0,0c.16,0,.19-.57.06-.63-.16-.33-.36-.57-.09-.94.15-.2.21-.32.33-.45.11-.4-.23-.63-.63-.69-.08.1-.18.44-.36.33a.28.28,0,0,1-.11-.33.86.86,0,0,0-.53-.11c-.42.42-.23-.12-.62-.17a5.09,5.09,0,0,1-.54-.22c-.14-.14-.23-.24-.17-.47h-.14v.06c-.17-.05-.41,0-.41-.28m5.21,4.54c-.43,0-.36.46-.06.61h.17c-.07-.2,0-.41-.11-.61m-10.59-.19a3.12,3.12,0,0,0-.5.36V54.7a3,3,0,0,0,.5-.39v.14M39.22,51.6c0-.06,0-.12,0-.17.26-.09.91-.29.91.17a2.08,2.08,0,0,1-.86,0m-3.79-.73v0l.08,0a.08.08,0,0,1-.08,0M19,48.79c0-.07,0-.1.11-.08s0,.11-.11.08m-.17-.13c.1,0,0-.08.14,0a.37.37,0,0,1-.14,0m.19,0,0,0s.06-.06.11,0,0,0-.09,0m.31-.38v.08h.08c0-.07,0-.1-.08-.08m1.3-4.41a.35.35,0,0,1,.16.25c-.11-.07-.12-.15-.16-.25m0-.08c.18.17-.11-.13-.09-.12s-.32-.21-.32-.38c.21,0,.37.31.41.5m-1.44-.94c-.19.63-.71.24-.94.05-.38,0-.44-1.12-.4-1.31s.12-.09.12-.3c0,0,.39-.46.39-.22,0-.21.68.63.69.64a4.2,4.2,0,0,1,.22.94c-.08,0-.09.1-.08.2m9.25-2.53a.34.34,0,0,1,.2-.19c-.23-.23.16.22.11.14-.09.12-.18.16-.31.05M9,22.25c.09-.17.29.13.28.28.14.09.17.33.17.52A4.31,4.31,0,0,1,10,24.57a3,3,0,0,0,.25.8c.16.15.11.59.27.7a4.91,4.91,0,0,1,.52,1.45h.09a2.08,2.08,0,0,0,.38,1,2.44,2.44,0,0,1,.14.53,3.67,3.67,0,0,1,.46,1.21c.07.48.35.86.43,1.42a.14.14,0,0,0,.11-.19c.23.05.24.36-.06.22.27.6.41,1,.61,1.55.16.11.18.5.28.69a2.64,2.64,0,0,1,.25.78,22,22,0,0,0,.69,2.44c-.34-.12-.56-1-.66-1.28l-.36-1c-.17,0-.48-1.54-.7-1.68v-.09A4.51,4.51,0,0,1,12.35,32h-.06v-.14c-.19-.14-.26-.72-.33-1-.1,0-.26-.45-.29-.6-.05-.33-.24-.54-.31-.87s-.3-.66-.34-.92-.13-.73-.28-.82v-.06a6.84,6.84,0,0,1-.44-1.3c-.15-.16-.21-.9-.42-1-.05-.12-.09-.31-.14-.39v-.08c-.29-.27-.15-.95-.44-1.22v-.16c-.23-.21-.15-.86-.45-1A.34.34,0,0,1,9,22.33a.13.13,0,0,1-.11-.08H9m5.58,11c.06-.06.12-.06.11-.16a1.1,1.1,0,0,1,1.09.71,1.57,1.57,0,0,1,0,1c0,.12-.28.39-.34.29-.47,0-.62,0-1-.33-.11-.15-.37-.75-.19-.89v-.14h.05c-.07-.13.11-.37.2-.44M10,26.66c.08.23.13.46.19.69-.22,0-.18-.32-.25-.47s-.23-.73-.4-.92-.13-.32-.05-.4.19.38.23.46c.13.25.16.46.28.64m3.65-6.9c.14-.2.24-.73.58-.38a.92.92,0,0,1,.26.68c0,.3-.26.57-.56.42s-.28-.5-.28-.72M22,16.9a.34.34,0,0,1,.22-.3,1.19,1.19,0,0,1-.58.8,1.64,1.64,0,0,1,.36-.5M6.47,11a1,1,0,0,0,0-.39c.33-.06.35.74.41,1a5.77,5.77,0,0,1,.37,1.58A4.73,4.73,0,0,0,7,12.4,3.84,3.84,0,0,0,6.75,12a1.09,1.09,0,0,0-.17-.48c0-.15,0-.28-.08-.36s0-.14,0-.16m6.59-4.57c0-.32-.19-.78.15-1,.12.26.22,1-.15,1M.07,0C.26,0,.32,0,.38.14a2.93,2.93,0,0,1-.13.94C.11,1.36.07.94.07.89A1.43,1.43,0,0,1,.07,0"/></g></g></svg>