<svg xmlns="http://www.w3.org/2000/svg" viewBox="0 0 49.41 69.42"><defs><style>.cls-1{fill:#e51e25;}</style></defs><g id="Calque_2" data-name="Calque 2"><g id="Vector_Graphics" data-name="Vector Graphics"><path class="cls-1" d="M27.77,69.42a3.2,3.2,0,0,1,.46-1.87,3.22,3.22,0,0,1-.46,1.87M3.35,68.31a.49.49,0,0,1,.47.64c-.18-.21-.42-.28-.47-.64m28.28-38c.49,0,.48-.22,1,0,.15.06.93.62.93.62.16,0,.54.77.59.85.07.33-.05.6.09,1-.24.23-.2.83-.42,1.18s-.81.51-1.22.84c-.92.76-2.11-.22-2.74-.74,0-.24-.2-.35-.29-.55a4.08,4.08,0,0,0-.25-.34,1.16,1.16,0,0,0-.3.63c.07.2.13.39.3.47,0,.59,0,.58-.45,1a.87.87,0,0,0-.28,1.19,1.54,1.54,0,0,0,.18.47h.08l-.06.87c-.05.71.48.21.69.74-.23,0-.45-.12-.68-.15-.4-.05-.45.33-.74.61s-.3,1-.49,1.45a2.61,2.61,0,0,1,1.23.73h.09a1.7,1.7,0,0,1,1.23-.77c.25.38.69.57.93.94,1,0,.91-1,1.62-1.23.41.43.82,2,1.67,1.32.63-.53.92-.24,1,.38a1.52,1.52,0,0,0,1.33,1.33c1,.12,1.85-1.53,3-1,.42.05.7.52,1.1.63v.09a.55.55,0,0,1,.34.13c0,.34.28,1.34.08,1.44v.17h-.08V45c-.56.26-.31.32-.17.66s-.24.82-.54,1c-.45.3.5,1.31.59,1.59h.16c.18.25.83,0,.77.47a.38.38,0,0,1-.13.63v.09H42c-.13.44.48,1.08.72,1.31,0,.43-.4.51-.72.75-.6.44.07,1,.39,1.24,1.1,1-.93,1.08-.69,1.88h-.09c.06.2.92,1.69.28,1.69s-.74.61-.74,1c.28.18.65,1,.08,1-.74,0-.87,1.5-1.62,1.83-.37.17-1,.27-1.14.7-.05.12-.32.66-.51.66v.3c.24.78-.76,1-1.31,1v-.09c-.28.07-.49,0-.6.21-.51-.1-.47,1.13-.63,1.49A2,2,0,0,1,34,63.77c-.28,0-.69,0-.84.21H32.9v.08h-.34v.09h-.12v.13h-.09v.17h-.08c0,.34-.94.82-.94.55,0,0-.23-.24-.28-.28-.25-.25-.36,0-.48,0a3.52,3.52,0,0,0-1.87,1.38c-.15.11-.24.36-.41.46-.36.2-.76.46-1.18.75a1.93,1.93,0,0,1-2.06.11,2.36,2.36,0,0,1-1.22-1c-.08-.12-.64-1-.35-1-.28,0-.2-1.26-.43-1.32v-.55c-.22-.77-.88-.06-1.31-.55h-.09c0-.38.41-1.55-.26-1.53-.11-.24-.89.08-1.24-.1-.61-.34-.32-1.45-.83-1.6v-.16H19a1.65,1.65,0,0,1-.25-1h.08a2,2,0,0,1-.08-.59c-.93.12-.77,1-1.49,1.34-.35.17-.67.71-1.06.66V60h-.94v.09h-.67a4,4,0,0,0-.35-.26c-.34-.14-.82,0-1.1-.34s-.05-.49-.42-.51c0-.37-.43-.37-.52-.8a1.61,1.61,0,0,0-.4-.9c-.33-.52.13-.46.19-.76a4,4,0,0,0,0-.85h.09v-.34h.08c-.08-.37.41-.85.75-.85s.21-.38.46-.38.83-1,1.43-.47c.21,0,.42,0,.63,0s.12-.25.39-.21c.2.35.88.86,1,.3.38,0,.31-.37.59-.47a.81.81,0,0,0,0-.38,6.53,6.53,0,0,1-.68-.47c-.18-.93.2-.81.7-1.53.66-.93-.69-1.49-.79-2.2.26-.26.54-1,1-.85,0,.26-.22.41,0,.38v.08c.55.17,1-.9.69-1.14.13-.24.05-.28-.14-.41s-.08-.5-.08-.7h.13c0-.19.34-.2.47-.29.15.15.19.11.17,0h.67v-.09c.3-.1.25-.34.51-.55h-.29V45H19.7V45a4,4,0,0,0-1,0c-.24.39-.77.28-.93.55-.44,0-.33.55-1,.43v-.09a1,1,0,0,1-.63-.81h-.09v.09c-.16-.08-.08-.2-.3-.17v-.08l-.25.08c.08-.74-1.28,0-1.57-.26v.09a3.82,3.82,0,0,1-1.28-.51c0-.11.13-.22-.12-.25,0,.19-.15,1,.17,1,0,.56-.54.7-.38,1.23h-.09v.56h-.09a1,1,0,0,1-.17.76c-.25,0-.76.28-.76.55h-.09a.56.56,0,0,1-.2.6c-.66.21-1.27.75-2,.7s-.7.31-1.3.31c-.1-.28-.73-.73-1-.38-.44.58-.84-.68-1-.68-.35,0-.72.27-1,0s-.21-.58-.43-.73c0-.7-.14-.64-.47-1.23-.35.06-1-.45-.51-.7a.53.53,0,0,0,.13-.7h0c0-.19-.67-.6-.36-.8A3.68,3.68,0,0,0,3.61,44c.18-.18-.1-.61-.19-.7s.4-.86.31-1.21h.09c0-.53.41-.3.77-.22a8.45,8.45,0,0,1,.88-1.16c.36-.42.94,0,1.28-.32H7v-.09h.84v-.08A1.1,1.1,0,0,1,8.7,40a.38.38,0,0,0,.34.42.56.56,0,0,0,.09-.17c-.32-.33-.25-.88-.72-1.06v-.09c-.11,0-.12-.11-.13-.08s-.39-.66-.43-.77c-.32-.23.35-1.08.39-1.52H8.15v-.13A3.38,3.38,0,0,0,7.6,36a.42.42,0,0,1-.3-.26v-.16H7.22c0-.47.68-1.85.29-2.12a2,2,0,0,1,.43-1.19c.27-.16.77-.92.64-1.15.05-.47-.46-.44-.53-.82s.17-.74.7-.77A1.52,1.52,0,0,0,10,28.05a4.29,4.29,0,0,0-.08-.71.61.61,0,0,0,.26-.81c.68,0,.52.77,1.1-.1.43-.64.55-.7,1.28-.7v-.09h.33v-.08a.73.73,0,0,0,.64-.47h.13a2.77,2.77,0,0,0,.5-.47v-.17a.38.38,0,0,0,.31-.21h.17v-.08h1.1v.08c.36,0,.38.26.68.26s1.69-.22,1.14-.77a2.34,2.34,0,0,1,.26,0c.1-.61,1,.11,1.19.3h.17v.08h.38a.49.49,0,0,0,.46.17v-.08h.18v-.09h.17V24h.12l.43-.26c.13,0,.14.14.3,0,.38.27.29.32.29.81s1.77.31,1.87.25h.09c.29.15.64.57,1,.79s.94.39,1.17.7.14.09.27.34.19.78.39,1.1,1,.25,1.44.26c0-.12.16-.17.3-.17a2,2,0,0,0-.21,1.91c1.37,0-.15,2.24.94,2.29.42.63.73,0,.88-.47a2.33,2.33,0,0,1,1.12-1.17c.25-.16.83-.27.88-.06m-3,36.56c-.25.2-.16.45-.39.68l.09-.94a.27.27,0,0,1,.3.26M.25,58.63c.06.23.14.44,0,.55V59H.17v-.3A.5.5,0,0,1,0,58.25c.24.07.37.27.25.38M16.6,46.79c.44,1.33-1.51.16,0,0M2.8,45.3v.3c-.19-.13-.31-.32-.08-.38,0,.07,0,.1.08.08m22.8-3.82h0c0,.08.05.1,0,0m9.89-4c-.38,0-1.19-.06-1.36-.3.36.06,1.11,0,1.36.3m-1.82-.22v-.08H34c0,.12-.18.13-.34.08M30.91,37a4.34,4.34,0,0,1-1.7-.38c.39,0,1.66,0,1.7.38m5.94-4.2c.08-.2.37-.36.47-.43H38c.13,0,.07.31.32.34l-.08-.17c.95,0,1.44.73,1.66,1.62H40a3.32,3.32,0,0,0-.25,1,3.51,3.51,0,0,1-.39.55,3.27,3.27,0,0,0-.89.56h-.08v-.09H38v.09h-.55v-.09h-.17a3.47,3.47,0,0,0-1-.65c-.42-.21-.28-.44-.28-.92-.39-.33.07-1.91.8-1.82m10.7.72v-.08c1.16,0,1.86.42,1.86,1.65-.44.33-.39.94-1,.94a3.08,3.08,0,0,1-.94-.13A1.35,1.35,0,0,1,46.8,34a1.21,1.21,0,0,1,.75-.49M5.56,33a2,2,0,0,1-.33.09,1.27,1.27,0,0,1-.18-.39c.34-.08.56-.08.51.3m36.13-16.6c.19-.38.78-1.27.92-.42.07.51.78.63,1.08.51h.47v.08h.33v.08h.13v.09l.35-.09c.38.18.71.61,1.09.81v.21c.2.13.27.45.49.62s.79.48,1.09.74v.26h.08a1.25,1.25,0,0,1,.23.52c0,.2.32.28.41.49s-.13.58-.13.9.21.18.21.38.45.25.38.64h.09a1.87,1.87,0,0,1-.47.93c0,.13.14.31.09.51s.19.23.25.3v.64c0,.18-.48.28-.57.52-.2.56.26,1.13-.15,1.55-.93.05-.94,1.15-1.69,1.49-.28.34-.19.83-.94.81a1.29,1.29,0,0,1-.55.27c-.53.13-.43.38-1.05.11s-1-.13-1.41.42h-.35c-.47.6-.73-.17-1.18-.17-.25,0-.44-.67-.69-.83s-.47-.16-.59-.27h-.13c-.19-.35-.62.06-.9.1-.48.05-.34-.36-.62-.61.14-.21,0-.39-.18-.47-.07-.49-.86-.88-1.18-1.27-.17-.21-.32-.73-.47-.85.12-.43-.3-.54-.55-.81a7.61,7.61,0,0,0-.47-1,3.64,3.64,0,0,1,.14-1.23c.16-.42.63-.49.71-.87a3.55,3.55,0,0,0,.09-.92c0-.26.35-.21.25-.58a2.84,2.84,0,0,0,1.1-1.3,1.69,1.69,0,0,1,.81-1.08v-.09a.32.32,0,0,0,.38-.29h.17v-.09c.53,0,.58-.76,1.32-.76a1.14,1.14,0,0,1,.59.29l1-.25m-9.93,12.1h-.08v.13h-.09c0,.39-.51.71-.77.8h-.17v.09A1.45,1.45,0,0,1,29.26,29c-.67-.58-.51-.76-.51-1.57A3.41,3.41,0,0,1,30,26.28c.06.31.33.33.63.25.14.2.45.15.64.3a8,8,0,0,0,.47.81c.12.16,0,.59,0,.89M28,27.72a.17.17,0,0,1,.17.09c-.16.05-.12,0-.17-.09m-10.4-4.46v.34h-.09c0-.33-.41-1-.21-1.18v-.17h.13c.18.23,0,.88.17,1m-.09-3.82c-.22.22-.08,1.06-.08,1.36-.33-.33.08-1.14-.21-1.4v-.17h.08v-.08c.12.05.16.1.3.08l-.09.21m2.26-6.19c0-.09.05-.13,0-.22s.25.2.25.09c0,.16-.1.32-.29.13M16,10.74a1.29,1.29,0,0,1-.17-.8c.19,0,.2.09.26.2H16c0,.26.1.5,0,.6m2-2.72V6.58h.16c0,.34.09,1.18-.16,1.44M14.13,6.58V6.49h.09v.73a.92.92,0,0,1-.09-.64m2.93-3.82c.1-.1,0-.2.18-.21V4.29c-.28-.28.11-.8-.18-1V3.18h.09a.9.9,0,0,0-.09-.42M16.26.17c.1.85.73,2.91.17,3.65,0-.34,0-1-.17-1.19v-1h-.08v-1a.65.65,0,0,1-.13-.47h.21m.47,1c0-.4-.05-.8-.05-1.19h.13a3.66,3.66,0,0,1,0,1.65V1.48h-.08c0-.14.16-.2,0-.29"/></g></g></svg>