<svg xmlns="http://www.w3.org/2000/svg" viewBox="0 0 56.5 61.66"><defs><style>.cls-1{fill:#e51e25;}</style></defs><g id="Calque_2" data-name="Calque 2"><g id="Vector_Graphics" data-name="Vector Graphics"><path class="cls-1" d="M22,61c0-.42,1.23,0,.6.53S22,61.3,22,61m23.67-6.83c.95-1.59.68,2.51.45,3.14S45,58,45,57.19a8.09,8.09,0,0,1,.71-3M15,56c.76.74-1.33,1.76-1.33.44,0-.66,1.13-1.26,1.33-.44m18.27-1.33c0,.53-.55.69-.76.48s.76-.86.76-.48M3,54.18a.42.42,0,0,1,.27-.53c1.06,0-.27,1.16-.27.53M42,49.3c.25,0,.33.09.63.09,0,.73-.61-.08-.63-.09m.71-2c.6,0,.36,1-.17,1s-.42-1.22.17-1M35.92,17.11c.94-2.06,3.71-4.68,5-1.29.63,1.61,1.41,1.71,3.15,1.95a4.17,4.17,0,0,0,1.65,0,4.4,4.4,0,0,0,2,1.54,13.05,13.05,0,0,1,3.6,3.06c2.3,0,.61.7,1,1.92a4.19,4.19,0,0,0,1.17,2.25,8.24,8.24,0,0,0,0,1.79c.22,1,.7.84,1.16,1.32,0,.48,2.81,1.15,1.38,2.17-1,.68-1.24-.4-2.13.59-.76.84-.84,1.46-2,1.91A3.52,3.52,0,0,0,49.48,38c0,.92,1.23,2,.45,2.48-.56-.55-.32-1.19-1.35-.74a2.92,2.92,0,0,0-1.78,2.16c0,.92-1.44,3-.91,3.72,1.07,1.45-1.73,2.65-1.73.71a4.55,4.55,0,0,1,1.07-3.1c-.38-.76,0-1.23.53-1.77a5,5,0,0,0-1.07-.45v.45a6.13,6.13,0,0,1-2-.15c-.16-.05-2.51-.65-1.63,0a3.11,3.11,0,0,0,2.48.58c.63,0,1.85.26.8.89-1.4.83-2.73-1-4.26-.86-.95.11-1.3-.52-1.86-1.27a9.36,9.36,0,0,1-3.63-1.86c-.29.75-.4,1.53-.62,2.3a2.32,2.32,0,0,1,2.19,3.27c-.83,2-4.41,2-4.41-.52,0-2.09-1-.13-1.84-.9-.51-.45-.17-.84-1.18-.66s-.85.14-1.77-.48c-.13.17-1.3,2.45-1.68,1.33-.56-1.71,1.32-1.23,1.5-1.88.3-1,3.2-7.69,5.15-5.74-.12-1.46-2.6-6.37-4.61-4.35.38-.61.89-2.6,1.72-2.13,1.09.62,1.64-1.25,1.91-2,.36-1-.1-1.16-1-1.46-.18-.06-3.76-1.26-2.52-1.69.91-.31,1.39.37,2.21.53a8.09,8.09,0,0,0,3.9-1.06c2.49-1.38,2-3.65,2.4-6.3m8.95,24.48c.53-.8.67.67,0,0M9.4,40.79c0,.46-.18.55-.75.31s.17-.89.75-.31M6.66,39.1c-1,.12-4.2,2-4.83,1.24-.87-1,2.48-2,3.09-2.27,1.06-.44,12-4.22,12-3.14,0,.84-6.12.73-6.12,2.13a14.86,14.86,0,0,0,3.37-.17c0,.69-2.81.87-3.29,1A12.71,12.71,0,0,0,6.66,39.1m13.65-4.43c0,.5-1.77-.57-1.77-1.33,0-.59,2.1.27,1.77,1.33M25,32.36a.32.32,0,0,1-.27.27c-.07.13.63-1.29.63-.53l-.36.26m-.62-2.13c0,.2-.58.2-.71.18.07-.65.55-.43.71-.18m-6.92-.79.45.27c0,.57-1.6.42-1.6-.27.17-.33,1-.13,1.15,0m8.87-5.68-.27.27c-.83,0,.27-1.08.27-.27m-1.06-1.15c.54.54.35,1.47-.51,1.21a9.29,9.29,0,0,1-2.68-1.12c-.92-.61-.52-1.66.55-1.45a5.41,5.41,0,0,1,2.64,1.36m-18.62-1c0,.72-1.07,1-1.07.17,0-.6,1.07-.77,1.07-.17m21.63.44c0-2.07,1.64,1.63,0,0m-14-2.31a1.38,1.38,0,0,1,1.33.89c-.6,0-1.63-.31-1.33-.89M33.7,18.44c0,.5-.71,1-.71.27,0-.35.71-.47.71-.27M1.25,12.94c-.8,0-1.32.06-1.24-.79a1.79,1.79,0,0,1,1.24.79M38,.35c.15-.44.36-.47.63-.08,0,.41-.63.48-.63.08"/></g></g></svg>