<svg xmlns="http://www.w3.org/2000/svg" viewBox="0 0 37.64 61.66"><defs><style>.cls-1{fill:#e51e25;}</style></defs><g id="Calque_2" data-name="Calque 2"><g id="Vector_Graphics" data-name="Vector Graphics"><path class="cls-1" d="M16,61.63c-.37-.1.07-.39.35-.32s0,.47-.35.32m9.47-2.73c.32,0,.46,0,.66.18a1.92,1.92,0,0,1,.58.77c.23.8-.63.79-.63,1.3-.32-.1-.44.06-.77,0s-.6-.41-.71-.8-.2-.28-.17-.58a1.13,1.13,0,0,1,1-.89M.35,60c-.43.22-.53-.34.07-.34A1.37,1.37,0,0,1,.35,60m16.44-2.56c0-1.12,1.29.08.1.25a.22.22,0,0,0-.1-.25m14.42-2.35c0-.33.35-.12.25.1-.1,0-.17-.1-.25-.1M7.1,53.64c.32,0,.38-.17.68-.12.55.08.26.33.07.62s-.63.43-.87.25c-.4-.3.12-.41.12-.75m1.65-.28c0-.31.27-.51.38-.13a1.71,1.71,0,0,0-.38.13m16.91-2.5a2.26,2.26,0,0,1,1.13.15,1,1,0,0,1,.1,1.5.89.89,0,0,1-1.36-.08c-.48-.64.13-1,.13-1.57m-5,1.39a.61.61,0,0,1,.57.32c-.16,0-.57-.11-.57-.32m-.22-.35c-.15.61-1.52.74-.94-.13a1.12,1.12,0,0,1,.94-.56c.49,0,.31.57,0,.69m7.15-.31c-.57-.44.77-1.25.77-.29,0,.42-.49.82-.77.29M2.07,48.86c.81.38-.13,1-.65.83-.75-.19.11-1.09.65-.83m19-24a2.83,2.83,0,0,0,.83,1.05c.35.36-.22.62-.22,1a1.61,1.61,0,0,1,.44-.06c0,.18-.19,0-.29.13.24.24.39.39.7.28,0,0-.07.3-.06.26v.06a1.2,1.2,0,0,1,.47,0c0,.16.08.67.29.67s.06-1.37.82-1.37-1.39,1.29-.19,1c0,.27-.34.4-.4.66s.12.24.05.5c-.24.86,1-.15,1.14.36l-1.07.26L24,30a3.37,3.37,0,0,0-.34-.09c0,.1-.07.54.07.6a4.63,4.63,0,0,0,.76.15c.26.07.54.51.08.51s-.57-.46-1-.59a1.26,1.26,0,0,1-.19.47c.43,0,.55.88.95,1,.24.09.58-.09.76.14s-.34.41-.57.35c-.49-.13-.58-.81-1.07-.89s-1.07.65-1.53.95c.23.34.37.09.61.26,0,.19.28.12.28.22a3,3,0,0,1-.18.84c-.12.44,0,.74.5.74.31,0,.45-.17.66-.4l.7-.78c.37-.41.63.11.47.43s-.29,0-.63.29-.63.55-.63.84c.53-.1,1.08-.13,1.62-.2a.56.56,0,0,0,.31-.12.41.41,0,0,1,.41-.12c.18,0,.45.31.69.38s.84-.14,1.07.16c0,.13.08.26.11.39a1.63,1.63,0,0,0,.71.56c.25.13.84.29.76.65-.14.64.59,1.29.59,1.94a1.36,1.36,0,0,1,1.2.8l-.44.22-.28-.19c-.42,0-.36.69-.13.69.49,0,1.25-1.16,1.61-.48s-.22,1-.84.69c-.15-.07-.63-.44-.52,0,.05.27.14.65.48.47-.08.09.15.13-.13.13,0,.22.36,0,.52.06s.48.24.33.19c.33,0,.72.18.8.54-.32,0-1.11.09-1.11.54.9,0,.28,1,.09,1.3a2.36,2.36,0,0,0,.27.88c.2.16,1.1.51,1.1.8-.07,0-.14.06-.19.06s.84,0,.6.25-.71-.06-.83-.18a.34.34,0,0,0,.13-.1c-.13,0-1.39-.81-1.39-.25.14,0,1.14.16,1.14.35-.46,0-1.13-.32-1.4,0s-.58.61-.22.91c.41.06,1.62.22,1.62.8-.3,0-.37-.23-.63-.23-.44,0-.95-.47-1.3-.69,0,.1,0,.12-.07.06.12.3.46.5.24.86-.35.56.12.65.46.87s.26.52-.13.52-.16-.3-.28-.5-.64-.45-.64,0,.39.53.16.94-.67,0-1,.06a1.85,1.85,0,0,1-.86.08c-.24,0-.24-.64-.53-.64s-.27.07-.41.07c0,.3-1.12.23-1.29.2-.53-.07-.75.21-1.2,0a8.42,8.42,0,0,1-1.14-.72c-.09-.07-.65-.71-.65-.18.43,0,.82.24.32.59a2.13,2.13,0,0,1-.64.27c-.42,0-.16-.38-.16-.61-.23,0-.88-.22-.88.16,0,.21,0,.33.33.43,1,.33-.59,1.29-.79.83a1.46,1.46,0,0,1,.11-.72c0-.56-.66-.35-.59-.24.35.58-.5.23-.49.22-.21.12-.3-.58-.67-.58a2.73,2.73,0,0,0-1,.21c-.33.14-.36.9-.6.9s-.35-.46-.3-.62c.18-.53-.36-.64-.71-.71,0,.21-.54.45-.71.34s-.37-1-.86-.34c-.28.36-.35.18-.5-.11s-.5-.78-.5-.84a.74.74,0,0,0,.19-.16c-.1-.11-.19-.22-.28-.34s-.28,0-.45,0a3.48,3.48,0,0,1-1.46,1.21c.3-.89,1.84-1,1.07-2.1-.19-.27-.27-.1-.49,0a3,3,0,0,1-1.37.55c0-.25.23-.68.23-.86s-.15-.27.07-.41.75-.25.75-.38c0-.4-1.05.49-1.05-.07s1.14-.54.48-1.2c-.32-.32-.8,0-1.21-.32l.26-.41a.35.35,0,0,1-.26-.35c.27-.26.46-.18.73,0,0-.17.07-.33.07-.44s-.93-.75-.3-.81a.18.18,0,0,0,.08-.33,1.14,1.14,0,0,0-.64-.1c-.22,0-.13.2-.36.15a3.66,3.66,0,0,1-.84-.11c.17-.44.53-.42.88-.42l.24,0c.21,0,.22-.28.43-.28s.57,0,.57-.41c-.22,0-.64-.8-.76-.92s-.55-.41-.42-.78.49-.23.68,0,1,1,1,.13c-.14-.14-.72-.5-.72-.73s.38-.27.6-.21.4.35.63.11a.6.6,0,0,0,0-.69c.49,0,.18-.46,0-.62-.43-.39-.48-.18-1-.3,0,.4-.33.44-.66.44-.25-.49,0-.34.06-.79-.52-.11-.41-.55-.08-.42a2.53,2.53,0,0,0,1.06.17,1.31,1.31,0,0,0-.79-.51c-.15,0-.51.19-.51-.16s.4-.25.44-.54-.6-.34-.6-.73c.28.06.4-.16.19-.38s-.86-.56-.19-.68c.48-.08.36-1,.1-1.25.19,0,.22-.25.5-.25s.35-.64.42-.92c-.28,0-.26-.94.23-.54.16.13.41.05.58,0,.4-.15,0-.49,0-.77.57.11.78.37,1.22-.17.1-.14-.24-.81.11-.81.16.15.25.43.45.54s.34,0,.57,0,.82,0,.82-.31a2.19,2.19,0,0,0,1.14.63c.34,0,.8-.65.92-1s.44-.51.44-1c0-.23.33-.58.32-.72a5.38,5.38,0,0,1,1.2-.69c.49-.12.88.16,1.33.27M27.25,48.8c0-.06.07,0,0,0m6.46-.89c0-.47.67-.56.67-.09s-.62.46-.67.09m.6-.82c-.21,0-.36,0-.44-.25.22,0,.36,0,.44.25M6.94,44c0,.25-.53.25-.69.25.11-.27.44-.27.69-.25m24.93-1.43c0-.24.29-.52.48-.16.28.56-.32.56-.48.16M11.6,42.4a.13.13,0,0,0,.06-.13.31.31,0,0,0-.06.13m22-1c0,.07.28.14.28.38s-.15.6-.47.6c-.6,0-.46-1,.19-1m-.67.47c0,.3-.28.4-.28,0a1.31,1.31,0,0,1,.28,0M11.13,41a.41.41,0,0,1-.73.38c-.27-.41.39-.83.73-.38M8.88,40.6c-.07.36-.8.58-.8.12s.66-.12.8-.12M7,40.53c0,.42-.6.07-.57.16s-1.72-1.08-.79-1.08c.37,0,.05-.77.55-1s1.62,0,1.39.74c-.09.28-.39.38-.64.47-.06-.06.06.66.06.66M3.46,38.79c.22,0,.32.21.32.41-.3-.05-1.07-.45-1.11-.69.28.08.48.28.79.28m27.18-.16c.21-.28.42,0,.66,0a.48.48,0,0,1-.66,0M30.35,38c0-.23.67-.23.67,0h-.67M2,37.84c-.35.35-1.16-.24-.29-.43.55-.12,1,.2.29.43M8.69,37c0,.24-.13.18-.29.13A.18.18,0,0,1,8.69,37M6.94,36c0,.79-.59,0,0,0m22.75.35c0-.23.57-.43.74-.31.33.22-.67.31-.74.31M4.25,35.18c-.06.51-.91.32-1.11.32s-1.13-1-.42-1.1c.48-.1,1.53.14,1.53.78m27.56,0c0-.26.29,0,.35-.19,0,.22-.16.12-.35.19m1.71-.92c0-.26.25,0,.29.06-.49,0-.76.61-1.34.61a1.4,1.4,0,0,1,1.05-.67M5.9,34.73s-1-.75,0-.75c.17,0,.36,0,.41.23.12.45.11.52-.38.52m27.17-.88c0,.07,0,.08.07,0a1.68,1.68,0,0,1-.86.76c0-.28.55-.73.79-.79M21.14,32.69l-.23.11c.4.41.31.64.45,1-.09-.09-.17-.18-.26-.26a.68.68,0,0,0,0,.4c.08.33.28,0,.41-.08.36.71.68,0,.8-.48,0-.31-.93-.86-1.17-.68M6.75,34c-.73,0-.62-.79,0-.79a.4.4,0,1,1,0,.79M35.8,33c0-.26.47-.38.65-.45s.43.07.65.3a.93.93,0,0,1,.13.35c.23-.12.3-.15.41.06-.53,0-.59.66-1.18.66s-.66-.43-.66-.92m-16.09.7a3.53,3.53,0,0,1,.54.13c-.08-.37-.43-.7-.54-.13m6.81.07c0-.08-.15-.08-.19-.07,0-1,.81-.21.19.07M24,32.55c.18.37-.19.32-.38.25-.19-.23.31-.66.38-.25M9.86,32.07a1.85,1.85,0,0,1,.41.07c-.16.21-.35.13-.41-.07M10,30.49c0,.49-.87.37-1,0-.16-.51,1-.89,1,0M29.75,30a.67.67,0,0,1,.48-.51c0,.18-.34,1.11-.61,1.11a2.33,2.33,0,0,1-.06-.25c0-.15.16-.19.19-.35m-5.67,0c.28,0,1.05-.15,1.05.25s-1-.17-1.05-.25m8.14,0a.86.86,0,0,1-.28-.29,2.1,2.1,0,0,1,.7.16s.49.26.15.26a2.35,2.35,0,0,1-.57-.13M6.28,29.86c-.32,0-.57.34-.57-.22a1.59,1.59,0,0,1,.38-.07c.13,0,.44.29.19.29M24,28.72c.1-.25.61-.67.82-.29s-.89.43-1.1.48a.46.46,0,0,1,.28-.19m-1.2-2.06c0,.09-.52.21-.6.25a3.39,3.39,0,0,1,.78-.93c.49-.22.29.57-.18.68M26,25.3c-.1.39-.41-.14-.41-.26a3.84,3.84,0,0,1,.19-.88c.5,0,.37.87.22,1.14m4.91-.67a.47.47,0,0,0-.16-.29c.17,0,.54.48.35.48a.3.3,0,0,1-.19-.19m-2.28-.29a1.65,1.65,0,0,1,.32-.06c-.06.25-.32.48-.32.06m6.68-1.77c.26-.51.53-.31.38.13-.45.34-.5,1.16-1.1,1.33a6.21,6.21,0,0,1,.72-1.46m-7.06-.06c0,.31.08,1-.28,1.17,0-.29,0-1.05.28-1.17M13.85,23a.76.76,0,0,1-.41.54.54.54,0,0,1,.41-.54m6.4-2.69c.75.25.12,2-.51,2a2.6,2.6,0,0,1-1.36-.28v0c-.33,0-.41-1-.41-1.17a1.31,1.31,0,0,1,.88-1.09c.34-.17.47-.2.76,0s.5,0,.64.55M36.56,21c0-.83.7-.12,0,0m-13.11-2c.38-.58.32,1.14.38,1.2a1.72,1.72,0,0,1-.07.38c-.35-.14-.51-1.29-.31-1.58M14.1,15.6c0,.29-.73.31-.73.1.25,0,.48-.1.73-.1m20.69-1.3c0-.24.27-1.42.56-1.3s.07.5.07.51-.36,1.09-.63.79M33,13.76c.38.38-.54.52-.54.13,0,0,.45-.71.54-.13M12.23,9.87c.15,0,.15-.06.1-.13.28,0-.05.29-.1.32V9.87m4-4.72a1.2,1.2,0,0,1,.78.06c.25.42.63.31.81.94a1.15,1.15,0,0,1-.66,1.39c-.09.06-.33.29-.4.24s-.4.09-.37.06-.68-.36-.75-.42c-.37-.3-.26-.54-.39-.91s0-.58.21-.87.65-.25.77-.49M11.73,6a.22.22,0,0,1,.19.16c0,.31-.32-.1-.32-.1.2,0,0,0,.13-.06M5.36,4c0,.53-.51-.58-.51-.83.39,0,.51.52.51.83M4.5,1.35C4.5,1,5,.61,5.19,1c.1.26-.06.18-.21.33s-.25,0-.48,0M5.9.15c.32-.48.41.41,0,0"/></g></g></svg>