<svg xmlns="http://www.w3.org/2000/svg" viewBox="0 0 44.19 61.66"><defs><style>.cls-1{fill:#e51e25;}</style></defs><g id="Calque_2" data-name="Calque 2"><g id="Vector_Graphics" data-name="Vector Graphics"><path class="cls-1" d="M0,61.66a.89.89,0,0,1,.76-.83c.11.37-.44.75-.76.83m32.66-1.88c.3-.4.36.17.36.36-.15,0-.61-.12-.36-.36m9.05-2.46c-.37-.37.09-.7.47-.51s-.18,1-.47.51m-15.32-.94a2.5,2.5,0,0,1-.07-.54c.16,0,.8.72.51.72a1.85,1.85,0,0,1-.44-.18m.22-.76c.06-.29.51-.22.51.07s-.42,0-.51-.07M15,55.54c-.18-.44-.19-.4.25-.54a.42.42,0,0,1-.25.54M4.71,54.39c0-.18.46-.3.58-.3,0,.31-.5.4-.58.3m16.61-2.86c.15,0,0,2.06-.32,2.06a5.67,5.67,0,0,1,.32-2.06M41.86,52c.74,0,1.47-.29,2.1.41.89,1-1.12,1-1.55,1s-1.51,0-1.62-.7c-.15-.92,1.07-.25,1.07-.73m-7.61.5c-.17-.34.58-.41.58.19s-.53,0-.58-.19M8.69,49.79c0,.29-.43.54-.69.54,0-.36.39-.5.69-.54m14.81,0c0-.41.26-.29.25,0l0,0c0,.13,0,.08-.22,0m-1.59-.58c-.09.25-.34-.07-.15-.37.12,0,.28.23.15.37m5.14-.58a1,1,0,0,1,.07-.29c.51.08.16.29-.07.29m3.8-.22c-.28,0-.28-.29,0-.29a2.8,2.8,0,0,1,0,.29m-1.52-.62c.28-.09,1-.23.64.38s-.72,0-.64-.38m-.08-.65c0-1,.54-.11.76-.11-.14.46-.48.3-.76.11M26.32,28.32c.27.18,0,.53.18.7s.4.22.4.53c-.14,0-.07.39.15.39,0-.29,0-.74.32-.9-.09.49-.69,2.25.2,2.12.63-.09.76.21,1.16.61.2.21.37.06.56.06.43,0,.45.42.54.74s.86.07.6.65c-.34.8.35.82.85.82.75,0-.24.81-.15,1.05.18.53,1.07.29,1.46.21,0,.3-.56.41-.75.52-.4.23-.44.78.06.86.83.15.59.36,0,.72s.51.48.66.48c0,.56-.74.42-.68,1.07a2.48,2.48,0,0,0,.37.85c.31,0,.15.49.25.59.26.27.06.4-.24.53s-.79.24-.79.54.42-.36.58-.13c.25.39-.46,1.05-.82.69s-.9.9-.85,1.18-.12,1.32-.64.91c0,0-.37-.43-.37,0-.12-.06-.18-.09-.27,0s-.85.73-.85.91a3.68,3.68,0,0,0-1.09.15c.09.37.94.17.94.5s-.56.53-.83.58c-1,.19-.5-1.37-1.67-.76-.2.1-.61.44-.83.44s-.82-.74-1-.06-.92.72-.49-.16c-.64,0-.73.82-1,1.22s-.33-.49-.33-.46.26-.31.33-.4c0-.29-1.48.29-1.67.32a4.81,4.81,0,0,1-2.76-.24,10.65,10.65,0,0,0-1.05-.57c-.6-.21-.47.46-1,.46-.4,0,.23-.62.29-.66a4.38,4.38,0,0,0-.33-.79c-.53,0-.8-1.59-.85-1.93a15.17,15.17,0,0,1,.1-2.53c0-.65.79-1,.79-1.63a2.75,2.75,0,0,1,0-.5c0-.3.45-.25.53-.47s.11-.5.17-.74c.1-.49.16-.5-.26-.77s-.25-.48.11-.5c.6,0,.12-.53.12-.78,0-.47,1.46-.07,1-.95-.1-.19-.5-.37-.25-.64s.57-.46.73-.37v.44a.85.85,0,0,0,.44-.62c0-.18.14-.12.14-.29-.23,0-.06-.49,0-.57.24-.28,2-.46,2-1,0-.09-.25-.33.18-.2.27.08.27.21.59-.05a1.65,1.65,0,0,0,.35-.77,1.8,1.8,0,0,1-.47-.32c.19,0,.22-.73.62-.73.22,0,.34.36.32.36.2,0,.7-.75.6-.94s1-.42,1.24-.49a2.75,2.75,0,0,1,1.52.17c.33.12.42.58.88.58m16.55,18a.28.28,0,0,1-.18-.36c.41-.12.88.5.58.58a1.71,1.71,0,0,1-.4-.22M30.3,45.73c.24,0,1,0,.71.49a.62.62,0,0,1-.42.24c-.6,0-.29-.4-.29-.73m-15.78.44a12.21,12.21,0,0,0-1.45.18,16,16,0,0,1,2.28-.76c0,.47-.83.39-.83.58m23.13-.44c0-.27.56-.18.73-.21,0,.28-.55.21-.73.21m-7.13-1.3c.26-.17.81-.2.62.24s-1,.13-.62-.24m9.09-.36.14-.18c.12.13.1.26-.07.39,0-.07.12-.21-.07-.21m.43.14c-.12-.37.07-.85.53-.49s-.2.57-.53.49M6.59,42.91c.06.17.1.29-.18.29s-.13-.61.18-.29m25.74-.36a.82.82,0,0,1,.47-.22c0,.42-.68.36-1,.36a1.08,1.08,0,0,1,.58-.14m6.84-.26c-.14,0-.14-.38.15-.3.12,0,.16.12.15.27s-.27,0-.3,0m-3.36-.58c0-.05,1,.08,1,.48-.35,0-.59-.48-1-.48m0-.14c0,.2-.06.07-.14.07a.17.17,0,0,1,.14-.07m-.26,0c-.12,0-.23,0-.25-.15s.51.08.25.15M11.77,40.7c.16.48-.21.81-.59.43,0-.25.59-.74.59-.43m20.42-.33c-.29,0-.37-.22-.56.06a3.37,3.37,0,0,0-.42.85,1.1,1.1,0,0,0,1-.91m2-.33c.33,0,.55.52.21.66s-.39,0-.44-.16c-.23-.82.23-.08.23-.5m7.57-.5a.9.9,0,0,1,.76-.61c-.13.31-.62.73-.8.72,0-.1-.17,0,0-.11m-5.43-.61c0-.41.44.36.43.36-.18,0-.08.05-.14.11-.36,0-.74-.25-.29-.47m-1.81-.48c.19-.68.69-.86,1.12-.21a.56.56,0,0,1-.58.51c-.41,0-.25-.18-.54-.3m-23.79-.83c.55,0,0,.89,0,0m22-1c0-.14.26-.59.49-.29s-.18.5-.49.29m5.83-2c0-.45,1.52.42.24.81-.89.26-.95-.81-.24-.81m-5.9-.29c.2-1,1.16-.58,1.68-.14.72.62-.54,1.15-1,1,0-.09-.54-.61-.65-.84M7.21,33.71c-.13.52-.89-.88,0,0m30-1.45a2.5,2.5,0,0,1-.07.26,3.13,3.13,0,0,0-.14-.69c.26,0,.27.22.21.43m-24.8,0c0,.37-.65,0-.34-.3s.34.14.34.3m-1.16-1c0-.05-.18-.25.19-.25a.23.23,0,0,1-.19.25m8.29-.65c-.09.66-1.08-.16-.74-.73.47-.77,1.25.48.74.73m8.08-1.05c.4,0,.17-.35.65-.26.12,0,.83.14.83.37-.07.06-.11,0-.11-.08-.09.38-.22,1-.72,1s-.82-.5-.65-1m-19.8-.22c0,.34-.42.54-.69.61,0-.4.36-.45.69-.61m10.75-1.49c.32.32-.2,1-.53.57s.16-1.12.53-.57m17.38.37c-.53.39-.66-.29-.26-.56s.61.32.26.56m-8.4-.4c0-.28,0-.75.34-.87s.78,0,.78.24c0,.73-.41,1-1.12.63M3,26.76c-.48,0-.47-.07-1-.42-.24-.16,0-.49,0-.63a1.56,1.56,0,0,1,1,1.05m24.44-.33c.41-.1.33.33-.11.33a.32.32,0,0,1,.11-.33m4.71,0c0-.47.76-.85.76-.36-.44.14-.3.51-.76.36m-8-15c-.13.52-.69.86-.54,1.42a2.73,2.73,0,0,0-1.38,2,9.88,9.88,0,0,0-.83,1.81c.28,0,.68,1.17.68,1.34a.22.22,0,0,0,.26,0c.27,0,.27.3.43.45s.8.61.87,1c-.4,0-.21.82-.21,1.08s.24.22.37.34,0,.26,0,.39.91.49,1,.57.16.21.21.44.53.23.6.54c-.39,0,.16.9.18,1a4.93,4.93,0,0,1-.92,1.7c-.64.71-1.47.15-2.08.76-.11-.52-.33-.4-.69-.4s-.3-.65-.8-.65c.24-.54-.11-.43-.31-.67s.23-.45,0-.74.13-.38.13-.69a2.75,2.75,0,0,0-1.18-.35c-.31.09-1.18-.52-1.18.2-1.1-.55-1.21,2-2.28,2,0-.38.92-1.38,0-1.38-.28,0-.1.45-.19.58-.18.3-.42-.31-.42-.43s-1.42.69-1.42.47c0-.81-1.22-.26-1.22-.91-.51.21-.58.36-.58-.18s-.68-.18-1-.18c.16-.57.55-1.05-.2-1.47-.14-.07-.82-.28-.67-.49s.78-.15.32-.61,0-.42,0-.72-.22-.4-.22-.65.58-.33.58-.77-.53.27-.54.3c-.36-.13-.43-.7-.62-1l.47-.08a.48.48,0,0,0,.33.26c.29.08.24.2.52,0,.61-.39,1.08-.8.89-1.54.5,0,.73.2,1.29.09.93-.19,0-1.36.52-1.54.07.22,0,.57.1.76s.54,0,.66.2.16.28.36.34c.56.18.3-.36.62-.36s.39.76.87.76.18-.38.11-.54c.31.2.49.59.8.86.6.54.68-.05,1.23-.14,0,.32.32.41.56.24.46-.33.4.18.61.38.45.42.48-1.38.75-1.38,0,.2,0,.24.16.09a1.3,1.3,0,0,0,.2-.43c.16-.4.26-1,.65-1.29A8.66,8.66,0,0,0,23.13,13c.08-.15-.18-.32,0-.4a5.43,5.43,0,0,0,.28-.59c.16-.28.72-1.41.72-.61M4.45,25.24c0-.51.33-.38.33.07a1.3,1.3,0,0,0-.33-.07M12.09,25c-.55,0-.43-.43-.43-.91.51,0,.79.62.43.91m-1.45-1.23.18,0a.34.34,0,0,1-.18.15v-.18m31.54.11c0-.22.17-.33.44-.33C42.62,23.72,42.47,23.83,42.18,23.83Zm-31.36-.26.15.08-.07,0a1,1,0,0,1-.08-.11m.73-.58c0,.25-.32.43-.51.51,0-.26.32-.39.51-.51M35,22.6a.66.66,0,0,1,.62-.58c0,.38-.08.75-.62.58M10.64,21.08c0,.23-.18.13-.36.18,0-.25.17-.15.36-.18M1.23,16.77a.29.29,0,0,1,.29.25.32.32,0,0,1-.29-.25m-.44-.58c.21.2.37.27.44.58a1.54,1.54,0,0,1-1-1,1.13,1.13,0,0,1,.57.4m20.28-.4a.55.55,0,0,1,.11-.36c.3,0-.14.39-.11.36m14.38-2.72c.7,0,1.51,1.52.54,1.52,0,.08-1.45-.64-1.61-1.07-.33-.86,1.07-.83,1.07-.45m-21,.76a.48.48,0,0,1,.51.33c-.28,0-.46,0-.51-.33m8.62.08a1,1,0,0,0,.07-.15.18.18,0,0,1-.07.15m.44-.84a1,1,0,0,1-.37.69.77.77,0,0,1,.37-.69M43,13.4c0-.17.34-1.1.58-.62a.45.45,0,0,1-.58.62m-.07-.33a.41.41,0,0,1-.11.07V13a.19.19,0,0,0,.11.07M28.06,11.62c-.15,0-.11-.92-.11-1,.35,0,.28.83.11,1M25.78,7.86c.22-.16.47-.91.68-.38.14.33-.21,1-.36,1.27s-.65.79-.65.09c0,0,.33-.89.33-1m-4.56.76c-.35.17-.55-.23-.33-.49s.87.33.33.49m3.18-.15c-.46.11-.16-1,.07-1s0,.92-.07,1m-5.65-.61c-.07.47-1,.07-1.3.07V7.86h1.3m-5.21-1.2c.24,0,.43-.19.45.22,0,.21.32.57,0,.77-.54.32-.44-.75-.44-1M25.05,3c0-.3-.12-.55.26-.69,0,.48-.29.87-.29,1.34-.1,0,0-.59,0-.65M35.16,1.88c0-.51.08-1.65.65-1.88a3.89,3.89,0,0,1-.65,1.88"/></g></g></svg>