<svg xmlns="http://www.w3.org/2000/svg" viewBox="0 0 50.41 61.66"><defs><style>.cls-1{fill:#e51e25;}</style></defs><g id="Calque_2" data-name="Calque 2"><g id="Vector_Graphics" data-name="Vector Graphics"><path class="cls-1" d="M48.28,60.17c0-1.21,2.71-.67,2,.8a1.22,1.22,0,0,1-1.28.67c-.6-.14-.74-1-.74-1.47m-4.42-3.3c0-.5.18-1.16.73-1.29a1.07,1.07,0,0,1,1.25.68c.49,1.43-1.74,2.07-2,.61m1.93-4.18a.57.57,0,0,1,1.12-.19c0,.69-1.12,1-1.12.19M34.14,42.54c2.65-.89,3.62,3.22,1,4-.84.24-1.91-.76-2-1.6s0-2,1-2.36m1.56-.37c0-.72.8-.57.8,0-.19.28-.8.66-.8,0m-1.62-.56c0-.36.17-.25.37-.25,0,.26-.09.53-.37.25M33.64,37c0,.08-.18.73-.29.39s.06-.52.29-.39m6.57.21c0-.25.16-.65.47-.26s-.23.53-.47.26m-9.43-1.64c.49-1,2.1-.06,1.48.85-.23.34-.9.67-1.25.31s-.23-.71-.23-1.16m-6.17.8c0,.05,0,.4-.06.44-.28,0-.13-.56-.13-.69a.21.21,0,0,1,.19.25m-9.34-4c.12,0,.05,1.05-.44,1.05-.76,0,.28-1,.44-1.05m4,.12c0,.32-.43.49-.43.12s.43-.46.43-.12m.38-12.39c.87.3,2,.55,2.41,1.52a2,2,0,0,1,.08,1.29c-.18.51.21.47.47.83s.7,1,1.09,1.49c.2.25.47.24.54.53.14.59.44,1.19.17,1.76-.17.39-.22,1,.36.88a2.5,2.5,0,0,1,1.57-.18,2.44,2.44,0,0,1,1.45,2.46c-.22.92-.84,2.09-1.94,1.9-.33,0-.72.2-1,0a3.63,3.63,0,0,1-1.3-1.47c-.1-.19-.18-1.15-.34-1.15-.46,0-.15.91-.65.82s-.58.46-1.06.65-.71-.53-1.05,0-1.29-.06-1.77-.14l-.8-.13c-.36-.06-1.07-.88-1.37-1.13s-.84-.6-.84-1a2.06,2.06,0,0,0-.21-1.13c-.16-.28-.68-.76-.22-1,.26-.15.19-.52.21-.78a2.4,2.4,0,0,1,.88-1.87,6.65,6.65,0,0,1,1.21-1.1,2,2,0,0,1,.23-1.8,2.24,2.24,0,0,1,1.89-1.25M38.81,28.4c0-.66.84-1,1-.25,0,.63-1,1-1,.25m-11.27-.5a.51.51,0,0,1,1-.18c0,.74-1,.94-1,.18m2.67-7.35c0-.82.9-1.57,1.38-.56s-.93,1.45-1.38.56m-7.59-.43c0-.18.08-.74.44-.53s-.07,1.08-.44.53m-6.36-2c0-.84.72.72,0,0M15.77,12c.09.18.62.22.62.37a4.64,4.64,0,0,0,.34,1.21c.2.42.41.48.32,1a4.36,4.36,0,0,1-.41,1.28,3,3,0,0,1-4.31.79,3,3,0,0,1-.41-4.46,3.06,3.06,0,0,1,2.22-.77c.35,0,.35.46.8.25a.7.7,0,0,1,.83.38M1,13.2c0,.5-.66,1.11-.95.41s.74-1,1-.41m.44-3.8c0-1,.13-2.22,1.21-2.61A2.21,2.21,0,0,1,5.72,8.36c.48,1.32-.49,2-1.49,2.64-.44.28-1.47-.21-1.9-.42a2,2,0,0,1-.63-.44c-.21-.23.07-.57-.26-.74m26.41.25c0-.25.43-.63.69-.46s-.33.82-.69.46M5.8,5.79c0-.28.5-.37.5-.06,0,.5-.46.06-.5.06M17,3c0-.16.1-.46.33-.19s-.16.34-.33.19M5.86,2.62c0-.34.45-.71.66-.26s-.66.56-.66.26M4.12,1.49A.88.88,0,0,1,5.8,1.06c.59,1.21-1.68,1.62-1.68.43M21.25,0c.12,0,.53.13.24.33S20.88,0,21.25,0"/></g></g></svg>