<svg xmlns="http://www.w3.org/2000/svg" viewBox="0 0 71.35 86.96"><defs><style>.cls-1{fill:#e51e25;}</style></defs><g id="Calque_2" data-name="Calque 2"><g id="Vector_Graphics" data-name="Vector Graphics"><path class="cls-1" d="M29.61,86.57c0-.36.55-1.66,1-1.17.68.68-1,2.29-1,1.17M14.53,77.64c-1.16.77-1.7,1.75-3.22,1.75-1.35,0-.51-2.09-2.35-.87-.24-.85,1.32-.48.73-1.35a.58.58,0,0,1-.37-.88c.08-.29.7-.81.45-1.07-1.54-1.49,3-2.36,3-2.71,0,0,.46,1.28.88.44a1.22,1.22,0,0,1,1.11,1c.07.29.16,3.72-.23,3.72m24.16-.88c-.39.79-.46,1-1.28,1-.4,0-1-.09-1.28.22-.53.56-.56-.38-1.24.3-.37.37-.54.07-.88.07,0-.55-1.2-1.19-1.54-1.5A5.17,5.17,0,0,1,31.14,75a4.09,4.09,0,0,1,.26-3.29,2.84,2.84,0,0,1,1.29-1.25c.49,0,.73.39.73-.37,0-.93.49-.22,1-.22s.28-1.05,1.28-.65c1.88.75,5,1.83,4.58,4.32-.65,0-.64,3.22-1.62,3.22M20,77.49c.41.42-.17,1.23-.63.77s.63-1.14.63-.77m10.69-.44c0,.44-.16,1.13-.77.77-1.3-.78.77-1.66.77-.77M47.49,46.29a2.82,2.82,0,0,1,2.31,1.25c.44,1-.27,1.4-.27,2.27,1.41,1-.86,3.38-1.9,3.66,0-.25.09-.49.15-.73-1.18,0-1.64,2.67-2.59,3.26-.62.39-1,.11-1.66.11s-.17.7-.88,0c-1.12,2.22-2.94-3.26-4.15-1.65-.65.88.46.93.85.84,1.3-.29,1.4.82,1.4,1.83l.58-.15a.66.66,0,0,0,.3.74c0-1.27,2.35.1,2.93.29.5-.16.83-2,1.31-2,0,.36-.29.56-.29.87a.91.91,0,0,1,1,1.23c-.27.64-.8.24-1.24.24-1,1-.14,1.56.88.88a29.34,29.34,0,0,0-.36,3.14c-.21.54-.91,3-.38,3,.92,0,.44-1.17,1-1.17.36,0,.94,1.2,1.28.51s.67-1.24,1.51-1.24c1.07,0,.83,1.07,1.16,1.76,1,0,.16.33.33,1.35a2.42,2.42,0,0,0,.52,1.19c.44.52,0,.6.24,1.19.15.42.69.35,1,.41.83.13-.41.8-.42.83-.34.58.41.83.13,1.4s.36.65.36,1.1-1,0-1,.73.1.7-.4,1.25a5.36,5.36,0,0,1-4.9,1.57c-1-.14-.64.52-1.25,1s-.6-.36-.33-.69c.64-.8-1-1.5-1.61-1.17s-.44-.37-.44-.66c0-.64-.65-1-1.17-1.17.67-.66-.42-.8-.73-1-.57-.29,1-1.09,1-1.54,0-.75-1,.16-1-.59.27-.4,1,.09,1-.59-.43-.43.35-.92.08-1.46a2.82,2.82,0,0,0-.44-.26c-.22-.33.07-.72.07-1.06,0,.58-1.93-.66-2-.73-.8,0,.25,2-1,2-.69,0-.58-1.07-1-1.38-1-.65-1.47,1.49-1.58,2,.31,0,.06-.75,0-.82a1.72,1.72,0,0,0-1.37-.73c-1.89-.26-1.25.77-2.33,1.84,0-1,1.68-2.48-.14-2.93-.5,0-1.69.65-2.2.14,0-.82,1.61-.14,1.61-.87-.78,0-.45-.4-1.2.2s-1.18-.64-1.73-.64a4.09,4.09,0,0,1,1.32-.74c0-.15-.58-.24-.18-.5a.52.52,0,0,1,.77.21c.78-1.93-.48-2.9-1.76-3.95v.15a8.19,8.19,0,0,1-4.39-1.75c-1.08-1.08,2.19-.32,2.52-.16a5.17,5.17,0,0,0,3.76.42c.47-.16,0-2.75-.43-3.06a3.28,3.28,0,0,1,2.78-1,3.14,3.14,0,0,1-.14-.73,1.76,1.76,0,0,0,.29.58.42.42,0,0,0,.3-.44c.06,0,.27.15.29.15,0-1.26-.25-1.13-1-1.91.15.44-.17.63-.58.22-.56-.1.58-1.09.58-.22,0-.86,1-.66,1.47-.73,0-.31-1.7-.7-1.94-.77-1.66-.45-.9.73-1.49,1.16-.94.67-1.41,1.57-2.58,2-.89,0-1.76-.15-2.64-.15h.3c0-.2-1.7-1.06-1.92-1.28-.48-.48-1.71-2.14-1.07-2.85s1-.61.65-1.55-.11-.62.44-.62c.89,0,1.46-1.13,1.46-1.9s-.45-.59.46-1.13a4.53,4.53,0,0,0,1.22-1c.63-.75.29-1.64-.07-2.41-.07-.17-1.45-3.08-.73-3.08,1.58.79,1.44,3.11,2.93,3.95.63-.15,1.66-.45,2-1.1s-.36-.59-.36-1.09c0-1.49,1.64-.41,2.19-.74.33-.31-.28-1,.3-1s.3.74.59,1c.43-.43,1,.15,1.32.44l.29-.44.59.15c0-.59-.08-1.16-.08-1.76s-.37-.74-.37-1.32l.59.59a2.26,2.26,0,0,1,1.17-.29c.59,0,.83,1.32,1.91,1.32.26-.27.43-1.14.14-1.43-.71-.72,0-.62,0-1.51,0,.47,1.12,1.12,1.32,1.62.8-.15,1.43-1,2.19-1,.46,0,1.76.75,1.18,1.32s.27,1.18.44,1.61c.32,0,.19-.56.71-.37s1,.47,1.49.66c.83-.81,1.26.13,1.79.95A13.37,13.37,0,0,1,49.18,41c.16.36-.23.46-.23.76.41.51.13,1,.3,1.46-.91.62-.45.48-.45,1.18-.46,0-1.16.74-1.46.43a3.28,3.28,0,0,0,.59.89l-.44.58M2.81,75.73C2.81,77,1.08,77,.17,77.2c-1-1,2.4-2.43,2.64-1.47m12.3-2.63c0-.22.45-.41-.07-.59s.32-.82.15-1.24c-.5-1.17-.54-1.31.8-2.13,0-1.73.69-.16,1.39-.88,1-1,1.92-.76,3.15-.14.1-.25.2-.49.29-.74v.3c1.26,0,.44,0,.44.87s1.11.66,1.5.28c1.41-1.33,3.22-4.08,5.39-4.08,0,1.5-3.35,3.46-4.38,4.31-.7.57-1.47.92-1.29,1.9.11.58,1.13.43,1.13.67,0,.85-.59.08-.77.35L22,73.24c-.29.43-.56.85-.85,1.27s-.33-.65-.73.25c-.15.34,0,.62-.18,1a1.36,1.36,0,0,1-.73-.58,2.2,2.2,0,0,1-1,.39,1.84,1.84,0,0,1-2.25-1.12,1.62,1.62,0,0,1-1,.43c.13-.19.58-.65.59-.87,0-.56-.74-.32-.74-.88m9.38-4c1.25-2.09,3.5-.32,2.69,1.69-.24.58.19,2.21-1.22,1.3a3.17,3.17,0,0,1-1.47-3m4.83-1.46c-.48,1.29-2.79.36-2.09-1a1.21,1.21,0,0,1,1.57-.31c.73.42.52.64.52,1.29m14.51-1.32c-2,0,0,1.8,0,0m.58-.15c.33-.22.38-.47.15-.73a2.07,2.07,0,0,0-.59.59l.44.14m3.81-6.88a2.19,2.19,0,0,1,1.31,1.61c0,.5-1.24-1.41-1.31-1.61M24.64,60.65c0,.6-2.35.35-2.58-.21-.52-1.27,2.22,0,2.58.21m29.73-5.28c1,0,2.45,1.18,1.5,2.22s-1.84-.21-2.53-.9c.53-.21.5-1,1-1.32m15.53.74c0-.58.26-1.7,1.09-1,1,.8-.32,1.8-1.09,1m-40.58-1c0,.65-1.2,1-1.61.73.21-.52,1.26-1,1.61-.73M35,52.52c-.93,0-.3.61.13,1,.25.26-.06.35-.2.5,0,.5.57.69,1,.77a2.93,2.93,0,0,0,1.71,0,.79.79,0,0,0,.06-1.33c-.9-.49-1.78,0-2.67-1m.37,1.68c0-1.81,1.46,0,0,0M49.83,44c.75-.66,1-1.32,2.05-1.32a2.35,2.35,0,0,1,1.85,1.57c.59,2.52-3.46,3.41-3.46,1.51-.7.14-.44-1.22-.44-1.76m9.52-8.21a1.12,1.12,0,0,0,1.17-.88c.36.36,1.46.25,1.5.66s.39.41.77.33.33.18.81.48c.93.59.12,1,.73,1.72s.23,1.88-.17,2.55a4.9,4.9,0,0,1-2.47,1.89c-.39,0-1.72-.34-2-.08.18-.2-1.48-.57-1.67-.64-1-.4.09-1.78-1.34-1.78,0-.6.77-.44.53-1.1a6.11,6.11,0,0,1-.38-.65c0-.36.44-.49.44-.89.22-.67,1.06-2.58,2.05-1.61M17.16,41.46c0,1.48-2.33.27-2.68-.47-1-2.05,2.6.47,2.68.47m51.27-.73c.25-.25,2.2-1.35,2.2-.45,0,.47-1.89.76-2.2.45M21,38.24c0,.64-.8,1-1.35.25-1.05-1.34.82-1.32,1.35-.25m-7.32-1.18c-.42.43-2.2.1-2.2-.58s2.2-.11,2.2.58m39-.29A4.11,4.11,0,0,1,54,35.38c.42-.24,1.81-1,1.34.2-.26.66-2.4,2.3-2.7,1.19m-21.68,0c-.88,0-2.72-1.18-1.53-2.2s3.63.06,4,1.61a1.32,1.32,0,0,1-1.17-.58c-.42.5-.63,1-1.32,1.17m13.33-5.71c.69,0,1-.44,1.8-.18a3.73,3.73,0,0,1,1.55,1.32c.57.61.16,2.63-.93,2.9-.88.22-3.74-.45-3.23-1.74.23-.56-.06-.3-.06-.69,0-.66.87-1,.87-1.61m-2.49,3.66a.57.57,0,0,1,.15-.59c.5.21.73.35.73.88a1.17,1.17,0,0,1-.88-.29m-4-.44c-1.22,0-2.19-1.83-.66-1.83.33.1,1.63,1.83.66,1.83m5.27-2.05A4.52,4.52,0,0,1,42.51,34c-1.15,0,.58-3.32.58-1.76M39.72,33c-.1,0-.19-.1-.29-.15.28-.18.36-.87.73-.87.58,0-.31,1-.44,1m-8.06-3.08c0,1.58-2.22-1-2.41-1.52-.27-.69.26-1,.87-.73a3.24,3.24,0,0,1,1.54,2.25M43.09,27c.53,0,1.53-1.94,2.45-.48,1.22,1.9-.07,2.38-1.71,2.38.82.84-.66,2.09-.43.38,0-.13.39-.47.43-.53-.62-.3-.74-1.15-.74-1.75M55,29.74A2.41,2.41,0,0,1,56.57,28c0,.72-1,2-1.61,1.76m-10.7-8.2c0-1.28,1.76-1.36,1.76-.16,0,.93-1.76,1-1.76.16m-27.17-1c0,1.14-2.37-1.39-1.54-1.39.73-.42,1.39,1,1.54,1.39m25.56-4c0-1,1.7-2.09,2.05-.76.45,1.68-1.08,1.42-.81,2.71a3.35,3.35,0,0,1-.06,1.72c-.17.48-1,.66-1.07,0a30.31,30.31,0,0,1-.11-3.7M14.38,6c0,.47.34-.61.35-.62.31-.39.59.33.16.47-.8.27.42,1.65.58,1.95.41.81-.3,1.36.08,2-.65,0-1,.59-1.72.8-1.17.32-2.15-.87-2.64-1.79a2.11,2.11,0,0,1,.23-2.53c.68-.75,2.05-.29,3-.29m14.21.87c0-1.28,1.16.59,1.25,1,.42,1.95-1.05-.42-1.25-1M13.21,2.49C13.9,1.82,14.4,3.58,14.53,4c0,.88-1.32-.88-1.32-1.47M24.2,0c.87,0,1.26,1.08.29,1.32C24.42,1.26,22.92,0,24.2,0"/></g></g></svg>