<svg xmlns="http://www.w3.org/2000/svg" viewBox="0 0 35.04 61.66"><defs><style>.cls-1{fill:#e51e25;}</style></defs><g id="Calque_2" data-name="Calque 2"><g id="Vector_Graphics" data-name="Vector Graphics"><path class="cls-1" d="M24,61.38c0-.66.9-.81.9-.15s-.64.41-.9.15M33,56.75c.31-1.25,2-1.54,2,0,0,1.14-2,1.16-2,0m-5-1c.5.49-1,0,0,0m-5.33-3.42c1.6,0,.29,1.73-.05,1.41s-.41.14-.41-.3-.32-1.11.46-1.11m2.41-1.11c.25.25,1.52,0,1,.92-.17.32-.59.26-.86.14s-.13-.73-.13-1.06m-7.44-1.4c0-.38.6-.17.6.2-.27.27-.94.14-.6-.2m4.12-1a.38.38,0,0,1,.68-.25c.2.2.16.36-.1.48-.33.33-.4-.05-.58-.23m6.54-1.61c.07-.23.19-.27.36-.1,0,.18-.36.3-.36.1M17.22,40.35c.15,0,.49,1.46.15,1.46s-.15-1.3-.15-1.46m5.24-4a1.61,1.61,0,0,0,1.31.31c0,.31.54.75.4.9,0,.75,1.15.12,1.15.25,0,.35-.36.09-.52.25s.09.41.05.66c-.08.56-.73,1.33-.73,1.71-.08.08.06.23-.05.35A3.81,3.81,0,0,0,23,41a3,3,0,0,1-1.44-.2c-.41-.19-.28-.51-.75-.36a2.53,2.53,0,0,1-.73.11c-.67,0,.38-1.45.46-1.59a2.61,2.61,0,0,0,.34-1c0-.21-.31-.32-.13-.52a3.57,3.57,0,0,1,1.75-1.09m11.26,1.61c0-.86.6.6,0,0m-9.55-2.11c.87,0,0,1.1,0,0m8.15-.4c0-.57.39-1.52,1.1-.81s-.6,2.14-1.1.81M20.65,29.88a2,2,0,0,0,.76-.29c.34-.32.43,0,.87.07.6.11.89,0,1.31.73.79,1.31.42,2.5,0,3.82,0,.25,1.05,1.36.3,1.36-.47,0-.73-1.07-1.16-1.26-.26-.11-.24,0-.44,0a3.45,3.45,0,0,0-.74-.83c-.48-.44-1.65-.63-1.38-1.18a.72.72,0,0,1-.3-.3,5.92,5.92,0,0,0,.25-.66c0-.33-.45-.29-.45-.65a1,1,0,0,0,1-.81M10.28,34,10,34c.09-.2.44-1.36.7-1.36.44,0-.42,1.3-.45,1.41M29.4,33.6c-.08,0-.08-.11,0-.19a.54.54,0,0,1,.15.3s-.14-.11-.15-.11M9.78,33.3c0,.22-.4.56-.4.21s.4-.59.4-.21m5.83-19.52c.81-.81.75-.09,1.59.54a1.71,1.71,0,0,0,1.26.24,14.84,14.84,0,0,0,1.48-.28,3.4,3.4,0,0,0,.65.76,7.82,7.82,0,0,0,1.46.75s-.42.36-.1.36a2,2,0,0,0,1-.26,8.78,8.78,0,0,1,.86-.6c.2-.09.55,0,.3.28-.66.66-1.76.79-2.37,1.51-.45.54.92,1.72,1.36.83a.67.67,0,0,1,.88-.23c.43.19.28,0,.68,0,.72,0,1.53.78,2.06,1.2,0,.36.47.63.72.94.51.61.24,1.38.24,2.23-.47.19-.79,1.29-1,1.24s-.5,0-.55.25c-.1.57-.28,0-.5,0-.53,0,.12,1.05.07,1.41-.08.66-.17,1.32-.91,1.57A1.47,1.47,0,0,1,23.06,26c-.81-1.06-.4-1.51.2-2.42-.38-.64-1.31-.18-1.71-1.08s-1.36-.34-.9.28a.49.49,0,0,1-.31-.4c-.4.6-2.15.71-2.82.8,1,.81,1.28,1.34.84,2.62a4.75,4.75,0,0,0-.28,1.66c0,.35.25.55.25.8,0-.21-.87.77-.88.78a3.79,3.79,0,0,0-1,2.39,1.16,1.16,0,0,1-.2-.4c-.32.32-.41.67-.86,1s-1.57,0-1.85.32c-.54.55-.25.47-.76-.24a1.84,1.84,0,0,0-1.41-.73,1,1,0,0,0-1-1c.38,0-.06-.46-.1-.5-.49.28-.92.66-1.4.94-1.16.69-.42-.59.4-.59,0-.13-.61.08-.61-.25.33,0,1.06.16,1.31-.2s-.33-1-.6-1.21a11.48,11.48,0,0,0-1.86.14c-.27,0-2.12.84-2.12.27,0-.36,1.81-.46,2-.48a4.31,4.31,0,0,0,1.46-.33c.67-.31.55-.51.65-1.09a1.07,1.07,0,0,0-.43-1.2c-.31-.15-.74-.93,0-.93.09.06.81.7.81.2s-.69-.46-1.11-.6-.11.33-.34.57-.82-.22-1.07-.37c.37-.14,0-.56.41-.67a2.46,2.46,0,0,1,1.17.14,2.64,2.64,0,0,0,1,0c.33-.08-.52-.59-.57-.65,0-.52,1,.07,1.1.1.14-.13,0-.55,0-.7a1.22,1.22,0,0,0,1.11-.71c-.27-.1-1.15-1.2-.4-1.2.37,0,.56.25.8.5a3.18,3.18,0,0,0,1.41-.81c-.06,0-.2.06-.2-.1.59,0,.88-.3.2-.3l1-.3c-.27-.41-2.37-2.44-2.22-2.59s.69-.48.18-.83c-.9-.58.73-1.33.73-.51a.78.78,0,0,0,.1-.5l.7-.35c.36-.14.62-.33.91-.25v-.3c.31,0,.61-.61.8-.81M11.89,32.1c-.31.31-.41-.25-.31-.47s.56.21.31.47m4.43-.31c.23,0,.46.36.15.36,0,0-.31-.36-.15-.36m12.68-1c-.28-.28.55-.32.55.05-.1.1-.55.28-.55-.05m-6.34-1.71c.21-.42.65-.1.43.2s-.43,0-.43-.2M7.46,26c.86.51-.44,2-1.1,1-.46-.73.56-1.3,1.1-1m24,1.1c-.21-.2.18-.52.35-.35.37.37-.35.55-.35.35M6.46,23.34c0,.61-1.17,0-1-.17s.72-.08,1,.17m8.75-1.51a2,2,0,0,0-1.51-.5c-.26,0-1.36-.2-1.36.35,0,.25,2.75.27,2.87.15m-.9-1.61c-.07,0-.61.08-.61.51a4.23,4.23,0,0,0,.61-.51m-3.93.2.15.15c-.06.09-.14.09-.25,0l.1-.15M11.49,19a.28.28,0,0,1-.2.35c-.43,0,.13-.33.2-.35M13,18.61a.4.4,0,0,1-.25.41c0-.09-.11-.14-.16-.21s.26-.35.41-.2m-.6-.3-.21.05v-.25c.13,0,.51.15.21.2m10.06-4.53c0-.19-.09-.3.3-.3,0,.13-.08.53-.3.3M7.36,8.35s.3-.26.3,0-.15.21-.3,0M3.84.1c.43-.42.12.67.1.7.52.31.32.58.38,1.1.1.88,2.06,1.11,1.57,2-.2.37-.73.18-1,.18-.56.28-.61,1-1.15,1.34-.28.16-1,0-1,.47,0,.12.22.41-.1.41a.94.94,0,0,0-1-.38c-.5.09-.47-.28-.92-.4-1-.25-.73-2-.4-2.72.42-.92,1.05-.58,1.53-1.29C2.45.6,3.44,1.81,3.44.3h.2c0-.14,0-.21.2-.2M27.69,5.83l.25,0a.18.18,0,0,1-.25.15v-.2M23.56,2.92c0-.66.86-.64.86,0s-.86.42-.86,0"/></g></g></svg>