<svg xmlns="http://www.w3.org/2000/svg" viewBox="0 0 47.51 69.42"><defs><style>.cls-1{fill:#e51e25;}</style></defs><g id="Calque_2" data-name="Calque 2"><g id="Vector_Graphics" data-name="Vector Graphics"><path class="cls-1" d="M45.37,66.41a7.54,7.54,0,0,1,2.11.26c.15.15-.3.24-.44,0a3.13,3.13,0,0,1-1.67-.3m-.13-28.1a1.33,1.33,0,0,1,.52-.17.37.37,0,0,1-.39.26h-.21c0-.08,0-.11.08-.09m-.94-9.37a3.25,3.25,0,0,1,1.2-.42c0,.31-1,.46-1.2.42m.55,21,.26-.09a1,1,0,0,0,0,.18,2.66,2.66,0,0,1-1.08.13c.1-.05.73-.2.77-.22m-.12,18.9c.13.27.33.3.38.61a.78.78,0,0,1-.38-.61M45,56.1s0,.11,0,.17a1.84,1.84,0,0,1-.69-.13l.64,0m-.38,12.58h-.13V68.6a.22.22,0,0,0,.13.08m0-13.14c-.44,0-1.4.33-1.72.17.4-.06,1.66-.55,1.72-.17m-.77-42.11c-.26-.25-.08-.53.27-.58.62-.11.18.6-.27.58m.47-6.58a.26.26,0,0,1-.3.22,1.46,1.46,0,0,1,.3-.22M44.17,29a.22.22,0,0,1,.13.09c-.15,0-.09,0-.13-.09m-.86,17.88c1.38,0,.48.85-.39.85-.25-.5,0-.58.39-.85m.56,3.31h.21c-.09,0-.18,0-.21,0m-.56-29.35c-.23,0-.26.3-.39.39.09-.27.17-.54.26-.81.13.09.11.24.13.42m-.17,24.54a.6.6,0,0,1-.48.42c.26-.17.18-.38.48-.42m-.6,10.57-.35,0c.13,0,.81-.26.56-.08v.08c-.09,0-.18,0-.21,0m-.09-9.8a1.55,1.55,0,0,1,.13-.26c0,.12,0,.22-.13.26m-.64,10h-.22c.09,0,.14,0,.13-.13H42v.09c-.08,0-.16,0-.17,0m-1.68,6.4a1.3,1.3,0,0,1-.52-.22c.25,0,.49,0,.52.22m-.73-.26c.13.06.14,0,0,0m-1.08-.38a2.38,2.38,0,0,1,1,.38c-.41-.1-.82-.07-1-.38m.18-11.69a.56.56,0,0,1-.35.25.56.56,0,0,0,0-.12c.22-.15.42-.53.78-.61a1.66,1.66,0,0,1-.47.48M38.28,61.9l-.3,0a.23.23,0,0,1,.3,0m-.17-11.3H38v-.09c.09,0,.14,0,.13.09M38,61.81a.76.76,0,0,1-.39-.08.46.46,0,0,1,.39.08m-.77-.3a1.08,1.08,0,0,1,.38.17c-.28,0-.27-.07-.38-.17m.34-4.34-.81.09v-.09a7.17,7.17,0,0,1,.81,0m0-17.05a.67.67,0,0,0-.34.38c0-.23.26-1,.34-.38m-.34,18.56c-.74,0-.69.11-1.23.47-.22.14-.49.5-.28.69-.2.41-.12.53,0,.93s-.23.42-.33.68-.3.49-.43.75c-.09.11-.13.42-.26.6s-.65.16-.9.3c0,0-.19.23-.17.17,0,.62-.09.44-.35.95a3.27,3.27,0,0,1-.42.51c-.55,0-.44-.64-1.08,0-.16.08-.48.27-.73.15s-.6.41-.73.54c-.31,0-1.21-.13-1.33-.39-.71,0-.26.88-.9.86-.29-.43.36-1.06-.35-1.16-.38.48-.87-.17-1.07-.47a3.88,3.88,0,0,0-1,.25c.57-.73-.73-1.42-1.33-1.67.41-.24,0-.89-.07-1.22A4.53,4.53,0,0,0,23,61.47c0-.35.36-.26.51-.26a.49.49,0,0,1,.29-.12c.51-.06,0-.46,0-.61-.32,0-.95.29-.95-.17.53-.26,1-.13,1-.86-.08-.32-.54-.37-.78-.56s.44-.46.59-.71a5,5,0,0,1,.38-.77c.1-.1-.29-.86-.28-.75v-.09c-.23-.32-.94-.49-1.11-.86.66,0,1.18,1.08,1.76,0h.08v0c.67-.22.61-.44.13-1h-.13A1.43,1.43,0,0,1,24,54.2c.29,0,.48.33.6.48s.83.17,1.18,0c.18-.09.14-.21.24-.34s0-.25,0-.38.31-.23.38-.35.66.75.82.09c.23-.15,0-.43.39-.43.23,0,.19.28.43.3.78,0,.42-.33.77-.56s.31.08.78.17.8-.29,1.33-.29a.67.67,0,0,0,.17.76c.4.38.59-.12,1-.12.13.26.11.73.49.73s.75.3,1.23.3c0,.26-.12.46,0,.64v.13c.1.12.32.43.6.43,1,0,.1,1,.51,1,.22.78.8.52,1.46.52-.21.36-.66.15-.81.56a.41.41,0,0,0-.22.6c.56.28,1.6-.18,1.93.18-.08,0-.09,0-.12,0m0-7.65a2.66,2.66,0,0,1-1.16,0c.32,0,1-.14,1.16,0m-.39,10.26.35.27c-.23,0-.63-.14-.35-.27M35.62,1.1l-.22,0A6.7,6.7,0,0,1,36.69.33c-.06,0,.51-.57.43-.22s-.37.28-.56.31V.5a3.16,3.16,0,0,0-.94.6m1.16,52-.18,0a.25.25,0,0,1,.18-.13v.17m-.18,4.13c.21,0,.09,0,0,0m0,4c.13.07.15,0,0,0M35.14,5c-.23-.47.52-.81.89-.92.73-.22.15.2.15.36s-.75.57-1,.56M36,51h-.17c.08,0,.15-.06.17,0m-.25,1.85c0-.16.06-.21.21-.17s-.1.15-.21.17m-.22,0,.17,0a1.45,1.45,0,0,1-.47.34,1.1,1.1,0,0,1,.3-.38m.09-1c-.19.09-1,.2-1.16,0,.3,0,1.06-.28,1.16,0M35.31,1.15l.09,0ZM35.1,53.48c.07-.15.07-.12,0,.08H35l.13-.08m-.69-19.73.31,0a.79.79,0,0,1-.69.22c.19,0,.31-.14.38-.18m-12.54-20c-.52-.52.3-.33.44-.78.2-.61-.74-.76-.48-1.29-.17-1,1.18-1.66.43-2.4-.05-.24-.18-.16-.11-.43.12-.49.86.16,1.1-.18s0-1.07.23-1.07c.38,0,.81.19.8-.3s-.07-1,.56-.61c.8.44,1.09-.44,1.28-.93.24.12.37.44.56.55v.09c.46-.09.41-.91.95-.64.14,0,.29.32.47.34.36-.14.36-.55.9-.43.18.38.81.41,1,.56s1.42-.47,1,.17c-.07.31.42.87.69,1s1-.61,1.1-.06c0,.34-.28.72-.2.86.42.8,1,.52,1.76.52a.76.76,0,0,1-.38.47c-.25,0-.4.31-.56.43a5.57,5.57,0,0,1,.39.77c.68-.09.39.83.86.91v.17c-.3.06-.83.58-.78.77v.05l0-.05c-.09,0,0,.78,0,.78.09.37.92.64.77.86s-.32.06-.67.1c-.59.09-.46.59-.79,1,0,.13,0,.23,0,.3.09.24-.09.87-.43.52a1,1,0,0,0-.69.26c-.21.44.31.6.09,1.11a1,1,0,0,1-.69-.47c-.55-.12-.62.8-.77,1.12-.12-.1-.91-.66-.91-.48s-.23.15-.3.22c.19.36,0,.52-.3.64s-.52-1-.81-.34h-.09a9.45,9.45,0,0,1-.09,1.07h-.12c0-.43-.5-1.69-1.06-1.14s-.56,1.15-.88,1.79c-.15-.38.11-.81.16-1.22,0-.15.17-.66.1-.8-.46-.31-.82-.55-1.31-.2,0,0-.71.47-.71.16s.06-.3.15-.58a.77.77,0,0,0-.71-1c-.27-.19-.84-.23-1.11-.56s.23-.57.14-.9c-.19-.76-.47-.51-1-.73M33.94,52a1.24,1.24,0,0,0,.43,0l0,.13a.35.35,0,0,1-.39-.09m0,2.45a1.48,1.48,0,0,1,.3-.26c-.05.25-.2.22-.3.26M33,31a.9.9,0,0,0-.6-.12l.64-.05A.59.59,0,0,0,33,31m-.6,18.18c0,.11-.19.14-.26.13s0-.11,0-.17.14,0,.22,0m-.52.39-.13.13c0-.26,0-.19.13-.35v.22m-.13.3a.18.18,0,0,1-.09-.13c.14,0,.06,0,.09.13m-.13.43a1.5,1.5,0,0,0-.08.47c-.16-.16,0-.72.12-.85a.85.85,0,0,1,0,.38m-.38,2c.07-.19.1-1,.38-1A8.13,8.13,0,0,1,31.15,53h-.09v-.29h.09a.29.29,0,0,1,.09-.35m0-.73a1.73,1.73,0,0,1,.17-.64.54.54,0,0,1-.17.64m-.13-32.78a1,1,0,0,1-.3-.82,1.5,1.5,0,0,1,.43.9.18.18,0,0,1-.13-.08m0,34.28L31,53l0,.13m-.3-35.27V18h-.08c0-.1,0-.18.08-.17M14.39,36.55c-.89-.36,0-.67.52-.43,1.3-1-.44-1.42-.73-2.15a.86.86,0,0,1,.51.3c.33-.33,1.29.57,1.29-.46,0-.35-.26-.68.22-.87.22.23.52.11.74-.1.38-.35.12-.51.12-.93.3,0,.68-.13.86.12a4.4,4.4,0,0,1,.94-.16c.17-.14.27-.53.52-.61v-.09c.46-.12.74.35,1.24.35v-.17c-.43,0-.9-.45-1-.86-.48-.61,0-2.06.91-2.06.07,0,.78-.12.77-.11.2-.11.47.27.56.37.32.23.5.27.68.73a7.69,7.69,0,0,0,0,.85c0,.4-.46.55-.56,1-.62.1-.15.43.26.43,0-.12.22-.36.26-.39.29-.22.47.39.56.65.58,0,.83-.49,1.29-.64-.13.34-.22,1.11.22,1.28s.75-.67,1.11-.85c0,.16-.07.11-.13.17-.13.36,0,.81-.21,1.2.35.58,1.16,0,1.28.35-.28.51-.58.62.13,1a4.65,4.65,0,0,1,.78.64c.15.14.36.14.47.34-.09,0-.28.21-.3.22a1,1,0,0,0-.21-.09c-.51.31-.17,1.16.17,1.51a3.55,3.55,0,0,0,2.53,0c.23,0,.37,0,.43.25-.27.27-1.26,0-1.42.09-.44,0-.91,0-1.2.26s-.08.55-.26.81a2.33,2.33,0,0,0-.08.73c.51,0-.5.83-.51.84-.12.17-.58,1.23-.42,1.37.31.31.76.71.76,1.19-.53-.12-1.32-1.38-1.68-.57.22.46-.17.75-.56.65-.9-.21-.64.34-.64.86s-.52.16-.69-.17c-.25-.51-.65.61-.81.6s-.87-.36-.87-.26a1.52,1.52,0,0,1-.71.44,1.6,1.6,0,0,1-1-.11,3,3,0,0,0-.8-.34c-.3-.08-.64.36-.92.49,0-.29.22-.73-.13-.82v-.09c-.37,0-.65.11-.86-.22s-.52-.46-.91-.21c-.3-.26,0-.57,0-.83,0-.46-1-.07-1.11-.07-.15-.44.73-.85.17-1.12-.12-.23-.41-.4-.56-.55a2.17,2.17,0,0,1-.43.08c-.11-.31-.46-.77-.26-.9a.61.61,0,0,1,.13-.86c.2-.11.09-.18.09-.47-.06-.51-.13-.38-.69-.6-.12-.36.17-.43.43-.43.48,0,.25-.66-.22-.56M30,34.74a.34.34,0,0,1-.22.13c0-.24.2-.16.22-.13M28.87,40a1.58,1.58,0,0,1-1-.35c.31,0,1,0,1,.35m-1.37,2.7c-.12-.12.2,0,.3.17-.22.06-.19,0-.3-.17m-.22,9.2c0-.06-.08-.57-.08-.39h.08a.67.67,0,0,1,0,.39m-1.8,13-.05-.13a.29.29,0,0,0,.05.13m-.22.43c-.14-.15.07-.31.13-.43.1.21,0,.2-.13.43m-.13,0h.09A4,4,0,0,1,24,66.84c.13-.55.8-1.07,1.11-1.55M23.89,63.1c.13.06.14,0,0,0m-1.46.3a2.6,2.6,0,0,0,1.46-.26.55.55,0,0,1-.13.17v0c-.26,0-.28.45-.69.39.05-.26-.38-.26-.64-.26m.26.51c-.14-.12.16-.18.25-.21,0,.29-.29.22-.25.21m.16-2c-.08.08-.12.07-.12,0s.32,0,.12,0m-.59,1.5s.08,0,.08.05Zm-.35-7.6c.12.15.23.31.35.47a.68.68,0,0,1-.56-.47h.21m-.64,3.43h0l-.09.52c0-.21,0-.43-.08-.65.17,0,.08,0,.13.13m-1.12.13h.09v.26c-.13,0-.13-.14-.09-.26m0-.3.13-.09v.26c-.11,0-.14-.06-.13-.17m0-.17c0-.18-.09-.39-.09-.6h.09a1,1,0,0,1,0,.6M18,65.46c.12,0,.36-.2.48-.08a1.49,1.49,0,0,1-.43.26.31.31,0,0,0-.05-.18m-.34-3.18a.33.33,0,0,1,.05.39,1.5,1.5,0,0,1-.18-.39c.05,0,.09-.05.13,0m-.39-2.23c0,.1,0,.2.05.3h-.09c-.13-.27,0-.23,0-.3m-.85-10.36c.14-.14.26-.23.42-.08a2.7,2.7,0,0,1-.9.21c.15-.06.35-.06.48-.13m-1.12-7.21-.22.13v-.13c.44,0,.69-.49,1.21-.44-.06.26-.42.26-.56.35a2.72,2.72,0,0,0-.43.09m.73,12.63h.21c-.09,0-.18,0-.21,0m0,11.34c.1.21-1.16-.22-1.33-.26.33,0,1.08,0,1.33.26m-.17-11.51.13.17a1.93,1.93,0,0,1-.34,0c0-.17,0-.22.21-.17M13.1,40.37h-.17a2.18,2.18,0,0,1,1.2-.47V40a.9.9,0,0,0-.55.21,1.48,1.48,0,0,0-.48.17M0,44.36c.56-.19,1-.54.69-1.11C.63,43.15.21,43,.21,43c0-.49.25-.28.61-.28.76,0,0-1,0-1.12a.4.4,0,0,1,.73-.21c1,.06.43-.61.43-1,.28-.18.8,0,.94-.3s.35-.11.35-.47.72-.07.87-.27a.53.53,0,0,1,.76-.22c.76.36.67-1.1,1-1.23a1.21,1.21,0,0,0,.08.56v.08H6c-.13.57.68.61,1.08.61.28-.16.47-1.68.73-.35-.53,1.09,1.33.5,1.63.61.15,0,.23,0,.21.21a.53.53,0,0,1,.22.39c.29.79,1.38.17,2.1.3-.11.34-1.32.2-1.13.94a.84.84,0,0,0,.23.26c.41.4.43.13.88.13.6,0,.39.4.09.62a.56.56,0,0,0-.1.83c.17.25.61.17.73.43s-.44.5-.44.86a2.18,2.18,0,0,1,.37,1.15,2.93,2.93,0,0,0,.1,1.05c-.2,0-.61.13-.66.34s-.53.75-.41,1V48c.34.08.42.6.08.6-.63-.41-.76-.09-.56.45.31.88-.52.11-.64.11a1.2,1.2,0,0,0-1.07,1c-.05.34.5.49,0,.77A.9.9,0,0,0,9,50.55c-.4-.4-.48,0-.9.09-.65,0-.73,0-.73.73,0,.45-.36.51-.51.26,0-.34,0-.85-.39-.92a4.28,4.28,0,0,0-.78,0c-.2,0,0,.11-.08.13-.4.8-.71-.51-1.16-.43-.51-.23-.73,1-1.12.52.06-.09,0-.13-.09-.13a3,3,0,0,0,.2-.55c.08-.45-.28-.28-.28-.55,0-.8-1.12.39-1.12-.36,0-.54.25-.73-.41-.73s-.37-.47-.06-.77a2.86,2.86,0,0,0-.67-.58c-1-.33-.41-.36-.41-1.14,0-.16-.12-.35-.12-.52,0,0,.12-.25.12-.21.46-.46-.47-.59-.51-1m10.74-6.52a.49.49,0,0,1-.56.17c.06-.08.56-.34.56-.17M10.22,57.3l.09.08c-.28,0-.94.09-1.16-.12.37.05.77,0,1.07,0M9,23.32c0-.11,0-.21-.05-.31l.48,0c0,.24-.23.32-.43.35M8.59,8.71c-.17-.37.16-.58.52-.64a.59.59,0,0,1-.52.64M7.86,21H8v.17c-.11,0-.12-.07-.09-.17m-.21-1H7.6L7.73,20a3.17,3.17,0,0,1,.13,1c-.23-.16-.17-.72-.21-.95M4.42,55.58l.26.09a.3.3,0,0,1,0,.08l-.3,0c.06,0,.12-.06.08-.13m-.25.09s.08,0,.08,0Z"/></g></g></svg>