<svg xmlns="http://www.w3.org/2000/svg" viewBox="0 0 85.82 86.96"><defs><style>.cls-1{fill:#e51e25;}</style></defs><g id="Calque_2" data-name="Calque 2"><g id="Vector_Graphics" data-name="Vector Graphics"><path class="cls-1" d="M46.38,83.78c.26,1.07,1.38,2.06,1.38,3.18-.69,0-1.36-2.58-1.38-3.18m-21.53,1.9-.43-.32c0-1,.69-.2.85-.1l-.42.42m21-15.9a1.11,1.11,0,0,0,.54-.75c0,.91,1.19,2.87,2.22,2.87.78,0,2.53-.73,3.16,0s-.2,2-.4,2.48a4.83,4.83,0,0,0,1.91,1.11,2,2,0,0,1,.94,3c-1,1.28-3.29.85-4.22,2.31-.45.71-.12,3-1.39,3a10.41,10.41,0,0,1-3.39-.2c-.13.13-.92,1.79-1.28.74s-1.3.35-1.48.53c-.7-.47-1.36-1-2.07-1.49-1.28-.85-.78-.43-1.54.32-.11,0,1-1.92.43-2.54s-1.06-1.06-2.12-.27c-.4.3-2.41.89-1.69-.31s3-.77,3-2.71c0-1.74-3.18-1.09-3.18-2.23,1.57-.77,2.13.5,1.07-1.37-1.17-2.09,5.1-.55,3.91-1.7a.74.74,0,0,0,.43.1,17.9,17.9,0,0,1-.75-2.33c.55,0,.52,2,1.48,1,.54-.54-.14-1.49.86-.49a22.11,22.11,0,0,1,3.6-1M7.78,76.13v.43H7.35c-.09-.37.06-.51.43-.43M5.87,74c.35.35-.34.89-.64.51s.23-.9.64-.51M35.24,62c-.6,1.18.26,2.22.71,3.25.33.76-1.19,1.56-1.65,2.22a3.71,3.71,0,0,0-.78,3c.27,1.15,2.24,1.93,1.73,3.24a1.29,1.29,0,0,1-2.11.5c-.91-.85-.13-1.59-.45-2.57s-1.74-1.6-2.76-1.83a5.76,5.76,0,0,0-2.7,2c-.13.88-5.52,1.06-6.56,1.1-2.29.08-6,.25-6.85-2.42-.3-1-1.28-1.62-1.51-2.66a11.88,11.88,0,0,1,0-2.53c0-.72.43-1.15.43-2,.36-.75,1.41-.11,2-.75.71-.79,0-2.32-.17-3.27-.16-.77,0-2,.82-.73.64,1.09,2.9,2.28,4.13.93a7.21,7.21,0,0,0,1.21-2.23c.39-1,1.31-.46,1.17.44a9.31,9.31,0,0,0-.15,2.93c.19,1.29,1.52,1.32,1.89,2.43.83,2.48,1.65.79,1.65-.81,0-.71,1.38-.53,1.73-1.15.54-.94.31-2.11.71-3.09.76-1.9,1.73,2.7,3.66,1.59.91-.51,1.31.09,1.91.68.07.09,2,2.14,2,1.75m9.65-39.76a22.54,22.54,0,0,1,2.43-2.55c.46.23.25,1.59,1.23.59.59-.58,1.7-.17,2.23.22,0,0,2.59,2.36,2.59,1.85,0,.41-1.31,1.42-.21,1.69a3.49,3.49,0,0,0,1.75.42c2.8,0,1.62,3-.27,1.91,0,2.8,4.14.7,4.14.75-.19.17-.35.35-.53.53,0,.46,2.22.53,2.54.53a6.77,6.77,0,0,1,1.28.31c0,.35-6.82-.52-7.43-.52,0,3.31,2.41,1.27,4.25,1.27.24,0,.66,1.58.73,1.75A4.1,4.1,0,0,0,62,33.4a15.57,15.57,0,0,1-1.06,1.81c0,.8.53,1.5.53,2.33-.84,1.39-4.56,1.35-4.56,3.29a1.28,1.28,0,0,1-.63-.54c-.67,0-1,.47-1.7.21-1.65-.52-1.78,1.42-3.2,1.73S47.72,42,46.45,43s.94,1.44,1.26,2.23c.47,1.14-1.79,2.23-2.71,2.34.17,1.28.79,2.15,2.11,1.69,2.68-.95.21-3.78,3-5.19,0,.1-1.49-1.58-.64-1.58s1.09.9,1.87,1.19c1,.39,1.27-.86,2.22-1.33.69-.35,3-1.17,3,.24,0,.75-.46.71.48,1.22,1.68.91,1.18-.32,2.43-1.32.82-.66,1.75.45.8,1.16a1.56,1.56,0,0,1-1,.32c-.29.39-.84,1.27-1.47,1.27.47.94,1.09-.55,1.42.69.44,1.57,1.64-.37,2.29-.37,1.24,0,0,1.27-.85,1.27-1.55,0-2.44,2.81-2.44,4,0,1.44-.38,2-1.91,2.36-2,.47-2-.51-3.5-1.4-.82,0-2.34-.19-1.68,1.16.07.15,3.45,2.87,2.52,2.87-1.58,0-3,.4-3.56,2-.45,1.36.56,3.61-1.56,3.3-1.7-.25-2.72-.71-4.13.69-1.19,1.17-1.71,2.2-2.88.32-.77-1.25-1.22-.71-2.09-1.15C38,60.38,36.53,59.76,35.09,59c-1.6-.78.71-2.22-1.23-3.37-.28.42-1,.55-.58,1.17.13.18.35,1.38-.16,1.38s-.11-3.08-1.8-3.08c-.48.09-.62,1.7-1.07,1.7s.64-1.85.64-2.12c0-.73-.83-.76-1.32-.48-1,.63,0,.54-.47,1.47a1.14,1.14,0,0,1-2-1.05c.59-1.18,2.44.16,2.44-1.32A1.92,1.92,0,0,1,26.87,53c-.22.86-1.6.4-1.6-.42a1.45,1.45,0,0,1,.53-.85,2.89,2.89,0,0,1-.32-1.38c0-.88.77-1.48,1.28-2.12.61,0,.88-.85,1.16-.85.62,0,1.49,1.2,1.49-.21,0-.74-.57-.85-1.14-.83l-1.91.08c-.82,0-1.58-1.37-.66-1.37-2.32,0,1.34-1.38.16-.27C26.17,44.47,29,46,29,43.69c0-1.58-2,.4-2.64-.95C25.54,41,27.43,42,28.13,42a.93.93,0,0,1-.52-.53c1.61-.4,1.86-.68.46-1.7-.41-.29,2.95-.73.7-1.38,2.39,0,.21-1.26.21-2,0-.29.55,0,.64,0-.13-.7-1.63-.57-1.09-1.23,1.22-1.47,1.82-2-.12-3.22-1-.61-3-1.21-3-2.6,0-.79-1-.82-1.17-1.43s.32-1,.32-1.59-.53-.75.22-1.19.95-.27.95-1.15c0-.71.05-1.24.84-.85.1.05,1.08.13.69-.26a14.76,14.76,0,0,0,4.09-1.32c.25.88,2.33,2.45,2.33,3,0,1.7-1,1.07.73,1.07l.12.21c0,.5-1.23.35-1.49.85.24.19,2.86,1.75,2.86.95-.17-.29-1.76-2.43-.53-2.43.48,0,1.79.86,2,.05.06-.21.29-1.87.64-1.87s.27,1.94.55,2.33c1.37,1.85,1.11-.35,2,.09,2.93,1.46.79-3.47,4.35-3.47m9.44,36.9a2.43,2.43,0,0,1,2-2.33c1.64.3,1.87,1.36,3.18,2-.33.93-.65,2.22-1.75,2.5-1.69.42-3.44-.15-3.44-2.19m23.22,1.27c-.46-.44.64-.39.64-.1,0,.62-.52.1-.64.1M64.08,57.37a1.22,1.22,0,0,1-.84-.21c.56-.56,1.21.21.84.21m-61-.63c-.44.89-1.41.11-.93-.56s.92.56.93.56M71.5,56.1c0-2.71,1.89,1.83,0,0M2.05,54.51c-.39.53-.7.63-1,.31,0-.55.68-.24,1-.31m52.17,0c-.21,0-.32-.53-.11-.53s.29.3.11.53M47,49c-.17,0,.06-.68.42-.33L47,49M9.26,46.13c0,.58-.85,1-.85.11,0-.42.7-.41.85-.11m13.68-.22c-.73.5-3.42.13-2.44-1.11s2.37,1.11,2.44,1.11m55.35-1.69a2.39,2.39,0,0,1,.21-1.06c.49,0-.11,1-.21,1.06M.46,43.9,0,44.11A5,5,0,0,1,0,43s.39,0,.52,0c0,.31-.06.64-.1.95m24.92-.52c0-.25.74-.36.74,0,0,1.2-.77,0-.74,0M68.43,42.1c0-1.94,3.39-.94,3.39.53,0,2-3,.63-3.39-.53M24.53,43c-.11.17-.22.14-.32-.11s.69-.25.32.11m58.32-.21c-.19-.23-.13-.4.21-.54a.55.55,0,0,1,.21.64l-.42-.1m-17.5-3.5a1,1,0,0,1,1.7.74c0,.81-2.31.54-1.7-.74m-46.23.42c-.87,1.17-2.68,0-2.13-1.34,1-2.5,3.43.91,2.13,1.34m1.48-3.93-.21.22c-.3-.26-.3-.47,0-.64.07.15.15.28.21.42m.11-3.07.75.43c-1,.52-.9-.43-.75-.43m1.38-1.38.21-.21c.37,0-.21.87-.21.21m31-3.39c-2.36,0-.57,2.34.85,2.65A5.66,5.66,0,0,0,54,27.89h-1m-31.91,1.7.85.74a7.14,7.14,0,0,1-1.49-.74.51.51,0,0,1,.64,0M53.8,27.46c0-.17.07-.35.1-.53-.27,0-.68.59-.63.53s.3-.18.53,0m-1-.2A2.48,2.48,0,0,1,54,26c-.77,0-1.6,1-1.17,1.28m10.5-.33c0-.45,1.38-2.85,1.64-1.79s-1.64,2.22-1.64,1.79M41.81,25.14a.83.83,0,0,1,.22-.86c.29,0,0,1.58-.11,1.7a1.36,1.36,0,0,1-.11-.84M12,24.28c-.48,1-1.59,0-1-.66s1,.26,1,.66M70.44,22.8c.14.1.29.22.43.31,0,.36-2.87,1.05-2.87,1,0-.5,2-1.07,2.44-1.27M83,22.69c.23,0,2.86-.79,2.86-.53,0,.61-2.65.76-2.86.53m-43.58-3.5c.44-1.77,1.87,3,0,3-.74,0-.16-2.59,0-3m5.93-2.54.11-.11c.7,0-.67,2-.74,2.12a4.64,4.64,0,0,1,.63-2m30.23-5.52c.09-.11,2.65-2.92,2.65-1.59,0,1-2.65,2.46-2.65,1.59M43.72,1.06a2.61,2.61,0,0,1,.1,1.49c-.62,0-.52-2.2-.52-2.55a3.36,3.36,0,0,1,.42,1.06M50.4,2.34c.14-.32.28-.64.43-1,.58,0-.22,1-.43,1m2-1.39A1.55,1.55,0,0,1,52.73,0c.57,0-.49,1.16-.31,1"/></g></g></svg>