<svg xmlns="http://www.w3.org/2000/svg" viewBox="0 0 87.28 86.96"><defs><style>.cls-1{fill:#e51e25;}</style></defs><g id="Calque_2" data-name="Calque 2"><g id="Vector_Graphics" data-name="Vector Graphics"><path class="cls-1" d="M64.85,85.73c.28.54.48.61.48,1.23-.74-.15-.69-.71-.94-1.23h.46m1.25-1.9c.87-.61,2.41.7,3.3,1.13.53,1.38-3.3.12-3.3-1.13m-42.88-.57a.87.87,0,0,1,.57-.66c0,.25-.13.19-.29.38a2.53,2.53,0,0,1-1,1.13c0-.56.18-.87.75-.85m20.4-5.79c.09-.47.32-.63.75-.47.12.56-.1.83-.66.76,0-.14,0-.26-.09-.29M76.23,76c-.25-.64-.71-.43-.76-1.13.81,0,2.32,1.07.76,1.13M36.7,71.12c.57,2.18-2.1.86-1.24-.86-.6-.15-1-.27-.86-.94.84-.25,1.76.47,1.14.94a6.43,6.43,0,0,0,1,.86m-3.41.76c-.22.2-.17.36-.48.28a.76.76,0,0,1,.48-1c0,.25,0,.51,0,.76m8.71-1c.47,1.51-1.22,1.29-1.7.58-1.36-1.06-3.45-1.69-4.56-3.14v-.56a11,11,0,0,1,4.37,1.37c.62.32,1.14,1.49,1.89,1.75m3.79-.18a1.83,1.83,0,0,1-.57-1.05A1.38,1.38,0,0,1,46,70.83c-.27.07-.13-.17-.2-.18m-2.17-4.27c0,.29,0,.54.28.57.17.93,1,1.51,1.32,2.65-1.26-.8-1.35-3.21-2.55-3.79-.09-.51-.39-.7-.39-1.23.61.42,1,1.33,1.34,1.8M60.87,68c.39-.13,1.42-.66,1.81-.28-.7.1-1.5.78-1.81.28m-29.11-.86v1.05h-.47a3.63,3.63,0,0,1,.47-1.05m20.68-2.55a.91.91,0,0,1,.28,1c.22.19.58,1-.27.69s-1.06-2-1.06-2.77a1,1,0,0,1,1,1m10.05-2c1-2.63,3,4.82,1.37,2.13-.47-.78-.91-1.43-1.37-2.13m4.93,1.71c.36-1.11,1.16-.26,1,.47a.77.77,0,0,1-1-.47M49.68,58.41c1.1-.43,1.33-.26,1.62-1.51.74-.25.9.62,1.32,1,.44,1.18-.44,1.59-.76,2.37h-.18c0,.61.13,2-.44,2.33-.93.65-1-.87-1.46-1.28a3.78,3.78,0,0,1-.1-3M56,61.82v-.65c.47.23.75.15.57.75a5.21,5.21,0,0,0-.57-.1m-15.35-.65.09.65a1.2,1.2,0,0,1-.47-.65h.38m-2-.67c.5,1.48-2.34.83-3.23.86-.86-.45-1.61-.58-1.61-2.09,2-1,2.08,1,4,.76a.94.94,0,0,0,.86.47m6,.09c0-.12-.12-.25-.18-.38a2.15,2.15,0,0,1,1.23,0c-.14.67-.62.38-1.05.38M37.07,20.1a2.32,2.32,0,0,1,1.81-.66A3.29,3.29,0,0,1,38,21.33h.38c0,.13-.54.23-.57.57-.34,0-.54-.39-.47,0,.72.33,1,2.44,2.23,1.43,1-.79.45-.45,1.06.16.37.36.72.27,1.17.5.27-.69.35-2.35.85-2.55-.19,1.15-.52,3,1,3,1.38,0,1.19-.86,2.29-1.23-.51,1-.84,1.95-.15,2.73a4.38,4.38,0,0,0,1,.5c.58,1.41-.07,2.61,1.9,1.61v.48h-.28c.32.56,0,.88-.11,1.51-1.43.88,1.16,1.66,1,2.18-1.54.45-1.45,1.85-2,2.94a6.39,6.39,0,0,1-1.34,2A7.72,7.72,0,0,0,45,38.41a1.88,1.88,0,0,1-.92.88c-1.11.48-.28.62-.65,1.68-1.12-.22-1.6-1.22-2.88-.29s-2.69,0-4,0a20.42,20.42,0,0,1-2.33.07c-.48-.06-1.52-1.26-1.7-.35-1.34,0-1,2.14-.76,2.93-.19-.49-2.1-.88-2.08,0h-.85c.39.39.77,1.33,0,1.62,0,1.2-.26,2,.19,3.13,1.29.22,0,1.1,0,2.08,1.53-.24,2.28.19.85,1.61-.65.56-1.57.67-1.85,1.48s.55,1.27-.48,1.56c-.88.25.22,1.64.58,1.75.92.32.48,1.68-.06,1.85a6.63,6.63,0,0,0-2.94-.57c-.51-.83-1.38.44-1.9.67-1.15,1.19-2.29-.6-3.6-.67v-.18h-.84v.18c-1,0-.72-.47-1.14-.65-.7-.7-1.24-.39-2-.39-.62-.65-3.09-1.28-3.79-.28-.55,0-1.42-.23-2.11-.25-1.13-.05-2.15.25-3.21.25C6.75,56.64,6,55.05,6,55c-.57-.6-.61-.86-1.54-.86C4,54,3.35,54.82,3.4,53.67a9.5,9.5,0,0,1-1-1.33c.9-.48.61-1.5-.18-1.89-1.85.75.23-1.91-1-2.09v-.19c-2.43,0-.06-.58-.19-1.61s-.68-1.14-1-1.9c.3-.24.82-.42,1.19-.66,1-.68-.55-1.68-.2-2s1.48-.25,1.62-1c.31-1.58-.8-1.53-1.1-2.7.68-.48,1.41-.39,1.62.47.6-.3.78-.88,1.13-1.23,1.2,0,1-.38,1-1.42-.22-.32-.6-1.23-.46-1.52.4.79,2.85,3,2.45.57-1.55.4-1.44-.42-1-1.4.26-.55,0-3.44-.54-3.44-1,0-1.35.63-2.44.57a1.41,1.41,0,0,0-.09-.76.58.58,0,0,1-.77-.09h.86v-.19a3.92,3.92,0,0,0,1.7-1c0-1,1.4-1.12,1-2.37,0-1.44-2.23-.45-2.66-1.71a2.79,2.79,0,0,1,1.53,0h.74v.1h.29c.41-.42.61-1,.29-1.33.26-1-.26-.89-.58-1.52-.64-1.31,1-.72,1.71-1.42.33-1,.66-1.53.2-2.47-1-.71,1-1.73,1.5-1.32.36,0,.57,0,.57-.41,0-.73.52-.71.58-1.3.7-.7-1.81-2.83-.1-3.32.26-.93,1.49-.74,2.28-.66a1.11,1.11,0,0,0,.95.66v-.38c.77.77,1.4,1.87,2.58.79.45-.42.17-1.47.54-1.93.87-.12.79.89,1.71,1,.58,0,1.64-1.53,2.37-1.81.84.18,1.46,1.41,2.38,1.52,1.12.24.84-.51,1.23-1,.79-2,1.55-.13.86.57,0,.83.67,1,1.35,1.11,1,.2,1.12-1.09,1.86-.69a4.31,4.31,0,0,1,1,.81c.37,0,.88-.67,1.32-.76,0,1.25-.44,1.36.67,1.9.16-.15.73-.67.94,0,.57,2,.49,1.57,2.37,1.1,0,.42,0,.42-.18.66V15c-.83.35-.47.83.18,1,.21-.25.46-.26.85-.47.26.37-.58,3.29.77,2.37h.85v-.47a1.07,1.07,0,0,1-.29,1.8c-.42.32-.26.85.57.85M69.31,56.61H67.79c-.24.59-1.07.37-1.6.19.86,0,2.18-.56,3.12-.19m-33.37.19-.2-.19C36,56,37,55.78,37,56.61h-.19c-.11.28-.49.29-.85.19m33.46-.28v-.19h.67c0,.28-.36.27-.67.19M74.05,56l-.18-.28c.33.16.57-.1.57.47-.38.11-.29-.15-.39-.19m6.46-2.85h1.23v.29h1.7v.19a10.54,10.54,0,0,0,2.94.83c2.43.31-.85,1.7-.85.88s-5-.52-5-2.19M47,53.19a2,2,0,0,1,1.61,1,1.84,1.84,0,0,1-.18.76A1.65,1.65,0,0,1,47,53.19M2.84,54.43l.29-.19v.47H2.65c.07-.09.12-.19.19-.28m31.76-1c-.51,0-.07-.45.11-.56.25.53,0,.28-.11.56M30,52.06l.38-.19a1.1,1.1,0,0,0,.1.47c-.16,0-.69-.32-.48-.28m4.18-.29c-.47,0-.68,0-.58-.56.19,0,.6-.07.76.1-.07.15-.11.34-.18.46m3.13-1.32c.21-.66,1.92-.17,1.11.52-.56.48-1.47-.08-1.11-.52m-5-1.24v-.57c.07.14.29.77.29.76l-.29-.19m0-.85a.3.3,0,0,1-.19.28c-.09-.32.08-.17.19-.28m6.36-.85c.74-.36,1.92.52.83,1-.85.38-1.45-.51-.83-1M32,48.08c-.14.28-.1.32,0,0M32,47.79a.38.38,0,0,1-.19.29c-.09-.33.08-.18.19-.29m-.28-.67a.42.42,0,0,1-.19.39c-.11-.37.11-.26.19-.39m-.38-.28c-.54-.26-.28-.68-.28-1.13.38.39.29.76.47,1.33-.27.06-.11-.08-.19-.2m-.95-.37c-.47.16-.36.52-.95.37-.24-.9.66-1.53.95-.37M.75,46.56v.19H.19a.36.36,0,0,1,.56-.19M33.94,46a1.47,1.47,0,0,1-1.13-1.33c.4.41,1,.71,1.13,1.33m19.73,0c-.68-1.37.78-1.54,1-.28a2.17,2.17,0,0,1-1,.28m-15-1c-.66,0-.29-1.59,1-.76.78.55-.54,1.46-1,.76m-7.21-.48a.38.38,0,0,1-.19.38c-.11-.37.1-.26.19-.38m12.89-.85c0,.7.51.79-.38,1.23-.33-.53-.49-1.23.38-1.23m-8.72-.85A2.72,2.72,0,0,1,38,44.47c-.73,0-3.39-.68-2.37-1.7m22.57,1.42.29-.09a2.46,2.46,0,0,0-.29.09M46,42.48a1.47,1.47,0,0,1,1.7.29h.66v-.19c.35.08.71.14,1,.19-.12.18-1.52,2.4-1.52.87,0-1.78-1.38.07-1.89-1.16M32.23,43.62a.34.34,0,0,1-.19.29c-.09-.33.08-.19.19-.29M4,33.47l.57,1.14c-.5-.37-1.18-.84-.57-1.14m68.27-2c1.68,0,4.36.57,1.62,1.51-.56.19-2.74.6-3.14,0-.65-1,1.19-1.15,1.52-1.51m-6.63,1c-.81.27-3,.68-3.7,0a4.22,4.22,0,0,0,1-.29c.47,0,.79.33,1,0,.58,0,1.5-.26,1.62.29m-4.46.19a.36.36,0,0,1,.28-.19c.05.29-.1.12-.28.19M38.4,21.33a.36.36,0,0,1,.29-.18c0,.29-.11.12-.29.18m.48-1.89c.2-.2.39-.57.47-.19-.22,0-.29.1-.47.19m.47-.38.57-.29V19l-.57.09M53.47,1c1,.67.91-.27,1.81-.57a1.88,1.88,0,0,1,.09,1.42c1.57-.31,1.34-.35,2,1,.36.37,1.13-.3,1.36.43s1.12.2,1.68.9a.57.57,0,0,0-.39.56h-.29a3.27,3.27,0,0,0,1.71,3c.23.66-.16.86-.47,1.32-.66,1,0,.65.47,1.62-1.42.4-.76,1.07-.76,2.09.06.69.09,1.75-.56,1.42-.76-.15-1.84.84-1.42,1.33,0,1.1-1.33.46-1.33,1.69a2.1,2.1,0,0,1-.77-.27c-1.11,0-3.16,2.18-3.69,1.61h-.19c.07-.16.13-.32.19-.48-.4-.47-1.08-.26-1.23-.28s-.56.29-.64.33c-1.1.49-.27-.72-1-1s-2.66.42-2.66-1S46.2,15,45.32,15c.09-.24.59-2.62-.42-1.66-.41.46-.13-1.72-.1-1.69a4.58,4.58,0,0,1-1.09-2.16c.73-.32.38-1.18.28-1.89h.2V7.3c.3-.26.35-.94.57-1.33,0-.26,0-.46-.29-.47V4.93h.18V4.74a1.76,1.76,0,0,0,1.9-2.18c.88,0,.82.47,1.33-.35.6-1,.24-.6.86-.7V1.33c.73-.11.88-.94,1.63-.74s.46.36.93.46c1,0,1.54.13,1.71-1,.54.05.66.29.46,1M12.89,11.29c.33-.34.34-.17.29.09a.42.42,0,0,0-.29-.09M19.34,5.5v.57c-.74-.14-.81-.55,0-.57M60.68,3.7a1.8,1.8,0,0,0,.76-.29V3.7a1.09,1.09,0,0,1-.76,0"/></g></g></svg>