<svg xmlns="http://www.w3.org/2000/svg" viewBox="0 0 39.46 61.66"><defs><style>.cls-1{fill:#e51e25;}</style></defs><g id="Calque_2" data-name="Calque 2"><g id="Vector_Graphics" data-name="Vector Graphics"><path class="cls-1" d="M23.73,60.92c.45.45-.6,1.14-1,.45s1-1.17,1-.45m-11-8.4c.38,0,.43.74,0,.74-.25-.12-.42-.74,0-.74m3-2.47c0,.4-.56.82-.82,1-.7.56-.73,0-1.49,0-1.37,0-.85-1.62-1.27-2.35.58-.15,1.62-1.28,2.23-.67.4.39,1.64,1.4,1.35,2m-1-4.45c.25.16.25.33,0,.5-.29,0-.37-.5,0-.5m15.83-5.87c-.48.47-1.4.67-1.73,1.23-1.11-.73-2.19-.42-2.64-2.12-.19-.73-.44-1.65.25-2.2a.85.85,0,0,0,.41-.87,1.24,1.24,0,0,0,1.08,0,2,2,0,0,1,2.13,0c1.5.66,1.28,2.83.5,3.93M.43,37.93c.11.11.23.56-.07.56-.59,0-.38-1,.07-.56M7.9,37c.58.32.78,1.05-.12,1.05-.52,0-.43-1.05.12-1.05m7.61-.25c.2.17.16.31-.13.43s-.38-.43.13-.43m7.54-3.65c1.09,2.7-2.87,5.24-4.12,2.42-.59-1.38-.81-2,.41-3,1.38-1.15,2.43-.38,3.71.55m2.78,1.74c-.73,0-.21-1.18-.93-1.18.84-1.17,1.1-2.29,2.78-1.45.41.2.88.46.77,1-.14.72-.22.56,0,1.08,0,.24-1,.69-1.09.77-.65.46-1.05.43-1.56-.21M6.48,32.56c.35.34-.46.85-.69.42s.4-1,.69-.42m12.05-3.4c.34,0-.08.33-.12.37-.29-.27,0-.27.12-.37m2.91-1.42c.38,0-.25.78-.25.06a.32.32,0,0,0,.25-.06m9.21-5.57c.73-1-.55-2-1-2.68-.79-1.09.21-2.29,1-2.92,1.32-1-.3-1.23-.3-2.43A3.42,3.42,0,0,1,32,11.25a4.39,4.39,0,0,1,1.89-.88.59.59,0,0,1,.77.37c.19.45.63.19.93.31a1.55,1.55,0,0,1,1,.63c.7.73.45.66.45,1.47,0,.46.49.59.49,1.12s-.72,1.39-1.1,1.9c-.58.77-.35.67-.25,1.51s.2,1.6,1,1.94a7.5,7.5,0,0,1,2,.89c.93.75-1,2.44-1.4,2.86s-1.19.84-1.32,1.27c-.19.66-.28,1.37-1.08,1.37-.47,0-.83-.31-1.3-.31s-.82.74-1.3.74c-.44-.2,0-.56-.2-.92s-.89-.57-1.21-.84a7.93,7.93,0,0,1-.75-2.51m-6.68,3c-.56,1.49-2.31,1.31-3.06.11-.15-.24-.56-2-.15-2-.54,0-1.91-1.91-1.3-2.37.34-.26,0-.64.12-1,.21-.69.5-.87.5-1.61a4.84,4.84,0,0,1,1.34-3.36c.76-.73.74-.88,1.75-.62,1.3.34,1.43,2.08,2.66,2.31.58-1.45,2.33-.45,1.57.74-.55.89.43,1.53.08,2.47,0,0-.84,1.43-.48,1.43.1.14.93.16.93.37s-1.31,0-1.55.13a5.16,5.16,0,0,0-1.4,1.1c-.48.54-.37-.4-.88.62A3.81,3.81,0,0,0,24,25.14m.13.13q.11-.14.18,0t-.18,0M19,22.67c.8.81-1.21,0,0,0M5.31,18.47c.22.21.12.49-.19.49-.5,0-.12-.81.19-.49m28.24-.81c0,1.17,1.05.57,1.05-.18a2.73,2.73,0,0,0-1.05.18M18.35,15c.27.28-.15.76-.37.49s.08-.77.37-.49m6.49-2.84c0-.88,1.81-.73,2.1-1.6.55.55,1.17.6,1.64,1.54A2.16,2.16,0,0,1,28.35,14a8.22,8.22,0,0,1-1.16,1.24,3.32,3.32,0,0,1-1.94-1,8.92,8.92,0,0,1-.41-2.08M22.92,13.9c-.38-.19,0-.59.3-.38s-.14.38-.3.38M26.26,2.15c.77.45.36,1.45-.5,1.11s-.07-1.11.5-1.11M23.91.3c1.65,1.48-.66,3.76-1.64,2.16C21.45,1.12,22.9-.73,23.91.3m4.95.31c.23,0,.22,1-.25.43,0-.25-.24-.19.25-.43"/></g></g></svg>