<svg xmlns="http://www.w3.org/2000/svg" viewBox="0 0 47.47 61.66"><defs><style>.cls-1{fill:#e51e25;}</style></defs><g id="Calque_2" data-name="Calque 2"><g id="Vector_Graphics" data-name="Vector Graphics"><path class="cls-1" d="M34.37,61c.29-1.44,1.2.3.24.69a6.28,6.28,0,0,0-.24-.69M9.1,60.68c0,.37-.46.26-.46-.11a2.37,2.37,0,0,1,.46.11M.83,56.6l.23-.16c-.35,0,.3.23.23.16s-.57.54-.57.18l.11-.18M39.09,51a1.3,1.3,0,0,1,2.1-1c.47.43.36,1.1.36,1.56s-.84.73-1,.86c-.25,0-2.32-1-1.43-1.43M4.39,44.54c-.34.35-1.31,0-1.81.32a3.62,3.62,0,0,1-2.06.23c-1.3-.07.15-1.88,1-1.41.39-.21,1.17,0,1.55.18,0,0,2.51.21,1.32.68M23,43.45c.42.13.64,1,.12,1.09,0-.37-.12-.72-.12-1.09m2.36-2.87c.89,0,1.26-.51,2.12.15a1.61,1.61,0,0,1,.4,2,1.65,1.65,0,0,1-1.55,1.1c-.6,0-1.21-.58-1.43-.58-.1-.51-.9-2.7.46-2.7M9.56,36.16c.3.5.39.8.87.8-.12.81-1.74,1.95-2.24.83s.34-1.63,1.37-1.63M30.7.32c.33-1,3.62.45,2.5,2.42-.47.8-1.19,2.57.57,2.19.75-.16.55-1.43.49-2L34.2,3c0-.46-.36-.91-.05-1.37.78.2.74,1.27.66,1.89A3,3,0,0,0,35.24,5a.93.93,0,0,1-.35-.23c0,.76,1.11.92,1.67.92,1,0,.42-1.16,1.2-1.55.36.35-.09,1-.18,1.36-.3,1.14.75.13.93.13.75,0-.2,1.32.75,1.32.41,0,.48-.4,1-.4-.28.87-.17,1.39.77,1.79,1.09.45,1-.48,2-.7a2.23,2.23,0,0,1-.89,1.27c-.19.12-.47.54,0,.6s.55-.32,1-.32c.68,0-.52.92-.52,1.27s.35.49.65.53c.68.12.47.39,1.09.66.09,0,2.11,1,1,1.13-.83.1-1.95.28-1.23,1.46.31.53.86,1.09.86,1.73,0,.22-.73.44-.86.57-.62.62.35.54.35.87s-.55.05-.64.05-.31.77-.34.86c-2.1-.67-2.44,2.45-.23,1.56,0,1,1.43.81,1.21,2,.77-.4.46.91.22.94-.64.09,0,.83-.26,1.13s-.87.13-.48.91a2.07,2.07,0,0,0-1.35.55c-1,.7-.41-.32-1.18-.32-1.69,0-1.72-3.1-2.52-3.1-.41,0-.59.75-1.21.75a3.66,3.66,0,0,0-1.55.44c-.09.05-2.36,2.07-2.36,2.09,0,.95-.1,2.05,1.06,2.55.43.18.36,1-.25.72s-.67-1-.84-1.38c-.24-.58-1.05-1.05-.79-1.82.18-.54.61-.79,0-1.14a3.72,3.72,0,0,0-1.36-.54c-1.09.15-1.26,1.66-1.26,2.52-.93,0,.62-1.94-.23-2.61-1.18-.92-1.79,1.23-2.3.72a1.84,1.84,0,0,0,.4-.86c0-.24-.43-.35-.49-.09-.11.54-.4,1.08-.89.6,0-.68,1.44-1.22.37-1.58-.58-.19-1.41,1-1.69.65-.51-.64.86-.64.86-1,0-.55-1.5-.17-1.72-.17-.81,0-2.63-.85-2.53.52-.16.48.73,1,.75,1,.27.89,1.53,1.78,2.3,2.24a3.89,3.89,0,0,0,1.16,3c.29.29,0,1-.25,1.19-.65.6-.06,1.07-.06,1.7s-.73.5-1,.83-.22.85-.46.95a5.6,5.6,0,0,1,.18,1.06c0-.35-1.84-.29-1.84.6,0,.29.47.68.05.89s-.55,0-.83-.17c-1-.72-1.09.51-1.89.35-.55-.11-1,.51-1.53.23a5.45,5.45,0,0,0-2.41-.78c-.31,0-1.38,1-1.38.17s.06-.52-.49-1S13,33.75,12.78,33c-.19-.59-1-1.34-1-1.9,0-1.11-1.28-2.73-.4-3.79.64-.78.63-1.84,1.28-2.6.48-.57,1.41-1.76.59-2.43-.55-.45-.54-2.56-.3-3.05.11-.23,0-.48,0-.71.21-.33.81-.88.81-1.27,0,.13-1.33.48-1.33-.23s1.14-1.32,1.38-.34a7.49,7.49,0,0,0,1.3-.41c.35-.2.08-.39.08-.63.78-.77.69.48,1.32-.06a3.19,3.19,0,0,0,.81-1.2c.17-.42-.15-.85.05-1.23.3-.55,1-.36,1-1.16s.82-.12,1.08-.52a2.28,2.28,0,0,1,2.45-.88,16.2,16.2,0,0,1,1.84-.15s.88-.19,1-.24c.66-.4-2.05-1.4-2.05-1.79.38,0,.93.43,1,.29.65,0,1.11,1,1.91.62.32-.15.49-1.13.45-1,0-.54,1-.48,1-1.32a3.6,3.6,0,0,1-.87,0c-.65-.15-.61-.8-1.08-1.12.29-1,.56-1.26,1.44-1.26a1.3,1.3,0,0,1,1.12,1.53c-.46,1.43,1.83-.5,1.06-.5.08,0-.4.23-.4.07s.25-.31.4-.12c0-1.58,1,.36,1.64-.23.43-.37,0-.91.2-1.33s.75.79.88.92c.51.48,1.26-1.6-.56-1.6-.26,0-.95-1-.95-1.27,0-.92.71-1.08.86-1.83M7.27,31.68c0,.5-.38,2.12-.92,2.29.25-1.34.45-3.78,1.66-4.65-.06.36-.25,2.36-.74,2.36M39,24c2.86,1.15.35,6.14-2.73,4a2.42,2.42,0,0,1-.61-3.21c.67-1.24,2.19-1.23,3.34-.78M42,27.89c0-.78.76-1.33,1.09-.37a.65.65,0,0,1-.63.94c-.44,0-.14-.57-.46-.57M32,28c-.69,0,.11-2.56.29-2.82l-.12,1.67h.12C32.25,27,32.17,28,32,28m-20.1-4.14c.08.16.14.34-.17.34a.53.53,0,0,0-.17-.34c1.57,0,0-.2.34,0m4.65-12.58c0,1-1,0,0,0m31-3.62c-1.09,0,0-1.08,0,0"/></g></g></svg>