<svg xmlns="http://www.w3.org/2000/svg" viewBox="0 0 39.68 67"><defs><style>.cls-1{fill:#CD270F;}</style></defs><g id="Calque_2" data-name="Calque 2"><g id="Vector_Graphics" data-name="Vector Graphics"><path class="cls-1" d="M7.4,47.7v-.09h.37v.09c.22.1.6.39.6.72s1.14.29,1.15-.16c.28-.13.39-.55.74-.56v-.09c.73-.14.62.72,1.25.93s1.36-1.16,2-.19a1.32,1.32,0,0,0,1.43.79V49a1.41,1.41,0,0,1,1,.37v.88c.58.37,1.11.49,1.48,1h.42c.16.25.88.11.55.69h.09v.46a.49.49,0,0,0-.09.75.8.8,0,0,1,.19.5c.45.48,2.16.87,1.06,1.71-.5-.08-.45.66-.27.83v.24h.08a.38.38,0,0,0,.47.27c1,.67.16.91-.47,1.44v.74c-.16.12-.07.43-.27.55v.19H19c0,.12.19.29.29.32v.18h.08c0,.64.83.54,0,1.16a1.88,1.88,0,0,0-1,.12c-.68.37-.11.87-.11,1.31,0,1-1.24.13-1.57.69a4.28,4.28,0,0,0-.33,1.25c-.07.33-.37.54-.51.79h-1v.09a1.57,1.57,0,0,1-.6.19v.09c-.39.33-1.25,1.54-1.71.69v-.18h-.1V66.2A2.23,2.23,0,0,0,11,65.92c-.41,0-1.44.49-1.47.83-.66,0-.93.59-1.39-.09-.42-.18-1.29-1.07-1.85-1-.28-.26,1.08.51-.35-.21-.4-.2-.33-.67-.67-.89s-.91.15-1.47-.11-.15-1.36-.6-1.82a1.44,1.44,0,0,0-.79-.39v-.09H2.17c-.4-.11-.42-.5-.69-.74v-.18H1.39c.07-.27.17-.83,0-1v-.19h-.1c.16-.54-.53-1-.92-1.25v-.18H.28V58.2H.37c.1-.5,1.07-.77.74-1.44-.1-.34-.68-.4-.53-1,.11-.39,1.73-1.3.9-1.88-.06-.38-.37-1.58.51-1.34v-.1h.28A7,7,0,0,0,3.42,50.2L4,49.69h.65V49.6h.14v-.09h.46v-.1a.87.87,0,0,0,.83-.09v-.09h.19v-.09c.82-.07.47-1.35,1.16-1.44m13-13.82c.1-.09.16-.29.23-.09.4,0,.65.43,1.11.51s1.1-.15,1.25.46c.21.17.39.21.59,0,.41-.4,1-.1,1.49.18a2.07,2.07,0,0,1,.18.37,1,1,0,0,0,1.25-.1h.19v-.09h.18V35H27V35h.37c0-.14.19-.19.37-.19v.09H28c.15.16.62.28.78.47l1.34-.19a8,8,0,0,1,.55.8c.37.48,1.26.47,1.72.82.15.26.14.52.36.74s.57.46.69.82a3.81,3.81,0,0,1,.1,1.12c.17.42.7.5.7,1,0,.27-.31.68-.42,1H33.7v.37h-.09c.09.29.3,1,.18,1.15a1.84,1.84,0,0,1-.18.56h-.1v.18h-.09c0,.46-.49.81-.6,1.25-.36.44-1.12.75-1.34,1.25h-.27l-.38.28c-.47.1-.58.74-1.15.6-.24.39-1-.22-1.37.19-.74.74-1.45-.53-2.15-.42v-.1H26v-.09H25.7v-.09l-.6.09a5.63,5.63,0,0,0-1.27-.92c-.54,0-.74-1.16-1.37-1.34-.27.28-.78.34-1.15.53-.67.33-.7-.33-1.25-.44-.64.64-1.35-.22-1.9-.46s-1.52-.58-1.64-1.19-1.9-1.7-1.13-2.47c0-.23-.14-.45-.09-.74h-.19v-.18c-.87-.14,1.39-1.6.56-2.22l.09-.18a.46.46,0,0,1-.18-.37c.33-.08.36-.37.6-.46.5-.5,1.42-2.1,2.26-1.9v.09a4.09,4.09,0,0,0,1.34-.14,1,1,0,0,1,.65-.37M16.27,28.1c.34.41.75.46.82,1s-.31.71-.54,1c-.65-.19-.55.29-.55.74-.32.31,0,.74,0,1.16,0,.22-.29.54-.37.79h-.09v.18h-.09v.28h-.1v.55H15.3a6.26,6.26,0,0,1-1.43,1.62c-.21,0-.36.37-.56.37a3.45,3.45,0,0,0-1.24.33h-.28a2.44,2.44,0,0,1-1.62.09H9.71V36.2C9.38,36,9,36,8.65,35.87v-.09H8.37v-.1H8.19v-.09H7.91c-.21-.29-.58-.91-.88-1v-.19H6.84a9.06,9.06,0,0,1-1.12-2.22c-.09-.44.32-.82.42-1.24s-.07-.64-.18-1H5.87c0-.55.81-.73,1.07-1.07v-.27H7v-.1H6.94c.1-.25-.06-.69.27-.79a3.31,3.31,0,0,1,.7.06,14.53,14.53,0,0,1,.92-1.16c.37.18,1.2.4,1.43.09.26,0,.27-.16.51-.35s1.14.52,1.65.57c.33,0,.65,0,1,0,.11.16.43.74.64.74s.9.73,1,1.06c.11,0,.47-.18.47-.32s.67-.21.78-.24M33.7,26.35c.87-.44,2.48,1.17,1.71,1.61v.42c-1.68,1.91-3.85-.7-1.71-2M18.91,23.44c0-.46,1.63-.49,1.75-.19h.19a.38.38,0,0,0,.36.37c0,.38.8.88.47,1.2v.7h-.1v.18a4.77,4.77,0,0,0-.83.79h-.17c-.19.55-1.53.2-1.67-.14a.63.63,0,0,1-.37-.19c0-.52-.54-1-.46-1.43s.39-1.23.83-1.29m18.85.92c.17-.08.44-.23.52-.28h.09v.09c.59-.16.84.78.5,1.12s-.06.27-.44.27c-.82,0-.88-.47-.67-1.2M10.63,18a9.59,9.59,0,0,1-.18,1v.46h-.09v.19h-.1a2.41,2.41,0,0,1-1.61,1.71v.09H8.46v.1H8.09a.62.62,0,0,1-.88,0,6.35,6.35,0,0,0-.87.05c-.52.06-.31-.43-.65-.43s-.57-.49-.83-.55C4.58,20,3.8,19,4,18.49v-.23h.1v-.19h.09V17c.64-.3,1-1.57,1.61-1.75a1,1,0,0,0,.8-.19v-.09h.18v-.09c.55,0,1,.18,1.62.18v.1c.62-.12.55.59.92.59.85,0,1,1.91,1.34,2.27M2,19.14c-.16.25-.29.42-.51.46a2.3,2.3,0,0,1-.74,0c-.25-.25-.44-.78-.74-.93.2-.47.41-1.42,1.11-1.24v-.1c.37.11.84.13.88.56.37.16.28.6.28,1L2,19.14m30.83-6.38a1.29,1.29,0,0,1,1.06.09V13h.47c.22.3.69.16.87.64v.14c.61.56.83.64.83,1.62h.1c-.2.38.14.85-.19,1.41-.23.39-.92,1.5-1.47,1.5a3.86,3.86,0,0,0-1,.19c-.53.11-.79-.5-1.2-.28h-.55c-.36-.84-1.19-1.15-1.09-2.22.07-.58-.2-.26-.2-.65s.36-.63.41-1c.23-.21,0,1.15.16-.44,0-.38.25-.12.39-.25s.86-.56,1-.74c.19.05.4,0,.46-.09M21.21,6.47c.36,0,.74-.27,1-.09h.27l.38.28h.55v-.1c.24.09.47,0,.6.19h.74v.09H25v.09h.18V7h.33v.09h.18a9.34,9.34,0,0,0,1.24.68,11.65,11.65,0,0,1,1.78,1.94c.49.54,1.58,2.36.86,3a1.62,1.62,0,0,1-.18.55h-.09v.19a.53.53,0,0,1-.37.23c-.05.45-1,.81-1.25,1H27.5v.09h-.28a.78.78,0,0,1-.69.09l-.18.09v-.09H25.7V15h-.51v.1h-.27v.09h-.19c-.38.35-1.61,0-2.17,0-.5.47-1.61.07-2.13-.09V15h-.27c-.13-.2-.44-.1-.56-.27h-.19v-.1a1.76,1.76,0,0,1-1.15-.92h-.1a1.55,1.55,0,0,0-.36-.6v-.28h-.1v-.18a3.49,3.49,0,0,1-.41-2.08v-.7a12.38,12.38,0,0,1,.51-1.15c.08-.28.1-.38.18-.65h.1V7.81a2.83,2.83,0,0,1,1.61-.69V7c.27-.38.92-1.14,1.52-.56M13,5c.57.14,1.42,1.13.83,1.61v.19C12.66,8.6,10.49,5,13,5M25.61,1.71a1.65,1.65,0,0,1,.28,1.34v.74a4.87,4.87,0,0,1-.37.6A3.8,3.8,0,0,1,25,5h-.37V5h-.18v.09H23.9c-.44.67-1.95-.72-2.13-1.06-.15-.61-.47-1.84.19-2.17A2,2,0,0,1,24.25.8c.8.08.82.64,1.36.91M6.94,4.3c-.21.21-.74,0-.79-.23-.52,0-.28-1.68.79-1.41.82.21.47,1.35,0,1.64M38.65,0c.21,0,.25.14.46,0,.43.38.71.71.5,1.25,0,1-1.66.82-1.66-.09h-.09A1.2,1.2,0,0,1,38.65,0"/></g></g></svg>