<svg xmlns="http://www.w3.org/2000/svg" viewBox="0 0 50.14 76.06"><defs><style>.cls-1{fill:#e51e25;}</style></defs><g id="Calque_2" data-name="Calque 2"><g id="Vector_Graphics" data-name="Vector Graphics"><path class="cls-1" d="M49,31.23c-.55-.56-.78-1.88.45-1.64s.77,1.64-.45,1.64M40.17,8.41h-.05c0-.35.16-.89.43-1,.52-.79,1.55-.25,2.09.32.26,2.14-2.58,2.32-2.47.65M27.32,19.77c0-.24-.11-.4,0-.64s.66-.31.66-.07c0,.78,1.18.14,1.39.09.55-.14.41-.54.38-1,0-.14-1.32-1.37-.56-1.37.51,0,.76,1.12,1.25,1.39a1.24,1.24,0,0,0,1.08.16c.17-.12.23-.9.26-1.07.32.1.56,0,.59.37h.11c0,.25,0,.4.21.54.8,0,.45-.81,1-1v-.11c.44.06.4.64.38,1,.27.43.62.14.75.27a5.82,5.82,0,0,1,1.06-.16c.76-.08.81.75,1.35.74.46,1.23,1.45.28,1.76,1.4v.05l-.05-.05c-.1.35,0,.64.32.64.16.1.63.16.65.46,0,.48-.07,1,.58.88.56.66,1.66.17,1.66,1.66,0,.44-.46.69-.59.91-.29.29-.1.82-.37,1a1.53,1.53,0,0,0-.32.65h-.11c-.07.61.73,1.27.11,1.66v.11c-.75.19-.4,1.46-.7,1.92s-1.1.63-1.13,1c-.08,1.1-1.09,1.58-1.76,2.24s-.76.95-1.77.75v.11c-.33.07-.38.27-.62.42s-.12.54-.31.73c-.34.34-.78-.45-1-.61-.45-.32-.78.63-1.33-.12A2.17,2.17,0,0,1,32,34a2.25,2.25,0,0,1-2.3-.7c0-.32-.19-1.68-.91-1,1.53.32.45,2.59-.62,1.95-.41-.24-.88-.29-.88-.88,0-.85.71-1,1.18-1.34-.49-.63.07-1-.95-1-.44,0-.2-1-.26-1.35-.09-.58-1.3-.89-1-1.28.35-.54,0-1.22-.32-1.66s-.48-.45-.48-.86c.28-.29.54-.43.59-.75-.17-.15-.15-.59-.32-.8a3.26,3.26,0,0,0-.17-1.72c.32,0,1.16.27,1-.37-.38-.2-.7-.47-.65-.85.51-.61.84.63,1.34-.38.21-.34.39-1.06.06-1.28m7.44,18.42c.44.86,0,1.52-.43,2.14a4.23,4.23,0,0,1-.37.59,1.7,1.7,0,0,0-.32.1l-.06.38c-.37,0-.65.68-1.23.65-.15.21-.54.26-.7.48H30.58c-.32-.26-1,0-1.37-.38-.54-.5-1.42-.25-1.41-1.29-.3-.08-.38-.41-.38-.74-.4-.27-.26-.88-.26-1.39A8.14,8.14,0,0,0,27.69,37,5,5,0,0,1,29,35.88c.63-.62,1.5-.46,2.25-.64a3.18,3.18,0,0,1,2.22.7,9.89,9.89,0,0,1,1,1c.41.35.29.66.29,1.27M31.55,53.67a.43.43,0,0,1,.32-.16.7.7,0,0,1-.32.37v-.21m-.27.42c.1-.1.1-.2.27-.21.14.34-.25.54-.48.75,0-.09.05-.21.1-.32l-.37-.05c.15-.15.23-.23.48-.17m-.32.54c.15.15.09.13-.05.1a.07.07,0,0,0,.05-.1M29.41,16.12a.37.37,0,0,1,.32-.21v.32l-.32-.11M29.35.48A.86.86,0,0,1,29,1c.12-.43.18-.92.64-1,.07.27,0,.36-.27.48m-.48,41.78H29a2.16,2.16,0,0,0-.05.27h-.11v-.27M0,49.06c0-.87.74.2.91-.58.12-.06,1-.52,1-.33,0,.44.73-.18.69-.16.26.55,1.41,1.65.65,2.41.49.21,1.69,1.05,2.14.59.53,0,.88-.92,1.34-1.23A8.7,8.7,0,0,0,8,49c.26-.37.34-.89.64-1.24a2,2,0,0,0,.7-.1v-.27l-.54.1c-.07-.23-.11-.36,0-.53,1,.3.92-.37.92-1.25,0-1.1,1.6-1,1.6-2.05,0-.2.17-.35.32-.51,0-.47-.22-.6-.42-1-1-1,.16-2,.16-2.89,0-.4-1.2-1.11-1.34-.91a1.73,1.73,0,0,0-.81.64H9.05c.1-.3,1.33-1.06,1.15-1.39s.19-.42,0-.77-.23-.62.07-.73V36c.71-.44.46-1.09.11-1.71-.28-.84-.91-.52-1.29-1.07-.06-.15-.09-.64.11-.64.4,0-.13-.67-.19-.71-.42-.3-.83-.5-.83-1,0-.3,1-.28,1.07-.72-.47-.2-1.39-.4-1.39-1.07a6.82,6.82,0,0,0-.16-.83c0-.28-.37-.29-.38-.61-1.06-.58,1.32-2.41-.1-2.95.11-.27.86-.69.61-1-.45-.6.7-1.34.08-1.82-.4.13-.61,0-1-.14-.56-.18,0-.61,0-.77.12-.45.34-1-.08-1.42s-.19-.85-.19-1.31c0-1-1.5-.81-2.25-.81v-.1H4.23c.38-.42,1.64,0,2.16.12,1.3.3.82-.84.75-1.54a4.48,4.48,0,0,1,1.27-2.06c.15-.09.51-.31.45-.54-.12-.49.25-.66.25-1,0,.15.91-.38,1-.38s.21-.41.45-.45a4.08,4.08,0,0,1,.85-.23c.23,0,.38-.13.46-.42.74-.72.18-.23.78-.23s.61-.31,1-.35a16.54,16.54,0,0,1,1.8.07c-.08,0-.08-.06,0-.05.56.38,1.55.16,2.24.26s1.21.39,1.93.49a2.42,2.42,0,0,1,.22-1.23H20V10h.11l-.11.21c.5.24.49-.14.49-.58h-.27c.3-.58.63-.55.75-1.35a1.78,1.78,0,0,1,.91-1c.2.21.76.5.37.81a12.49,12.49,0,0,0-.43,1.23c0,.57-1.06,1.76-.86,2.18.11.24.72.59.86.77a3.59,3.59,0,0,1,.49.8c.55.56,0,2.17.86,2.53s.68-1.33,1.17-1.84c.05-.16.06-.22.11-.37.26-.21,1.9-1.49,1.69-.21-.07.38-.57.53-.78.8-.25.67-.78,1.15-1,1.77.44.5,1.31,0,1.67-.22.65,0,1.14-1,1.71-.21v.37h-.11a1.15,1.15,0,0,1-.27.54c-.41.08-.87.75-1.23.26a.94.94,0,0,0-1,.33c-.05.15-.06.21-.11.37A2.25,2.25,0,0,0,24.68,19c.05.31.05,2.41,0,2.41.23,0,.12.66.13.64a3.24,3.24,0,0,1-.8,1.55,1,1,0,0,1-.16.81c-.5.18-.93,1.21-1.29,1.12-.61,0-.46.69-.84.71a5,5,0,0,0-1.16.08c-.54.18,0,1.67-.78,2.08-.22.11-.45-.22-.66,0s-.08.64-.2.64-.24.41-.26.43-1.13.46-.27.63c.31-.56,1.3-1.07,1.5-.1l-.7.7c-.86.86-.43,1.52-.33,2.62a9.35,9.35,0,0,1-.07,2c0,.33-.56.91-.56,1.07,0,.46-1.08.63-1.24,1s-.56.32,0,.58a2.27,2.27,0,0,1,.75.58.66.66,0,0,1-.21.75.61.61,0,0,1-.75-.65c-.11-.12-.17-.46-.26-.58,0-.87-.74-.09-1,0-1.14.29.19,1.43.39,1.91a2.57,2.57,0,0,1,.09,1.27c.17.45-.79,1.42-1,1.83h-.11c0,.36.27.49.27.83s-.16.72-.16,1,0,.54,0,.8h-.11c0,.17.21.14.27.27a1.74,1.74,0,0,1,1,1A12.44,12.44,0,0,0,18,48.64c.79.77,1.5,1.26,1.5,2.67a.37.37,0,0,0,.26.37c.06.26-.14.08.27.28s.07.39.35.58.14.35.19.48h.11c0,.46.22,1.27-.33,1.56-.32.53-.08,1.59-.27,2.3-1-.39.11-1.35-.32-1.71v-.05c-.28,0-.79,2.88-.9,3.05H19c0,.13-.09.22-.21.21V57.31c-.4.4-.43,0-.74.61s-.13.17-.23.46a6.5,6.5,0,0,1-1.23,1,5.26,5.26,0,0,1-2.14,1.19c-.2.24-.76.24-.86.32-1.12-.3-1.34,2-1.34,2.67-.41-.41-.3-1.65-1.23-1.17-.44.16-.82,1.23-1.44.85a2.17,2.17,0,0,0-.81-.16v.11c-.43.07-.7.41-1.23.54A11.67,11.67,0,0,0,5.36,63H5.3l.06.05c-.38.16-.51.37-.91.38,0,.08,0,.11-.11.1v-.1a3.1,3.1,0,0,1-1.47-1.64,7.47,7.47,0,0,1-.38-1.2c-.06-.43,0-1.14-.19-1.39V59h.11v-.11c-.05-.07-.21-.3-.27-.37a3.13,3.13,0,0,1-.32-2.2c.19-.41.66-.52.83-1,.31-.92-.52-.74-1-1-1.49,0,.81-1.62.81-.48,0,.61,1.4-.68,1.53-.81.38-.34,1.6-.8,1-1.28s-1.24-.66-1.64-1c-.11,0-.8.64-.8.58,0,.31-1.28.06-1.34.06-.52-.27-.77-1-1-1.34,0-.55.34-.59-.22-.86M27.64,34.49h-.22c.08-.17,0-.23.22-.32,0,.2,0,.17,0,.32m-.91,10.39c.62,1.21-1.07,0,0,0m-.16-24.05c.2.2,0,0,0,0M23.62,9.21a.32.32,0,0,0-.05.27.3.3,0,0,0-.16,0A13.13,13.13,0,0,0,24,7.63c0-.29.42-.63.48-.94.05-.07.22-.35.26-.42a3.58,3.58,0,0,1,.57-1.5c.88-.35-.1,1.08-.19,1.38a3.66,3.66,0,0,0-.46,1c-.1.39.43,0,.52-.14a3.57,3.57,0,0,1,1.39-1.31c.23.48-.27.56-.48.91,0,.21.31.64-.22.64s-.5-.07-.86.16-.57.78-.85,1.18a7.55,7.55,0,0,1-.54.59m2.09-1a.5.5,0,0,0-.21.43c.7-.08.05.82.05,1.12s.65.68.27,1c-.07.54-.39,2.15-1.24,2v-.1h-.21c.12-.67.65-1,.75-1.71-.48-.32-.84-.22-1,.37a.63.63,0,0,1-.11-.59c.21-.28.19-.56.37-.91.12,0,.54-.51.54-.64a5.44,5.44,0,0,1,.43-1A7.87,7.87,0,0,1,26,7.28h.21c0,.31-.33.7-.48.91M25,45.63a1,1,0,0,1,.86-.43c0,.46-1,.61-1.34.7l.16-.11a.8.8,0,0,0-.48-.1l.8-.06m-.8-20.57h.21v.22c-.19,0-.26,0-.21-.22m-.54,1.45c.2.6-.81,1.31-1.12.54a1.11,1.11,0,0,1,1.12-.54M23.41,9.8c-.16-.15-.06-.13,0,0m-1.72,23c.09.14.42.45.49.54a.74.74,0,0,1-.42.79c-.74.29-.09,1.27-.93,1.52a.66.66,0,0,1-.9-.38c-1-.17.25-1.26.64-1.44-.07-.1-.09-.28-.16-.38.49-.08.65-.55,1.28-.65M20.62,72.36,21,72c0,.35-.22.26-.38.32M20,1.72a.78.78,0,0,1,.16-.87C20.66-.38,21.31,2,20,1.72m.64,70.8v.16h-.1a.16.16,0,0,1,.1-.16m-1.93-29c.41-1,1.52-.55,1.34.22a.68.68,0,1,1-1.34-.22m1-9.53c-.19,0-.26-.08-.22-.27a.48.48,0,0,1,.49.11c-.12.06-.22.05-.27.16M16.61,46.64c0-.7.09-1.12.9-1.17.49,0,.47,0,.76.37,1.28,1.22-1.79,2.33-1.66.8m-1.93-41V4.55c.15-.22.09-1.12.48-1.29.19.2.43.51.27.7a3,3,0,0,1,.11,1.39c-.32.24,0,.86-.7.8a.69.69,0,0,1-.16-.47m0,.59c-.07-.14-.06-.2.1-.16,0,0-.07.1-.1.16M13.39,64c.82-.41,1.8.89,1.12,1.28a3.71,3.71,0,0,0-.29,2c.06.27-.66,1.08-.83,1.26a6.81,6.81,0,0,1-2.62.75c-.33-.26-.87-.26-1.07-.64-.87-.24-.64-1.41-1-1.82a3.3,3.3,0,0,1,1.39-2.58c.29-.12,1.36-.55,1.55-.42l.11-.06a.38.38,0,0,0,.48.06c.17.17,1,.44,1.18.21M12.26,10.17h-.1V9.91h.16c0,.13-.05.62-.06.26m-.9-3.1c-.15-.15-.1-.77.16-.59.17.34.18.85-.16.59M10,8.73a2.71,2.71,0,0,1,.1-2.62c.31-.51.71-.26.65.21h-.06V7.44c-.25.28-.09,1.29-.69,1.29m.75-6.16c-.11-.11-.08-.21,0,0M7.77,72c.55,1.09-1.63,1.53-1.9.42-.2-.77.43-1.12,1.2-1.22v.1a.78.78,0,0,1,.64.32h0c0,.15.14.15.11.38M6.21,75.31a2,2,0,0,1-.69.75c.07-.4.43-.52.69-.75M3.64,45.52c-.19-.32-.59-.72-.75-1v-.1c.52-.58,0-1.4,1.19-1.9a1.67,1.67,0,0,1,2.08,1.52c0,.34-.1.38-.1.75,0,0-.49.37-.49.43,0,.58-1.63.26-1.93.26m2.15-5.08c-.16.1-.17.18-.32.16,0-.36.28-.49.64-.48a1,1,0,0,0-.32.32M4.45,29.08a.38.38,0,0,1,.32.27l-.38.11.06-.38M3.54,17.19H3.32V17c.16-.05.25,0,.22.16M1.93,59.24c0-.15,0-.26.16-.27.05.17,0,.29-.16.27"/></g></g></svg>