<svg xmlns="http://www.w3.org/2000/svg" viewBox="0 0 57.1 76.06"><defs><style>.cls-1{fill:#e51e25;}</style></defs><g id="Calque_2" data-name="Calque 2"><g id="Vector_Graphics" data-name="Vector Graphics"><path class="cls-1" d="M50.84,68.47c.56,0,.4-.39.81-.41-.22.83.48.26.76.1a5,5,0,0,0,.05.66c.34-.09.6-.24.75.13s.24.11.61.32-.08.31.43.31a.75.75,0,0,1,.43.2.25.25,0,0,0-.21.25h-.14c0,.26.23,1.11.56,1.19s.16.5,0,.68c-.33.44,0,.26.17.71-.95.5.27,1.56-1.11,1.79-.36.07.14.74-.35.74s-.21.52-.66.2c-.47,0-1.33.85-1.57.71h-.1l.1-.21c-.1-.11-.39-.36-.6-.15-.53.53-.32-.15-.65-.27a.32.32,0,0,0-.41.07c-.41,0-.46-.4-.71-.4-.43-.49,0-.62-.86-.46a5.47,5.47,0,0,1,0-.81s-.41,0-.45-.3c.39-.29-.18-1-.31-1.37.25-.18.23-.49.1-.8.2-.14.24-.56.36-.71a.27.27,0,0,0-.15-.2c.23-.36,1.09-.65.91-1.27.59,0,.48-.43,1-.45v-.1a1.21,1.21,0,0,1,.74-.31s.53.31.53.16M42.4,36.83a2,2,0,0,0,2,2.12v-.1c.6.34.15.57.15,1.06,0,.28.24.38.28.61s.36.47.48.76a2.43,2.43,0,0,0,.91-.41c.17,0,.32.06.41,0l.3.05c-.1.42-.43.41-.79.48-.72.15-.47,1.41,0,1.64,1.46,0-.35.46-.55.86a18.81,18.81,0,0,0,1.41,1.37c.51.38,0,.93-.48.83-.27-.05-.54.31-.6.58,0,.11-.75.81-.28.81.12.21.62.12.8.41a.32.32,0,0,1-.25.25c-.49-.5-1.09-.06-.8.63.16.37.27.69,0,1s-.8-.19-1.06.33c-.53,0,1,1.24,1,1.37a.72.72,0,0,0-.1.62c.19.58.85,0,1.27-.07-.95.66.34,1.11,1.05,1v.1a3.59,3.59,0,0,1,1.54-.61c.68-.11,1.35-.59,1.9-.17,1.21.88-3.32,1.56-3.44,1.64-.33.54-1,.88-1.41,1.52.39.14,1,0,1,.45l-.1-.1c-.35,0-.77.87-.93.76s.06.64,0,.51c.14.25.38,0,.45.4-.35.35-.81.26-.81.91.25.26.84.65,0,.65-.69-.7-.32,1-.91.76l-.19,0a1.49,1.49,0,0,0,.7.56c.11-.11.53-.33.43.1,0,.13.12.73.35.48s.08.59.08.53a1.35,1.35,0,0,1,.71.66c-.55.41.1,1,.2,1.36-.57.23-.61.6-.25,1-.59,0-.57.34-.46.81a1.9,1.9,0,0,0-.85.71c0,.14,0,.27,0,.41-.72-.25-1.23.4-2,.4-.49,0-.49.35-1.06-.13s-.71.06-1.06.13c0-.67-.18-.78-.7-.61-.13-.12,0-.7-.26-.7s-.46-.11-.5-.53c-.08-.69-.26-.65-.61-1,.21-.11.25-.21.25-.51-.55-.55.11-.76.11-1.31-.34.11-.43.1-.58-.2s-.61.25-.79.25c-.26-.26-.12-.62-.55-.76s-.42.25-.86.25c-.09-.33,0-.76-.46-.76,0,.36-.66.48-.66.06.07-.06.28-.38.15-.56-.36-.14-.51-.39-.83-.07,0,0-.24.29-.33.17-.33-.63.57-.54-.12-1-.3-.21-.13-.75-.38-.92s-1.27.3-1.27.15c0-.36,1.34-.54.86-1-.65-.61-.56-1.2-.91-1.92a2.46,2.46,0,0,1-1,.15,3.45,3.45,0,0,1,1.16-.25v.1c.27-.15.86-.66.69-1s-.42-.31-.59-.52-.05-.81-.05-1.14c-.6,0-.19-.8-.86-1-.5-.13-.52.69-.86,1-.46,0-.2-.71-.14-1,.22-.14.23-.75-.18-.83-1-.2-.18-.58-.43-1,0-.34,0-.5-.41-.61s-1.05.83-1.36.55.8-.56.86-.65a1,1,0,0,0,.31-.25c0-.93-.46-.31-1-.31-.28-.57,1-.3.25-1.11-1.21.07-3.06-.67-4.09.1l-.16-.1c0,.2-1.21.53-1.42.58s-1.55,0-1.55.48a5.47,5.47,0,0,1-.76.28,21.22,21.22,0,0,1-2.74.37c-.42.05-1.84.18-2.07.51-.56-.12-1.68.5-2.29.13-1-.58,1.57-.95,1.49-.93,1-.14,2.61-.16,3.39-.71a7.79,7.79,0,0,1,2.47-.51c.7,0,2.68-.38,3-1,.1.49.72.15,1,0s.71.05.86-.2c.28,0,1.26-.4,1.26-.71.37-.23.74-.76,1.12-.76-.17-.43-.44-.64-.86-.55a5.12,5.12,0,0,0-1.17,0V45c.26,0,2.3-.31,2.31-.33.32-.76-1.79-2.33-.53-3.11.13-.16,1.05-.52.55-.88-.27-.21-1.14-.55-.91-.89v.1c.65-.42,1.1.82,1.77.26.06-.38.27-.43.25-.86h.05c-1.18-1.78.81-.35,1.41-1.22.62-.14.12-.58.31-1,.18-.18.35.1.6-.15.48-.48.08-.55-.14-1-.43-1.75.78.56.81.56.13.18.13.43.3.6.54-.09.83-.47,1.29-.66.17-.07.42-1.51.75-.75.49,1.12.55.15,1.34.15.06,0,.33.39.46.45v.1a9.07,9.07,0,0,1,1.16-.2c.1-.25.12-1,.51-1s.16.77.1,1h-.1a.07.07,0,0,0,.1.05c.25.66.94.42,1.42.24s.09.69.55.77v.1c.6.18.58-.45,1.11-.45M53.67,66.65a.83.83,0,0,1-.1-.51c.35.09.24.5.1.51M22.84,64.93c.14-.15.13-.09.1,0s-.2,0-.1,0m30.53-.86a.12.12,0,0,1-.11-.15l.31.1-.2,0m-.5-.26c.11,0,.21,0,.24.11-.18,0-.26,0-.24-.11M11.93,62.35c.13,0,.12.22.09.3-.54-.13-.9-.07-1.15-.7a.75.75,0,0,1,1.06.4m9.34.25h0m33.41-.35c-.09-.26-.38-1.07-.15-1.31,0,.38.4,1.1.15,1.31M27.59,61c-.26-.44-.38-.1-.75,0-.26-.51-.38-.2-.76-.2-.26-.4-.49-.11-.71-.26a1.08,1.08,0,0,1-.15-.5c-.08-.06-.35,0-.41,0s-.3-.25-.3-.51c0,0-.3-.78-.3-.63,0,0-.17-.68-.06-.68s-.81-.37-.8-.36a.91.91,0,0,0,.86-.65c0-.22-.26-.37-.2-.61l.45-.05c.15-.2.05-.39.05-.61.52-.17.55-.2.55-.8a.82.82,0,0,1,.31.15s1-.42.84-.56c.24.16.82-.2,1.13-.2s.18.23.38.28a1.76,1.76,0,0,0,.78-.13c.16.32,0,.6.31.56a2.07,2.07,0,0,1,1.06.85c.7,0,1.4-.15,2.12-.15-.33.19-.84,0-1,.26-1.3,0-1,.06-.81,1,.11,0,.16,1,.13,1.13-.09.29-.27.33-.38.58s.1.36.1.66c-.39.19-.59,0-.81.46l.15.2a4.17,4.17,0,0,0-.75.2c-.35.1.38.32-.32.27s-.21.22-.7.34M31,56.94c-.07-.15,0-.2.15-.2a2.21,2.21,0,0,1,.05.25l-.2-.05M6.52,51l-.2.05a1.76,1.76,0,0,1,.2-.71c0,.22,0,.44,0,.66m43-2.07c.08,0,.11-.09.1.05,0-.05-.06-.07-.1-.05m-.36,0c-.07-.16-.46-.25-.5-.26.79,0,.06.16.71.16v.1h-.21m-.76-.26a.13.13,0,0,1-.1-.15l.36,0v.1h-.26m-.3-.15a.16.16,0,0,1,.1-.05Zm-.2-.05v-.1h.2c0,.13-.08.14-.2.1m-.15-.1c-.22-.09-.8-.27-1-.35a1.93,1.93,0,0,1,1,.35M6.47,47a.16.16,0,0,1,.1,0Zm39.77-.2v-.05l.2.05h-.2M1.77,46.33,0,46.53a1.87,1.87,0,0,1,1.77-.2m2.13-.76c.39.77-.78,0,0,0m-2.64,0c.08-.07.12,0,.1.06a.08.08,0,0,0-.1-.06m54.08-1.41a2.27,2.27,0,0,1,1.41-.46l0,.15c-.55,0-.85.37-1.36.31m-4.55-1.12c.25-.25.79-.13,1.11-.1,0,.36-1,.15-1.11.1m-37.6-2.27a3.16,3.16,0,0,1,.05.81.73.73,0,0,1-.05-.81m33.86.1H47s.1-.08.1,0m.15-.1a.43.43,0,0,1,.26-.15c0,.15-.11.19-.26.15m-1.92-.15.1-.05-.1.05M15.82,40v.16L15.66,40c0-.08.08,0,.16,0m12.28-.3v.05c-.13,0-.21,0-.2-.15a.19.19,0,0,1,.2.1m-.2-.15c-.16,0-.22,0-.36-.2h.2c0,.12,0,.19.16.2m17.88-.25a.8.8,0,0,0,0-.26c.12.09.12.1.15.26h-.2M17.23,39a.11.11,0,0,1-.05.1Zm8.7-.2c-.22.22,0-.11,0-.2,0,.06,0,.13,0,.2M45,35.52a.32.32,0,0,1,.35-.36,2.31,2.31,0,0,1,.15.71c-.11.23.07.39-.15.35,0,.4-.05,1.17-.51,1.32a4,4,0,0,1,.16-2M35.38,35l-.06.1c0-.06,0-.11.06-.1m21.37,0v-.2c.12,0,.2.09.2.2h-.2M39,35c0-1.31.75-.12,0,0m-3.85-.25v-.36c0,.11,0,.17.15.16v.4h-.09c0-.09,0-.18-.06-.2M32,34.05a1.45,1.45,0,0,1,.1.41,4.43,4.43,0,0,1-.5-1.12,1.24,1.24,0,0,0,.35.46c0,.1,0,.21.05.25m3.08-.3.05.6a1.66,1.66,0,0,1-.05-.6m19.16-1.22c1.24-1.23,2.17.78,1.18,1.18s-1.34-.39-1.18-1.18M35,33.09c0,.22.07.44.1.66H35c0-.33-.16-.57-.15-.91a1.91,1.91,0,0,1-.3-1.17h.1A6.56,6.56,0,0,0,35,33.09M31.53,33c0,.08.07.17.11.25-.31-.3-.12-.06-.2-.35.09,0,.12,0,.09.1m4.35-1c-.24.24-.28.89-.65,1,.08-.28.52-1.2.65-1m-4.5.7c.12,0,.14.06.06.11s-.07-.1-.11-.21a.93.93,0,0,1,.05.1m-.05-.2,0,.1Zm-1.21-2.17A.41.41,0,0,1,30,30c.2,0,.5.83.61,1a.68.68,0,0,0,.26.45,7.07,7.07,0,0,0,.45,1.16c-.32-.2-.44-.68-.55-.91a1.79,1.79,0,0,0-.46-.9,1.22,1.22,0,0,0-.15-.36m6.93,2c-.19-.18-.29-1.38.2-1.16.2.59,0,.84,0,1.36a.19.19,0,0,1-.2-.2M33,32c.46,0-.57.35-.81.35L33,32m3-.15c0,.07,0,.1,0,.1Zm-1.41-1.52V30h.1c0,.14,0,.28-.1.3m-.1-.6a2.41,2.41,0,0,1,0-.71,3.52,3.52,0,0,1,.05.86c0-.05-.07-.11-.1-.15m-1.12-.16v-.1h.15a.27.27,0,0,1-.15.1m16.47-.25v-.15h.11c0,.1,0,.17-.11.15M34.36,29c0-.26-.21-.44.06-.46a.73.73,0,0,1-.06.46m-7.52-.61.2-.05c0,.08,0,.17.05.25a1.6,1.6,0,0,0-.21.05c0-.05-.06-.31,0-.25M56.2,25.91a1.62,1.62,0,0,1-.21-.8h.16a26,26,0,0,1,1,2.78c-.11-.17-.25-.42-.35-.56l.11-.15c-.25,0-.53-1.11-.66-1.27M33.65,27.83c.16-.14.12,0,0,0m-.09-.15.09.05c-.19-.1-.21,0-.35-.25a.28.28,0,0,1,.26.2M22.64,26.22c.39,1.12-.85-.43,0,0m5.46-.91.1.4c-.19-.13-.25-.29-.1-.4M17,23.69c-.13-.27-.4-.32-.5-.61a.79.79,0,0,1,.7.71.19.19,0,0,1-.2-.1m26.48-.3c.12-.12.12-.21.31-.16v.21l-.31-.05m-22.34-.51c-.15.08-.2,0-.2-.15.13,0,.27.18.2.15m19-2.73a2,2,0,0,1,.2.81c-.07.77-.31,1.07-.61.35a2.21,2.21,0,0,1,.41-1.16m8.54.41c-.08.15-.06.17,0,0m3-.46v-.2h.1v.25a.07.07,0,0,0-.1,0m-27.39-.91a.22.22,0,0,1-.15.1c.28-.54.16-.1.15-.1m-.05-4.14c.29,0,.33,1,.45,1.16,0,1.57-.22.1-.51.1-.13,0-.36-.93-.37-1.11s-.72-1.11,0-1.11a6.91,6.91,0,0,1,.41,1M32.14,14c.46-.08.51,1.06.25,1.31A3.23,3.23,0,0,1,32.14,14m-24.61.15a1.56,1.56,0,0,0,.81.66c-.38.08-.73-.42-1.06-.61l.25,0m9.7-2.83c-.19-.4.22-.59.38-.25a5.83,5.83,0,0,1,.53,1.06c-.15.51-.89-.78-.91-.81m21-1.32c-.09.17-.05.17,0,0M21.63,6.66c.63-.31,1,1.44,1,1.87-.58-.1-1-1.25-1-1.87m33.56,0c0-.12,0-.21.15-.2v.35l-.15-.15M17.38,2.87l.21-.2a.44.44,0,0,1,.15.3c.25.12,1.4,2.18.81,2.37-.41-.79-1.17-1.5-1.17-2.47M4.5,1c.28.29,2,2.92,1.61,3.34-.6-.21-2.48-3.1-2-3.45.15-.2.3-.18.4.11M44.68,3.37l.15-.05-.15.05m-27.9-.15h.14v.1c-.1,0-.16,0-.14-.1m27.44-.1L44.16,3a.8.8,0,0,1,.52.25.37.37,0,0,1-.46-.15m12.64.2v-.1h-.11l.31.1h-.2M54.73,2.26a1,1,0,0,0,.31-.4c0,.23-.14.75-.31.4m-42.8-2c.16-.8.81.62.81.91-.34.41-.67-.77-.81-.91"/></g></g></svg>