<svg xmlns="http://www.w3.org/2000/svg" viewBox="0 0 82.89 76.06"><defs><style>.cls-1{fill:#e51e25;}</style></defs><g id="Calque_2" data-name="Calque 2"><g id="Vector_Graphics" data-name="Vector Graphics"><path class="cls-1" d="M41,75.73c.43,0,1.25-.46,1.46-.29-.52.1-.92.66-1.46.62v-.33m-2.52-4a1,1,0,0,1,.95-.12,4,4,0,0,0-.95.4h-.22v.11c-.56,0-.79.44-1.46.44,0-.41,1.32-.65,1.68-.83m1-.29h.17c-.06,0-.29.15-.17,0m-1.4-.11V71h.17c.05.19,0,.31-.17.28M82,69.05v-.11h.89c0,.63-.92,1-1.39,1.09-1.4.17.11-.86.5-1m-68.43.12c.24-.25.33-.4.78-.23-.38.38-.06.72.28,1.06-.66-.15-.72-.83-1.56-.56.14-.22.31-.22.5-.27m.89-.29c.09,0,.15.05.17.17-.17,0-.15-.15-.17-.17m9.64-2.46c1.27-.63.77,1.32.17,1.8-1,.8-1.13-.75-.56-1.08v-.33c.21,0,.26-.19.39-.39M47.36,21.13c.38,1,.15.86,1,1.24a4.25,4.25,0,0,0,1.48.5c.19-.49,1-.56,1.45-.56.25.48-.09.68-.39,1.12a8.57,8.57,0,0,1,2.8,3.47c.18.17.1.62.28.79v.22c.19.17.11.62.28.79V29h.11v.16c.15.18.14.73.29.9a3.93,3.93,0,0,0-.12.67h.12c-.05.6.64.48.5,1.07-.52.77-.64.39-1.28.39a1.55,1.55,0,0,1-.29.67V33c-.16.15-.17.54-.39.67v.4c-.31.27-.28.87-.67,1.15-.63.43,0,1,0,1.6-.48.31-1.49,1.54-.51,1.85.41-.51,1-.33,1.63-.23,1,.17-.38,1.84-.88,2-.88.22-1.25-.34-1.59.83-1,.24-1.32.82-1.62,1.68,0,.62,0,1.47.83,1.24v.11h.23v.11c.46.09.63.63.95,1a3.1,3.1,0,0,1-1.85,1.85c-.37-.21-.51-.79-.78-1.06V45.9c-.37-.38.16-1.51-.84-1.51-1.36,0,.32,1.51-1,1.51-.41,0-1.2.39-1.2.9,0,0,.38.6-.16.78s-.62,0-.62-.33c-1.57-2-1.12,1.45-1.92,1.46v.11c-.16,0-.32-.11-.5-.11a6.33,6.33,0,0,1-.51.61c.19.36.25.75.63.84a2.19,2.19,0,0,0,1.62-.78c.48.24,1,.71.17,1.18a1.1,1.1,0,0,0,1.29.67v.11c.21,0,.2.08.39.17-.26.51.1,1.23.42.62.21-.2.34-.15.39.14.25.26-.32.62-.42.83a.56.56,0,0,0,.17.76v.28H47v.12c.45-.11,1.13.21.66.67-.09.33-.34.13-.41.53-.12.56.41.78.92.92-.26.69-.76.48-1,1-.37.77.83.78,1.28.89-.22.65-.74.59-1.28.45v.23c-1.8.68,2.27,1.85-.16,1.85a.6.6,0,0,0-.57-.23,3.92,3.92,0,0,0-.48.37c-.55.54,0,.74.09,1.37-.73.24-.63-.28-1.4-.28-.17.43-.34.47-.34.95.4.2.45.5.45.9-.65,0-.88-.71-1.52-.68-.36.37-1.45.64-1,1.24V65a2.12,2.12,0,0,0-.44,0v-.28c-.27-.17-.48-.58-.73-.78a1.06,1.06,0,0,0-.78.11c-.43-.13,1.49-.4-.65,0-1,.18-.26.32-.94.58s-.77-.68-1.16-1h-.39c-.6-.54-2,.24-2.36-.68v-.27c-.18-.13-.13-.37-.16-.67-.05-.79-.71-.23-1.07-.23-.76,0,.28-1-.11-1.24a2.66,2.66,0,0,0-.28-.61c-.33-.34-1.15.32-1.46,0h-.11a1.57,1.57,0,0,1,.89-.84,13.19,13.19,0,0,1-.22-1.57c0-.6-.84-.2-1.06-.45,0-.59.11-.43.67-1A3.81,3.81,0,0,0,32.48,55c.13-.38-.48-.92,0-1.18s.36-.5.38-1c.06-.79.68-.47,1-.84.15-.16,0-1.53.61-1.06a.76.76,0,0,0,.78-.28v-.23h.12a1.32,1.32,0,0,1,.14-.87c.27-.45-.28-.6-.37-1.15h.28v.12c.46.33.27,1.16,1.07,1.34v-.11a.72.72,0,0,0,.5-.16c0-.61.49-2.06,0-2.42l-.56-.33c-.42,0-.78-.1-1,.11h-.17a.88.88,0,0,1-.78.11h-.39C34,47.2,33,47.4,33,47c0-.14-.3-.24-.4-.33.23-.57.46-1.11,0-1.63a8.11,8.11,0,0,0-2.1-1.2c-.4-.24-1.86.73-1.65-.48,1.56-.4.61-2.08,0-2.69a11.55,11.55,0,0,0-.78-2c-.34,0-.8,0-1-.17h-.39v-.11h-.23v-.11a.37.37,0,0,1-.44.11v-.11c-.77,0-1.67.35-2.36,0,.68-.45,1.64-.15,2.41-.17v-.11a1.12,1.12,0,0,1,.34.11v-.11h.17v-.12c.91.23,2.05-1.39,1.06-1.51-1.16-1.12.49-1,.65-2.17.06-.52-.1-.55-.51-.59s-1.17-.53-.7-.94v-.11c.52,0,1.8-.11,1.8-.83,0-.4.1-.88-.17-1.08l.11-.22h-.11c-.15-.53.5-.62.54-1.18a1.94,1.94,0,0,0,0-.73h0c0-.44.61-.94.9-.28.71.2.91-1,.51-1.44s-.87-.48-.78-1.19c.29-.26.65-.84.43-1.23a9.67,9.67,0,0,1,1,.28v-.11h.28a3.13,3.13,0,0,1,1.57-.29v.12c1-.18,1.51.94,2.22.64.53-.22,0-1.9-.21-2.21v-.22h-.11v-.18c-.33-.21-.39-.93-.56-1.34.4.16.56.81.69,1.16.29.71.16.58.83.58A3.2,3.2,0,0,0,37.56,24c.57.12.79-.37,1.34-.61.19-.17.42,0,.5-.47.11-.61.45-.57.54-1.13s-.4-1.2.24-1.43c.08.3.13.65,0,.79v1.34c.27.18.32,1.69.85,1.24h.06a4.29,4.29,0,0,0,1.11-.56V23a1.19,1.19,0,0,0,.79-.39V22.2h-.11c0-.31.25-.62.33-.9.62.18.86-.43.95-.88.21-1.2,1.24-1,1,.09-.22.21-.41.21-.8.34-.19.16-.38.54-.55.67a2,2,0,0,0-.29.79.77.77,0,0,0-.22.28c.29.11.47-.07.62-.23a.55.55,0,0,0,.56-.16h.68v-.12l1.17.12c-.39-.84.32-1.45,1.06-1.07M31.79,53.58v.06l-.35-.06h.35m-1.85-.39c.25-.26.66,0,.78.17-.35,0-.45-.1-.78-.17m-.29-.5c.1.12.19.26.29.39-.46.12-.67,0-.79-.39a2.09,2.09,0,0,1,.5,0m.84-4.43c-.69.46-1.08,1.43-1.76.3-.28-.46-.05-1.36.53-1.31v-.17c.85-.23,1.23.44,1.23,1.18m1-2.52a10.23,10.23,0,0,0-2.29-.12c-.08,0-.45-.2-.51-.39.58,0,2.42-.06,2.8.51M67.88,44c.39,0,1.12-.33,1.45,0a13.78,13.78,0,0,0-1.56.28c0-.09.07-.19.11-.28m1.45-.23.68-.11v.11h-.17v.11c-.22.06-.44,0-.51-.11M4.43,43.1a.2.2,0,0,1-.17.11V43a.13.13,0,0,1,.17.11M3.31,43c0,.07-.18.11-.23.11s-.47-.13-.5-.39c.38,0,1.22,0,1.46.39a3.49,3.49,0,0,1-.56,0V43a.26.26,0,0,1-.17,0m19.84-.17a5.58,5.58,0,0,1-.67-.28,1,1,0,0,1,.5-1c.45-.19,1.57-.49,1.82.15.33.85-1.16,1.72-1.65,1.14m34.3-2.13c.38-2,2.44,1.25.73,1v.12c-.2-.2-1.36-.67-.73-1.07M55.32,37.1c1-1,1.92.19,1.32,1.32-.35.67-1.53.6-1.54-.14H55c.15-.38.08-.84.33-1.18M0,37a1.06,1.06,0,0,1,.79.39c-.26,0-.71-.15-.79-.39m61.32-1.9c.13-.37.43-.43.84-.34.09.22.73.57.9.78,0,1.79-1.55.81-1.74-.44m-47.75-.34a1.71,1.71,0,0,1,.17.39c-.34-.26-.17-.4-.17-.39m-.5-1c.15.33.36.7.27.89-.1-.42-.48-.51-.44-1,0,.1.07.14.17.12M54.2,33a1.91,1.91,0,0,1,.62-.39.92.92,0,0,1-.62.79V33M28.36,30.43c.17,0,.28,0,.28.17-.47.12-1.52-.51-1.84-.84a2.25,2.25,0,0,1,1.06.34l.5.33m51.74-.67v-.34c.61-.18.83.7.39.93s-.57-.42-.39-.59m-20.46-.11v.28c0-.12-.07-.23,0-.28m-1.46-4.37v-.51h.11c.26.33.15,1.13.4,1.29v.17h.11c-.06.24,0,.44.17.51v.39h.11v.39a6.08,6.08,0,0,1,.39,2c-.08-.37-.13-1.07-.39-1.24V28H59v-.28c-.45-.39-.42-1.89-.79-2.41M59.35,27c.42-.27.9-.78,1.36-.16.45,1-1.58,1.36-1.36.16m14-1.23c.67-.66,3.07-.64,3.9-.28s-.39.56-.7.56a11.92,11.92,0,0,1-3.2-.28M66.42,26a1.12,1.12,0,0,1,1.46-.56.37.37,0,0,1,.49.28,2.25,2.25,0,0,0-.6.28,3.61,3.61,0,0,1-1.35,0M7,22.2a.88.88,0,0,1,.23.56H7.06c-.12-.61-1.17-1.21-1.17-1.74,0-.2-.43-.67-.56-.84s-1.11-1-.4-1c.28,0,.23.21.28.39h.12c0,.82,1.21,2,1.62,2.64M30.1,20.85c.93-.93,3,1,1.11,1.41-.59.12-1.5,0-1.56-.57h-.11a1.69,1.69,0,0,1,.56-.84m23.15,0a.71.71,0,0,1-.11,1.06c-.77.13-.71-1.06.11-1.06m2-1.06c0-.42.58-.52.84-.62.94.34-.06,1.23-.39,1.68-.48-.24-.7.17-1.24.28.39-.67-.65-.16-.89,0v-.28a.86.86,0,0,0,.61-.51.9.9,0,0,0,.68-.16c0-.28.12-.42.39-.39M47,19.39c.38-.23.45-.55.94-.61A1.29,1.29,0,0,1,48,19.84a.48.48,0,0,1-.51.62A.88.88,0,0,1,47,19.39M0,19.84c.33,0,.58-.2.68.11A.73.73,0,0,1,0,19.84m49-.39c-.08.37-.57.56-.57,0a2.71,2.71,0,0,1,.57,0m1.23-.17c-.37,0-.28-.3-.28-.5.32.15.49.27.28.5m-5.38-1.46c.63-.31,1.13-.32,1.18.56-.35.78-1.42.34-1.18-.56m4-1.45c.32-.16,1.13-.21.73.39,0,.34-1,.3-.73-.39m-14.41.39a1.54,1.54,0,0,1-1.06,0c.21-.32.93-.18,1.06,0M2.92,16.25v-.16h.73c-.15.31-.44.26-.73.16M52.41,15c.88-2.6,1.3,0,.39.39v.17c-.4.05-.45-.27-.39-.56M43.27,14a2.7,2.7,0,0,1,.22-1.18c.86,0,.77,2.16-.22,1.18M4.37,11.6a.61.61,0,0,1-.61-.67c.35.18,1.11.54,1.28,1.06a7.51,7.51,0,0,1-.67-.39M39.91,12l.06-.28a.39.39,0,0,1,.33.28h-.39m-29-1.34c.26.27.71-.2.9,0h.44c-.09.17-.19.3-.28.11-.12,0-.2.21-.16,0l-.23.11c-.34-.44-1.81.43-1.84-.33.39,0,1-.08,1.17.11M31.44,7.73c.88.59.35,2.2-.53.85-.28-.44-1-.86-.7-1.41.32-.24,1,.41,1.23.56M52.07,6.67c.19-.19.06-.37.39-.28V6.5h.12c0,.56.24,1.38-.51,1.63,0-.37-.5-1-.06-1.24,0-.1,0-.19.06-.22M56.84,0a1.36,1.36,0,0,1,.28.11,2.89,2.89,0,0,1-1.24,2.41c-.61-.27.66-2.32,1-2.52"/></g></g></svg>