<svg xmlns="http://www.w3.org/2000/svg" viewBox="0 0 61.04 67"><defs><style>.cls-1{fill:#e51e25;}</style></defs><g id="Calque_2" data-name="Calque 2"><g id="Vector_Graphics" data-name="Vector Graphics"><path class="cls-1" d="M.34,67,0,65.79c1.39-.28,1.37,1.46.34,1.17M13.65,52.89c0-.5.71-.56,1-.62,0,.6-1,1.78-1,.62m47.12-4.07c-.57.56-1.17-.6-.67-.87.66-.38,1.34.37.67.87m-6.62-9.11c0,.07,1.35-.54,1.48-.54,1,0,1.93-.14,2.62.72.18.21,1.06.71,1.09.85.06.37.13.74.18,1.11s.29.39.29.7a14.13,14.13,0,0,1-.8,2.17,3.06,3.06,0,0,1-2.93,1.76c-.74,0-2.66.21-3.15-.78-.26-.51,0-1-.43-1.43s-.38-.74-.29-1.28c.23-1.22.65-2.76,1.94-3.28M38.35,28.4c.31-.3,2.49-.19,3.15,0,1,.33,1.3,1.26,2.27,1.4a5.44,5.44,0,0,1,2.6,1c.74.58,1.26,1.49.43,2.25-.68.63-.19,1.48-.69,2.07-.62.75.25,1.06.45,1.87-.7,0-.71,1.63-.62,2-.87-.17-1.42-.27-2,.42s.66.57-.25,1a15,15,0,0,1-1.93.94c-.87.31-1.08-.43-1.69-1-1.33-1.33-1.41,2-1.52,2.48-.32,1.47-2.39,2-3.33,3.09-.27.29-3.06-1.49-3.32-2-.59-1.14-2.32-1-2-2.61.1-.46.38-1.12,1-.77s1-.83,1.3-1.28A3.75,3.75,0,0,1,36,37.86c0-1.23-.68-2.66-.68-3.8,0-.51-.28-.71.06-1.14.77-1-1.1-1.16-1.1-1.69s1.66-.33,1.66-1c.32-.31-.92.16.27-.44.72-.35-.34-.79.49-1.11a7.23,7.23,0,0,1,1.65-.24m5-28.35c1.09-.36,3,1.23,4,1.69C47.8,2,50,2.91,49.39,3.68s1.5.82.62,1.69c1.36,0,.11,1.32,0,1.59.6,0,.87.89,1.58,1,0,1-1,.07-1.44.07-2.5,0-1.06,3.38-.87,4.54s-.77.72-1,1.53c-.11.36.4,1.1-.27,1.21s-1.25,0-1.88,0c-1.36.16-.31,1.48-.31,2.28a5.22,5.22,0,0,0-1.72,0,2.81,2.81,0,0,1-2.46,2c-1-.21-1.55-.89-2.55,0a7.06,7.06,0,0,1-2.93,1.5,2.57,2.57,0,0,0-1,.63c-.53.57-1.16.6-1.74,1.1-1.17,1,1.31,1.54.68,2.56a1.48,1.48,0,0,1-1.2.54c-.26-.81-.22-.7,0-1.58-.1-.76-.11-2-.76-2.21-.2-.72-.89-1.8-1.65-1.59-1,0-1.38-2.22-2.69-.8-1.51,1.64-3-1.38-3.15-2.6,0-.31.41-2.74-.37-2.74s-1.1,2-1.1,2.55c0,.87.64,2.94-.31,3.44-1.59.83-1.43-2.9-1.62-3.61-.27-1-1.71-2.14-2.25-.69-.26.71-.7.36-1.1.76s.24,1.06.45,1.41c-.51,0-1.26.8-1,1.32a4,4,0,0,0,.39.33c.3.45-.24.8-.24,1.25a5.84,5.84,0,0,0,.33.53,3,3,0,0,1-.05,1.06c-.36.39-1-.44-1,.65s-2.48.18-3.24.83a6.39,6.39,0,0,0-1.52,3.28c0,.92.24,4.15-.81,4.82-1.4.9-.44-4-.32-4.47.59-2.21-.13-3.84-2.38-4.32-.82-.17-.34-1.5-.48-2.05a1.57,1.57,0,0,0-2.15-.88c-.26.18-1.25,1.4-1.45.41,0-.65,1.49-1.07,1.92-1.33,1.84-1.12,0-1.44.41-2.5.13-.37.57-.15.82-.5.44-.61,1.15-.74.47-1.57s0-1,0-1.55c.9.31,1.06-.2,1.86-.2.06,0,1,.25,1.21.31.53.17,1.46-.49,2-.63,1.18-.26,2.73,1.29,3.45,2.14.25.3,1.2,1.56,1.72,1s-.16-1.81-.67-2.1-1.64-.09-1.64-1-1.13-.76-1-1.31c.32,0,.69-1.78.75-2s.18-.69.25-1c.1-.56-.38-.74-.38-1.31,0-.84,1.11-1.24,1.37-2,.43-1.29-1.17-.47-1.17-1.11,0-1.29,1.86.42,2.08.48-.1-.33-1-1.65-.5-1.93.7-.4,1,1.62,1.34,2,.73.69,1.26-1.5,1.71-1.5.66,0,.48.78,1.23.29.28-.18.45-.7.83-.7.15.89,2.34,2.52,3.25,2.55,0,.93.22,1.64,1.24,1.93,0-.63,1.24-.88,1.24-1.72.09,0,2.76,2.1,2.76,1.62,0,.43,2.21.19,2.49.1a3.21,3.21,0,0,1,2.48.07c.91.3.8-.48,1-.48,1.12,0,1.64.2,1.51-1.21-.09-.78.65-.92,1-1.68s-.81-2.12,1.33-1.7c1.7.35,1.57-1.89,2.65-2.45M25,25.57c1.18,0,.31,1-.14,1.25-.73,0-.61-1.25.14-1.25M1.44,9.36c.42,0,.49.77.14.77-.5,0-.77-.63-.14-.77"/></g></g></svg>