<svg id="Calque_1" data-name="Calque 1" xmlns="http://www.w3.org/2000/svg" viewBox="0 0 175.61 233.4"><defs><style>.cls-1{fill:#fffdfd;}.cls-2{fill:#0c0803;}.cls-3{fill:#fff;}.cls-4{fill:#161515;}.cls-5{fill:#222121;}.cls-6{fill:#484745;}.cls-7{fill:#0e0f01;}.cls-8{fill:#fffefd;}.cls-9{fill:#1c1c1c;}.cls-10{fill:#282523;}.cls-11{fill:#4e4e4b;}.cls-12{fill:#ce0018;}.cls-13{fill:#353434;}.cls-14{fill:#575656;}.cls-15{fill:#1d1816;}</style></defs><path class="cls-1" d="M26.77,118c-1.56-3.38.69-5.19,2.87-7,14.3-12.16,30.59-18.44,49.55-17,1,.07,2,0,3.29,0C81.25,90,78.67,86.82,77.63,83c-2.86-10.69,3.55-19.64,14.51-19.91a61.05,61.05,0,0,1,9.47.12c3.16.42,3.94-.74,4.29-3.66,1-8.59,1.79-17.2,2-25.85.2-8.19,3.58-12.13,11.57-13.65,17.15-3.26,32.06,2.2,45.93,11.78a66.71,66.71,0,0,1,16.87,16.09c6.29,8.85,6.25,19-3.51,26.05a116.57,116.57,0,0,0-17.24,15c-2.12,2.28-3,4.08,0,6.5,4.14,3.38,6.72,8.07,9.51,12.54,4.28,3.65,3.29,8.09,1.88,12.59a16.7,16.7,0,0,1-3.11,5.12c-2.72,2.25-1.09,4,.67,5.71a171.58,171.58,0,0,1,17.93,21.16,12.59,12.59,0,0,1,2.34,5.6c4.55,8.06,8.78,16.25,10.5,25.48a25.17,25.17,0,0,1,.6,3.91c.05,1.62.29,3.43-1.54,4.39s-3.5,0-4.93-1.17c-6.38-5.12-11-11.86-16.52-17.79-1-.61-2-1.12-3.19-1.82,1,.84.58,2,1.27,2.73a91.8,91.8,0,0,1,8.86,15.92c.73,1.82,1.89,3.9.07,5.5s-4.13,1-6.07.16a56.09,56.09,0,0,1-5.89-3.51,8.45,8.45,0,0,1-4.84-2.39c-2.66-2.17-5.56-4.09-7.63-7.09a70.65,70.65,0,0,0,5,9.08c1.05,1.34.91,3,1.36,4.55,1.09,3.22,4.44,6,1.75,10-.45.68.88,2.67,1.58,3.94,6,10.95,11,22.25,13.2,34.64a12.44,12.44,0,0,1,.18,4.42c-.49,2.59-2.84,3.25-4.95,3.32-2.29.07-2-2-2.21-3.69-1.39-12.47-5.88-23.86-12.76-34.5,1.19,6.73,2.41,13.46,3.55,20.2.44,2.62.71,5.26,1,7.9.17,1.43-.15,2.83-1.69,3.17a2.73,2.73,0,0,1-3.35-2.26c-1.17-5-3.83-9.51-5.45-14.35-.82-2.46-1.18-4.5-4.44-3-.62.28-1.25-.19-1.54-.89-2.84-1.71-3.34-5-4.95-7.49-6.2-12.35-15.26-22.42-25.31-31.69a20.67,20.67,0,0,0-4.19-3.43c-10.5-8.92-22.08-16.31-33.71-23.65-3.88-2.44-9.3-3.79-7.29-10.52.38-1.28-1.73-1.75-2.76-2.5" transform="translate(-26.25 -19.07)"/><path d="M84,91a18.83,18.83,0,0,1-4.15-7.84c-3-9.54,2.47-17.42,12.52-18.1,3.15-.21,6.4-.44,9.43.59,4.28,1.47,5.45-.59,6-4.35a184.73,184.73,0,0,0,2.06-25.85c0-8.81,3-12.16,11.8-13.65a47.27,47.27,0,0,1,25.47,3C160.26,30,171.8,37.66,180.22,49.37c6.65,9.24,5.59,16.86-3.47,23.67-6.66,5-13.28,10-18.5,16.58-1.9,2.42-2.38,4.15.4,6.43a41.37,41.37,0,0,1,9.53,12.07c4.11,7.32,2.43,13.88-4.79,17.92-1,.57-1.65.77-1.44,2-1.61.58-2.2-.43-2.63-1.68-.85-.17,2.14-2.16-.71-1.44a2,2,0,0,1-2-.89c.51-3.26,1.87-6.27,2.43-9.56.68-4-1-6.36-3.38-9.23C150.5,99.1,144.91,93,144.26,84.44c-.17-2.34-1.52-3.17-3.47-3.51A11.18,11.18,0,0,1,132,74.27a3.38,3.38,0,0,0-3-2.32c-3.31-.07-5.61-1.7-7.06-5.49-2.29,4.38-3.72,8-3.84,12-.06,2-.1,4.11-1.47,5.7-2.72,3.14-1.25,5.39,1.28,7.58,5.1,4.4,9,9.84,12.48,15.49,4.88,7.9,11.2,13.42,20.74,14.64,2,.25,4.27.88,2.22,3.77-5.6,1.69-10.59-.71-15.69-2.36-.81-.64-1.21-1.63-2-2.27a33.33,33.33,0,0,1-7.77-9c-4.87-8.71-11.74-15.59-19.53-21.64A20.69,20.69,0,0,1,104,85.69c-2.5-3.67-3.7-7.42-1.19-11.6,2-3.29.67-4.89-2.82-5.34-1-.13-2-.28-3-.34C87,67.82,83.83,70.61,83.47,80.52a1.73,1.73,0,0,1-.9.85c-.15,0-.36,0-.48,0-.43-.27-.61-.27-.46,0,1.5,2.74,3.43,5.29,3.76,8.55C85.2,90.63,84.86,91.17,84,91Z" transform="translate(-26.25 -19.07)"/><path class="cls-2" d="M84,91l.86-1c2.45-.19,3.21,1.94,4.3,3.38A53.88,53.88,0,0,0,98,102.5c13.21,11.17,28.58,17.86,45.2,22.1,4.82,1.23,9.51.79,14.29.45a4.27,4.27,0,0,1,2.22.61A3.48,3.48,0,0,0,162,128c16.66,16.2,31.6,33.52,37.22,56.93.41,1.69,1.71,4,0,5s-3.22-1.15-4.46-2.34a84.25,84.25,0,0,1-12.94-15c2.42-1,3.7.88,5.11,2.17,2.57,2.36,4.94,4.94,7.69,7.2-6.57-18.76-16.66-35.11-32.44-48.66-.87,2.55,1.85,3.47.36,4.73s-2.79-.2-3.9-.44c1.43.93,3.62,1.65,3.45,4.3a2.11,2.11,0,0,1-1.23.64c-4-.89-6.93-3.75-10.18-6a13.77,13.77,0,0,0-6.25-2.68c-1.27-.75-2.26-.08-3.25.65-2.23.19-4-1.1-5.93-1.85a13.42,13.42,0,0,0-9.75-2.76,12.08,12.08,0,0,1-7.05-1.26c3,1.76,6.29,1.11,9.49,1.34,1.81.12,4.27-.56,4.39,2.57-.7,1.64-2.53,1.39-4.11,2.49,7.57,4.1,15.31,7.43,22.45,11.86,6.05,3.76,12.33,7.19,17.61,12.08.08,1,.29,2.07-1.31,1.89-1.2-.39-2.27-1.49-3.79-.64,5.59,8.09,12.54,15.18,17.34,23.81,1,1.82,2.54,3.52,2.43,5.85a1.51,1.51,0,0,1-1.3.26,3.48,3.48,0,0,1-1.75-2.1c-2.56-5.91-6.8-10.71-10.61-15.78-5.19-6.62-11-12.74-16.08-19.42,5.15,6.83,11.06,13,16.31,19.79a151.4,151.4,0,0,1,9,12.48c.57.84,1.14,1.64.62,2.72-2.55,1-4.1-.9-5.62-2.23a137.56,137.56,0,0,1-11.29-10.52,307.05,307.05,0,0,0-37.45-35,3.54,3.54,0,0,1-1.26-1.54c4.56,11.69,15.07,17.41,24.23,24.55,4.53,3.53,9.68,6.54,12.43,12-.18.76-.49,1.35-1.44,1l-4.75-4c-.69,3.21.95,5.57,2.16,7.9,3.51,6.79,7.19,13.47,10.87,20.16.56,1,1.87,2.33,1.08,3.06-3.55,3.27-.35,5.64,1,8.05,5.94,11,11.06,22.29,13.14,34.74.26,1.59,1.33,3.5-1.19,4S179.1,248,179,247c-.63-9.15-3.79-17.6-7.85-25.55-4.46-8.75-7.63-18-11.49-27-.5-1.18-.9-2.55-2.53-3.23,3.08,16.23,7.1,32.14,8.78,48.49-2.81-6.59-5.52-13-7-20.19A153.54,153.54,0,0,0,150,191.71a164.37,164.37,0,0,0-40.59-58.38,5.08,5.08,0,0,1-2.19-3.33c4,1.32,5.59,5.09,8.53,7.05.81.41,1.74.59,2,1-.54-.28-.41-1.39-.85-2.2-7.73-13.58-9.74-15.46-31.43-29.07-.63,5.87,0,11.4-.17,16.9-.24,7.23,1.69,11.48,9.62,13.46s14.77,7.12,19.85,14.19c-5.57-1.86-11.09-3.84-16.7-5.55a68,68,0,0,0-17-3.16c32.36,20.19,59.31,45.24,74.69,81-15.88-33.85-45.52-53.17-76.59-71.79,2.72-1.42,4.47,0,6.26.16s3.71,1.45,6.11.91c-5.32-4.31-11.33-7.11-17.37-11,4.54-1.84,8.6-.79,12.59-.74,2.43.89,5.19-.28,7.15,1.08a8.32,8.32,0,0,1-4.11-2.09c-.38-.89-.74-2.54-1.15-2.55-5.44-.18-4.76-4.75-4.54-7.51.91-11.33-6.61-17.42-13.79-23.85-1.77-1.58-4.22-2.43-5.07-5C73,104,77.7,110.3,83.18,116.82c1.13-5.29,0-10.11,1.22-14.71.53-2-1.19-1.87-2.5-2C65,97.91,49.53,101.29,35.81,111.7c-2.21,1.68-4.45,3.31-6.76,5-1.09-2.27.8-2.79,1.79-3.65C45.05,100.67,61.55,95,80.42,96.17,86.59,96.56,86.59,96.5,84,91Z" transform="translate(-26.25 -19.07)"/><path class="cls-3" d="M162.33,141.89c-1.14-.95-2.24-1.95-3.42-2.84s-2.42-1.63-3.71-2.49c2.71-1.82,4.61,1.24,7.16,1.4-.64-2.49-3.57-1.82-4.34-4,3.75-1.18,6.7-.86,9.7,2.32,12.8,13.57,22.84,28.75,28.57,46.61.24.76.36,1.57.72,3.14-4.69-3.1-7.58-7-11-10.36-1.25-1.23-2.07-3.1-4.26-3l.08-.08c-2.22-4.66-6.77-7-10.41-10.15-1.22-1.07-2.72-1.8-3.64-3.22-9.26-5.43-17.85-12-27.58-16.64-5-2.43-10-5.1-15.27-7.83,2.3-1.56,4.57-1.56,6.75-1.82,1.24-1,2.52-1.92,4.21-.95l5.92,2.05a41.57,41.57,0,0,1,4.24,1.86c-.74-1.11-3.54-.37-3-2.95,0-.09.24-.16.38-.17a1.65,1.65,0,0,1,.47.1c5.32-.25,8.45,3.85,12.44,6.25,1.54.93,3,1.92,4.56,2.89,3,1.29,5.34,3.67,7.75,5.27C166.84,145.47,164,144.41,162.33,141.89Z" transform="translate(-26.25 -19.07)"/><path class="cls-4" d="M182,190a4.82,4.82,0,0,1,.93,0c1.24,1,2,2.65,1,3.8s-2.74.29-4-.47c-6.31-3.65-11.72-8.46-17-13.36-.26-.91.28-1.25,1-1.45,3.43.78,5.46,3.57,8,5.61C175,186.58,177.78,189.44,182,190Z" transform="translate(-26.25 -19.07)"/><path class="cls-5" d="M167.78,159.21a26.25,26.25,0,0,1,14.05,13.37c-4.28-4.76-10.28-7.32-14.93-11.61C167.2,160.39,167.49,159.8,167.78,159.21Z" transform="translate(-26.25 -19.07)"/><path class="cls-3" d="M89.79,140.08c2.71,1,5.85,1,8.69,4.35l-11.73-3.34C87.7,140.56,89.14,141.5,89.79,140.08Z" transform="translate(-26.25 -19.07)"/><path class="cls-6" d="M164,178.93l-1.11,1a11.31,11.31,0,0,1-4.16-3.85l1.06-.92C162.68,174.71,163.67,176.41,164,178.93Z" transform="translate(-26.25 -19.07)"/><path class="cls-3" d="M116.91,135.87c1.36,1.78,2.71,3.57,4.06,5.35a8.55,8.55,0,0,1-5.18-4.17Z" transform="translate(-26.25 -19.07)"/><path class="cls-7" d="M153.81,124.74c-.38-1.79-1.78-1.62-3.13-1.72-9.33-.68-15.52-6-20.3-13.58-4.25-6.73-9-13.15-15.07-18.39-2.36-2-3.52-4.11-.49-6.5,2-1.53,2.24-3.64,2-5.86-.55-4.74,2.63-8.5,3.34-12.9A1.62,1.62,0,0,1,122,64.47a1.87,1.87,0,0,1,1.63,1.66c.53,3.76,2.45,5.18,6.23,4.14,1.54-.42,2.53.63,2.88,2.09,1.2,4.93,4.76,7.09,9.38,7.5,3.07.27,4,1.36,3.57,4.39-.54,3.8,1.5,6.56,3.51,9.8,3.29,5.29,8.24,9.48,10.84,14.73,2.22,4.46.73,10.67-3.22,15.14-.37,1-1.29,1.15-2.12,1.46A.69.69,0,0,1,153.81,124.74Z" transform="translate(-26.25 -19.07)"/><path class="cls-3" d="M83,81c-1.82-9.81,1.67-14,11.71-14a39.47,39.47,0,0,1,4.49.19c7.74,1,7.91,1.33,4.49,8.42-2,4.22-.77,9.13,4.69,13.18a79.71,79.71,0,0,1,21.89,24.51,23.86,23.86,0,0,0,6.44,6.77c0,2.26-1.67,1.46-2.77,1.33-2-.24-3.78-1.2-5.77-1.41-11.47-3.7-21.33-10.17-30.5-17.83A6,6,0,0,1,96,100.84c-1.55-2.22-3.68-3.93-5.46-6a6.74,6.74,0,0,1-.79-1.13C87.63,89.45,83.36,86.28,83,81Z" transform="translate(-26.25 -19.07)"/><path class="cls-3" d="M119.83,46.06l-1.07-.18c-1.55-.36-2.11-1.71-2.9-2.84a28.59,28.59,0,0,1-4-11c1-4.94,4.46-7.15,9-7.95,11.13-2,21.44.71,31.18,6A93,93,0,0,1,172.91,46c1.82,1.8,3.85,3.62,4,7.11a69.73,69.73,0,0,0-34.11-17.53,48.81,48.81,0,0,0-15.39-.56c-7,.88-8.94,4.4-6.19,11A1,1,0,0,1,119.83,46.06Z" transform="translate(-26.25 -19.07)"/><path class="cls-1" d="M117.37,43.1c.46.93.93,1.85,1.39,2.78-.81,9.89-1.18,19.84-4,29.45-.92,3.16-2,6.27-3.13,9.36s-2,2.45-3.74.18c-2-2.61-2.88-5-1.77-8.23C110,65.53,111,54,111,42.35c1-2.31-.32-4.92,1.1-7.69C114.36,37.36,114.12,41.44,117.37,43.1Z" transform="translate(-26.25 -19.07)"/><path class="cls-8" d="M98.31,101a100.09,100.09,0,0,0,29.12,18c3.38,1.16,6.94,1.75,10.2,3.27,5.32,1.3,10.49,3.57,16.18,2.51a3,3,0,0,0,.79.15c1.15-.16,2.56-1.2,3.09.87-11.54,1.73-22.27-1.58-32.73-5.67A89.24,89.24,0,0,1,96.87,103C96.41,101.62,97.42,101.34,98.31,101Z" transform="translate(-26.25 -19.07)"/><path class="cls-3" d="M98.31,101l-1.44,2c-5-3.4-8.33-8.32-12-12.91-1.08-3.14-3.48-5.73-3.84-9.17,0-.16,0-.41.05-.47.75-.51.59.44.93.6,3.17,4.21,5.21,9.19,9,13l-.07-.07a21.09,21.09,0,0,0,6,6.21Z" transform="translate(-26.25 -19.07)"/><path class="cls-9" d="M117.37,43.1c-4-.59-3.62-4.62-5.54-7.17-.31,2.29-.6,4.35-.88,6.42-.09-3.46-1.35-7,.87-10.28C115.28,34.94,114.23,40.07,117.37,43.1Z" transform="translate(-26.25 -19.07)"/><path class="cls-10" d="M90.93,94c-4.63-3.2-6.8-8.09-9-13a1.64,1.64,0,0,1,1,0Z" transform="translate(-26.25 -19.07)"/><path class="cls-3" d="M119.83,46.06l1.43,0,8.46,7.2A16.77,16.77,0,0,1,119.83,46.06Z" transform="translate(-26.25 -19.07)"/><path class="cls-3" d="M178.56,54.34c2,2.86,4.26,5.62,1.6,10.3C179.72,60.42,179.78,57.19,178.56,54.34Z" transform="translate(-26.25 -19.07)"/><path class="cls-11" d="M137.63,122.23c-3.62-.41-7.12-1.17-10.2-3.27,3.29-1.33,5.89,2.87,9.23,1.17C138.18,120.28,137.78,121.31,137.63,122.23Z" transform="translate(-26.25 -19.07)"/><path class="cls-3" d="M157.69,125.76l-3.09-.87,2.22-1,6.86-.88c-.61,2.21-2.77,1.68-4,2.62Z" transform="translate(-26.25 -19.07)"/><path class="cls-3" d="M164,178.93l-4.21-3.74c-6.36-6.38-13.07-12.56-20.83-17-9.17-5.23-13-14.37-18.36-22.7,2.46,1.88,5,3.71,7.36,5.64s4.79,4.12,7.28,6.06c14.26,11.07,25.18,25.61,38.87,37.27,1.49,1.27,2.73,2.9,4.74,3.48a2.61,2.61,0,0,1,1.88.13c.42.64.85,1.27,1.27,1.9.71,2.68-.38,2.21-2,1.18A164.42,164.42,0,0,1,164,178.93Z" transform="translate(-26.25 -19.07)"/><path class="cls-12" d="M125.41,128.32A13,13,0,0,1,122,128c-1.3-.49-3.64-.56-3.47-2.15s1.54-3.26,2.83-4.37,2.71-.24,3.74,1.1c.48.63,1.41.92,1.86,1.56.89,1.29,4,.46,3.29,2.83C129.6,129.12,127.12,127.84,125.41,128.32Z" transform="translate(-26.25 -19.07)"/><path class="cls-3" d="M168.82,173c-6.24-7.19-12.89-14-17.85-22.27,7.27,6.22,13,13.8,18.88,21.22C170.23,173,169.76,173.24,168.82,173Z" transform="translate(-26.25 -19.07)"/><path class="cls-3" d="M135.89,132c-1.5-.14-2.58,1.64-4.21.95,0-3.4-2.57-1.75-3.94-1.78-4.67-.09-9.19-.47-12.9-3.87C121.44,130.81,129.63,126.9,135.89,132Z" transform="translate(-26.25 -19.07)"/><path class="cls-3" d="M168.82,173l1-1a85.07,85.07,0,0,1,10.83,16.13c-.63,0-1.35,1.27-1.88-.13C176.6,182.22,172.16,178,168.82,173Z" transform="translate(-26.25 -19.07)"/><path class="cls-13" d="M162.33,141.89c4,2.4,7.55,5.26,10,9.5L160.87,142Z" transform="translate(-26.25 -19.07)"/><path class="cls-14" d="M143.87,132.86c.62,3.26,4.91,2.27,6.35,5.86-3.39-1.49-6.11-2.65-8.41-4.7,0-.65-.89-1.45.19-1.89A1.33,1.33,0,0,1,143.87,132.86Z" transform="translate(-26.25 -19.07)"/><path class="cls-3" d="M109,118.47c-1.33-.54-2.29-1.41-2.21-2.94a1.27,1.27,0,0,1,1.66-1.31,2.63,2.63,0,0,1,2.24,2.83A1.63,1.63,0,0,1,109,118.47Z" transform="translate(-26.25 -19.07)"/><path class="cls-15" d="M96.88,100.14c-3.21-.9-5-3.16-6-6.21A19.51,19.51,0,0,1,96.88,100.14Z" transform="translate(-26.25 -19.07)"/></svg>