<svg id="Calque_1" data-name="Calque 1" xmlns="http://www.w3.org/2000/svg" viewBox="0 0 518 101.47"><defs><style>.cls-1{fill:#fffefe;}.cls-2{fill:#ce131d;}.cls-3{fill:#ce141c;}.cls-4{fill:#ce141b;}.cls-5{fill:#fff;}</style></defs><path class="cls-1" d="M532.61,41.31c-4.56-3.35-10.43-4.32-14.76-8.1A6.24,6.24,0,0,1,516,30.62a34.55,34.55,0,0,1-.34-9.41c.21-3.84-1.14-5.29-5.12-5.28-7.93,0-15.9.66-23.82-.4A2.81,2.81,0,0,1,485,13.58" transform="translate(-14.61 -13.58)"/><path class="cls-2" d="M179.08,113.35l-4.92-1.48c-.63-.19-1.39-.69-1.88-.51-3.93,1.45-6.76.52-8.95-3.22-.87-1.49-2.59-.86-3.87.29-1.11,1-3,1.33-3.41-.05-1.86-5.57-6.65-4.86-10.86-5.53-1.77-1.72-1.5-4-1.51-6.1q-.06-37.2,0-74.38c0-6.3.92-7.15,7.29-7.2q12-.11,24,0c6.67,0,7.14.52,7.15,7,0,18.13,0,36.27,0,54.41,0,10.13,0,20.27,0,30.39C182.49,109.79,180.61,111.49,179.08,113.35Z" transform="translate(-14.61 -13.58)"/><path class="cls-3" d="M457.13,53.47c1.3,2,3.32,1,5,1,15.27.15,30.54.19,45.8.25,0,6-.18,12,.13,18,.18,3.46-1.13,4.11-4.25,4.08-14-.15-28,.08-41.92-.15-3.94-.06-5.22,1.08-5.12,5,.23,9.48,0,19,.09,28.44,0,3.33.09,5.54-4.6,3.62-3-1.21-5.92-2-8.66-3.94s-6.11-.3-8.23,1.57c-2.29,2-3.82,2.89-6.26.62-2.13-2-4.85,1.27-7.48-.92-1.66-1.37-2.87-2.19-2.86-4.48q.21-44.91.31-89.81c1.28-1.17,2.85-.63,4.29-.63,29.09,0,58.18.05,87.27-.12,3.93,0,5.26,1,5,5a91.49,91.49,0,0,0,0,13.45c.29,4-1.16,5.23-5.06,5.2-15-.15-29.92-.07-44.88,0a57.93,57.93,0,0,0-7,.15,4.14,4.14,0,0,0-1.66,1Z" transform="translate(-14.61 -13.58)"/><path class="cls-2" d="M16.05,104.7l-1-.93c-.67-1.07-.43-2.26-.43-3.41q0-40.47,0-80.93A6.7,6.7,0,0,1,15,16.48c1.76-1.37,3.84-.86,5.78-.86q32.44-.06,64.88,0a51.09,51.09,0,0,1,9.87.93,32.35,32.35,0,0,1,19.06,6.17c13.11,9.12,12.48,26.07-1.1,34.65-1.49.94-3.48,1.17-4.63,3.32,3,1.37,6,2.56,8.8,4.08,12.9,7,16.91,23,8.3,35-3,4.11-8,5.93-13.16,6.79-1.45.24-3.28-.41-4.27.87-3.14,4.1-8.26,3.1-12.25,5-1.23.59-3.4.82-4.34.12-5.61-4.18-10.33.1-15.33,1.36a4.87,4.87,0,0,1-2.81.31c-4.64-1.46-9.15-2.21-13.75.51-1.92,1.14-4.2-.34-6.23-.82-5-1.17-9.73-3.28-15.15-.63-3.11,1.52-6.27-.62-6.47-4.1-.52-9.42-6.48-8.94-13.1-4.87C18,104.91,17.2,105.32,16.05,104.7Z" transform="translate(-14.61 -13.58)"/><path class="cls-3" d="M238.2,40.58q0,6.44,0,12.88c1.55,1.91,3.7,1,5.56,1,15.07.15,30.15.2,45.22.27,0,6-.14,12,.12,18,.14,3.28-.9,4.17-4.17,4.13-13.63-.19-27.26.1-40.88-.18-4.65-.09-6.49,1-6.18,6,.42,7,.18,14,.06,20.92-.07,4.41-7.84,8.54-11.63,6.33-1.92-1.12-3.73-1.23-5.43.42-2,1.91-3.62,1.33-4.81-.79-.69-1.23-1.9-1.83-2.71-2.82-1.38-1.71-2.91-2.75-5.14-2.11-2.58.75-1.95,3.14-2.57,5.15-.23-4.36-3.89-6-6.34-8.61.18-2.31.51-4.61.52-6.92q.06-36.33,0-72.68c0-2,.18-4,.27-5.94,30.91,0,61.83,0,92.74-.16,3.13,0,4.46.69,4.31,4.1-.29,6.3-.18,12.62-.24,18.94-1.84,1.62-4.08,1-6.17,1-16.68.09-33.37,0-50.05.09A4.88,4.88,0,0,0,238.2,40.58Z" transform="translate(-14.61 -13.58)"/><path class="cls-4" d="M348,77.6c-1.89,2-.89,4.41-.95,6.62-.15,6.13-.3,12.28,0,18.39.26,5.23-2.89,6.52-7,8-7.44,2.76-14.58-.82-21.88-.26-2,.16-4,.08-5.24,2-2.92-.11-3.94-1.8-3.94-4.52q.12-45.61.18-91.22c1.68-1.54,3.77-1.06,5.71-1.06q43.07,0,86.12,0c1.94,0,4-.5,5.72,1l.06,21.89c-1.68,1.55-3.76,1-5.69,1-16.07.05-32.14,0-48.21.05-1.95,0-4-.41-5.79.81-.6,14.13-.6,14.13,13.53,14.14,11.1,0,22.2.12,33.3-.06,3.29-.06,4.34,1,4.22,4.22-.21,5.95-.09,11.92-.11,17.89" transform="translate(-14.61 -13.58)"/><path class="cls-5" d="M53.08,38.43A96.14,96.14,0,0,1,81.72,39c3.68.6,6.39,2.9,6.37,7.13s-2.19,7.48-6.44,8.26A98.39,98.39,0,0,1,53,54.93,66.5,66.5,0,0,1,53.08,38.43Z" transform="translate(-14.61 -13.58)"/><path class="cls-5" d="M53,73.08c10.14-.64,20.27-1.28,30.38.35-1.15,1.61-3.07,1.63-4.68,2.27-5.92.87-11.89.43-17.83.41-3.79,0-5.53,1.42-5.19,5.27a27.54,27.54,0,0,1,0,4C55.52,88.8,57.27,90,60.53,90c3.8-.07,7.61-.06,11.41,0,2.13,0,4.34-.14,6.16,1.38A1.19,1.19,0,0,1,77.77,93c-8.27.72-16.54,1.33-24.77-.34l.07,0A93.84,93.84,0,0,1,53,73.08Z" transform="translate(-14.61 -13.58)"/><path class="cls-5" d="M78.23,92.5c0-.25,0-.5,0-.76,1.2-1.78,3.26-1.38,4.93-1.95,3.37-1.15,6.23-2.94,6.2-6.86s-2.73-5.81-6.2-6.82c-1.39-.4-3.05-.22-4-1.71,1.2-1.27,2.83-.64,4.25-1,7,1.85,8.95,4,8.76,9.84-.18,5.63-2.79,8.12-10,9.49C80.81,93.53,79.47,93.8,78.23,92.5Z" transform="translate(-14.61 -13.58)"/><path class="cls-5" d="M81.93,93.4l-28.81.15a1.93,1.93,0,0,1-.12-.89l25.23-.16c1.32.09,8.25-1.58,9.56-1.5A17.5,17.5,0,0,1,81.93,93.4Z" transform="translate(-14.61 -13.58)"/><path class="cls-5" d="M68.18,53.63c-4.43,0-7.77-.17-11.07,0-2.75.19-3.21-1-3.27-3.43-.25-10.68-.33-10.77,10.47-10.63,5.6.07,11.25-.69,16.8.89,3,.84,5.11,2.17,5.14,5.63s-1.69,5.38-4.9,6.56C76.64,54.44,71.81,53.06,68.18,53.63Z" transform="translate(-14.61 -13.58)"/><path class="cls-5" d="M79.15,74.4c7.67.42,12,3.52,11.89,8.54-.1,5.24-4.28,8.29-11.86,8.68-.33,0-.66.08-1,.12-6.94-.06-13.89-.22-20.84-.12-2.57,0-3.31-.74-3.43-3.34-.6-13.78-.69-13.77,12.83-13.78C70.88,74.5,75,74.43,79.15,74.4Z" transform="translate(-14.61 -13.58)"/></svg>