<svg id="Calque_1" data-name="Calque 1" xmlns="http://www.w3.org/2000/svg" viewBox="0 0 645.44 233.4"><defs><style>.cls-1{fill:#fffdfd;}.cls-2{fill:#ce0018;}.cls-3{fill:#0c0803;}.cls-4{fill:#fff;}.cls-5{fill:#161515;}.cls-6{fill:#222121;}.cls-7{fill:#484745;}.cls-8{fill:#ce0017;}.cls-9{fill:#ce0016;}.cls-10{fill:#0e0f01;}.cls-11{fill:#fffefd;}.cls-12{fill:#1c1c1c;}.cls-13{fill:#282523;}.cls-14{fill:#4e4e4b;}.cls-15{fill:#353434;}.cls-16{fill:#575656;}.cls-17{fill:#1d1816;}</style></defs><path class="cls-1" d="M1090.27,398.87c-1.57-3.38.69-5.19,2.87-7.05,14.29-12.16,30.59-18.44,49.55-17,1,.07,2,0,3.29,0-1.24-4.07-3.81-7.21-4.85-11.06-2.86-10.68,3.55-19.64,14.5-19.91a61,61,0,0,1,9.47.12c3.17.42,4-.74,4.29-3.65,1-8.6,1.8-17.2,2-25.86.2-8.19,3.58-12.13,11.57-13.65,17.14-3.26,32.06,2.2,45.92,11.78a66.58,66.58,0,0,1,16.88,16.09c6.29,8.86,6.25,19-3.51,26.06a116,116,0,0,0-17.24,15c-2.12,2.27-3,4.07,0,6.49,4.14,3.38,6.72,8.07,9.51,12.54,4.28,3.65,3.29,8.09,1.88,12.59a16.54,16.54,0,0,1-3.12,5.12c-2.71,2.25-1.08,4,.68,5.71a171.58,171.58,0,0,1,17.93,21.16,12.46,12.46,0,0,1,2.33,5.6c4.56,8.06,8.79,16.25,10.51,25.49a24.81,24.81,0,0,1,.6,3.91c0,1.61.29,3.42-1.54,4.38s-3.5,0-4.94-1.17c-6.37-5.12-11-11.86-16.51-17.79-.95-.61-2-1.12-3.19-1.81,1,.83.58,2,1.27,2.72a91.8,91.8,0,0,1,8.86,15.92c.73,1.83,1.89,3.91.06,5.51s-4.12,1-6.06.16a55.17,55.17,0,0,1-5.89-3.52,8.5,8.5,0,0,1-4.84-2.38c-2.66-2.18-5.56-4.1-7.64-7.1a72.77,72.77,0,0,0,5,9.09c1,1.33.9,3,1.36,4.54,1.09,3.22,4.44,6,1.75,10-.45.68.88,2.67,1.58,3.95,6,10.94,11,22.24,13.2,34.63A12.69,12.69,0,0,1,1248,530c-.49,2.59-2.85,3.26-5,3.32-2.29.07-2-2-2.21-3.69-1.39-12.47-5.88-23.85-12.76-34.5,1.19,6.74,2.41,13.46,3.55,20.2.44,2.62.71,5.26,1,7.9.17,1.43-.15,2.83-1.7,3.17a2.72,2.72,0,0,1-3.34-2.26c-1.17-5-3.83-9.51-5.45-14.35-.82-2.46-1.18-4.5-4.44-3-.62.28-1.25-.19-1.54-.89-2.84-1.71-3.34-5-5-7.49C1205,486,1195.92,476,1185.87,466.7a20.67,20.67,0,0,0-4.19-3.43c-10.51-8.92-22.09-16.31-33.71-23.64-3.88-2.45-9.31-3.8-7.29-10.53.38-1.28-1.73-1.74-2.76-2.5-4.56-3.36-10.43-4.32-14.76-8.1a6.31,6.31,0,0,1-1.86-2.59,34.61,34.61,0,0,1-.34-9.42c.21-3.83-1.14-5.28-5.12-5.27-7.93,0-15.9.65-23.82-.4A2.85,2.85,0,0,1,1090.27,398.87Z" transform="translate(-619.92 -299.91)"/><path class="cls-2" d="M784.39,498.63l-4.91-1.47c-.64-.2-1.4-.69-1.89-.51-3.93,1.44-6.76.52-9-3.22-.87-1.49-2.59-.86-3.87.29-1.11,1-2.95,1.33-3.41-.05-1.86-5.57-6.65-4.86-10.86-5.53-1.77-1.73-1.5-4-1.51-6.11q-.06-37.18,0-74.37c0-6.31.92-7.15,7.29-7.2q12-.1,24,0c6.67.05,7.14.53,7.15,7.06,0,18.13,0,36.27,0,54.4,0,10.14,0,20.27,0,30.4C787.8,495.08,785.92,496.77,784.39,498.63Z" transform="translate(-619.92 -299.91)"/><path d="M1147.47,371.87a18.66,18.66,0,0,1-4.15-7.84c-3-9.55,2.47-17.43,12.52-18.11,3.15-.21,6.4-.44,9.43.6,4.28,1.46,5.45-.6,6-4.36a184.72,184.72,0,0,0,2.07-25.84c0-8.82,3-12.17,11.8-13.66a47.27,47.27,0,0,1,25.47,3c13.19,5.2,24.73,12.88,33.15,24.58,6.64,9.24,5.59,16.86-3.47,23.68-6.66,5-13.28,10-18.5,16.57-1.9,2.42-2.39,4.15.4,6.43a41.37,41.37,0,0,1,9.53,12.07c4.11,7.32,2.43,13.89-4.79,17.92-1,.57-1.65.77-1.44,2-1.61.59-2.2-.43-2.64-1.67-.84-.18,2.15-2.17-.7-1.45a2,2,0,0,1-2-.89c.51-3.26,1.87-6.27,2.43-9.56.68-4-1-6.36-3.38-9.23-5.12-6.1-10.71-12.16-11.36-20.75-.18-2.35-1.52-3.18-3.47-3.52a11.17,11.17,0,0,1-8.75-6.66,3.38,3.38,0,0,0-3-2.32c-3.31-.07-5.6-1.7-7-5.48-2.3,4.37-3.72,8-3.84,12-.06,2-.1,4.11-1.47,5.7-2.72,3.14-1.25,5.39,1.28,7.58,5.1,4.41,9,9.84,12.47,15.49,4.89,7.91,11.21,13.43,20.75,14.64,2,.25,4.27.88,2.22,3.77-5.6,1.7-10.59-.71-15.69-2.36-.81-.64-1.22-1.63-2-2.27a33.13,33.13,0,0,1-7.77-9c-4.87-8.72-11.74-15.59-19.53-21.65a20.27,20.27,0,0,1-4.39-4.71c-2.5-3.67-3.7-7.42-1.19-11.6,2-3.29.67-4.89-2.83-5.34-1-.13-2-.28-3-.34-10.09-.58-13.21,2.2-13.58,12.11a1.68,1.68,0,0,1-.89.85c-.16,0-.36.05-.48,0-.44-.27-.62-.27-.46,0,1.5,2.74,3.43,5.29,3.76,8.55C1148.7,371.47,1148.36,372,1147.47,371.87Z" transform="translate(-619.92 -299.91)"/><path class="cls-3" d="M1147.47,371.87l.86-1c2.45-.19,3.21,1.94,4.3,3.38a53.88,53.88,0,0,0,8.84,9.08c13.21,11.17,28.58,17.86,45.2,22.1,4.82,1.23,9.51.8,14.28.45a4.28,4.28,0,0,1,2.23.61,3.46,3.46,0,0,0,2.27,2.34c16.66,16.2,31.6,33.52,37.22,56.93.41,1.7,1.71,4,0,5s-3.22-1.15-4.46-2.34a84.25,84.25,0,0,1-12.94-14.95c2.41-1,3.7.88,5.11,2.18,2.57,2.35,4.94,4.93,7.68,7.19-6.57-18.76-16.66-35.11-32.43-48.66-.87,2.55,1.85,3.47.36,4.73s-2.79-.2-3.9-.44c1.43.94,3.62,1.65,3.45,4.31a2.23,2.23,0,0,1-1.23.64c-4-.9-6.93-3.76-10.18-6a13.77,13.77,0,0,0-6.25-2.68c-1.27-.75-2.26-.08-3.25.65-2.23.19-4-1.1-5.93-1.84a13.4,13.4,0,0,0-9.76-2.76,12.14,12.14,0,0,1-7-1.27c3,1.76,6.29,1.11,9.49,1.34,1.8.12,4.27-.55,4.39,2.57-.7,1.64-2.53,1.4-4.11,2.5,7.57,4.1,15.31,7.42,22.45,11.85,6.05,3.76,12.32,7.2,17.61,12.08.08,1,.29,2.07-1.31,1.89-1.2-.39-2.27-1.48-3.79-.64,5.58,8.09,12.53,15.19,17.33,23.81,1,1.82,2.55,3.52,2.44,5.85a1.53,1.53,0,0,1-1.31.26,3.47,3.47,0,0,1-1.74-2.1c-2.56-5.91-6.8-10.71-10.61-15.78-5.19-6.62-11-12.74-16.08-19.42,5.15,6.84,11.06,13,16.31,19.79a149,149,0,0,1,9,12.48c.58.84,1.15,1.65.63,2.72-2.55,1-4.1-.9-5.62-2.23A135.85,135.85,0,0,1,1225.67,456a308.57,308.57,0,0,0-37.45-35,3.58,3.58,0,0,1-1.27-1.54c4.57,11.69,15.08,17.41,24.24,24.55,4.53,3.53,9.67,6.54,12.43,12-.18.76-.49,1.35-1.44,1l-4.76-4c-.68,3.21,1,5.57,2.17,7.91,3.51,6.78,7.19,13.47,10.87,20.16.56,1,1.86,2.33,1.07,3.06-3.54,3.27-.34,5.63,1,8.05,5.94,11,11.06,22.28,13.14,34.73.26,1.6,1.32,3.5-1.19,4s-1.85-2-1.92-3.08c-.62-9.15-3.78-17.59-7.84-25.55-4.46-8.75-7.63-18-11.49-26.95-.51-1.18-.9-2.55-2.53-3.23,3.08,16.23,7.1,32.14,8.77,48.49-2.8-6.59-5.51-13-7-20.18a152.65,152.65,0,0,0-8.93-27.82A164.31,164.31,0,0,0,1173,414.17a5.08,5.08,0,0,1-2.19-3.33c4,1.32,5.59,5.09,8.53,7.05.81.41,1.74.59,2,1-.54-.28-.41-1.39-.85-2.2-7.73-13.58-9.74-15.45-31.43-29.07-.63,5.87,0,11.4-.18,16.91-.23,7.22,1.7,11.47,9.63,13.46s14.77,7.11,19.84,14.19c-5.56-1.87-11.08-3.85-16.69-5.56a68.13,68.13,0,0,0-17-3.16c32.36,20.19,59.31,45.24,74.69,81-15.88-33.86-45.52-53.18-76.59-71.8,2.71-1.42,4.46,0,6.26.16s3.71,1.45,6.11.91c-5.32-4.31-11.33-7.11-17.37-11,4.53-1.84,8.6-.79,12.59-.73,2.43.88,5.18-.29,7.15,1.07a8.32,8.32,0,0,1-4.11-2.09c-.38-.89-.74-2.54-1.15-2.55-5.45-.17-4.76-4.75-4.54-7.51.91-11.33-6.61-17.41-13.79-23.85-1.77-1.58-4.22-2.43-5.07-5,7.72,2.78,12.46,9.13,17.94,15.65,1.12-5.29,0-10.11,1.22-14.71.53-2.05-1.19-1.87-2.51-2-16.88-2.15-32.36,1.22-46.08,11.63-2.21,1.68-4.45,3.31-6.76,5-1.1-2.27.8-2.79,1.78-3.65,14.21-12.41,30.72-18.1,49.59-16.91C1150.09,377.4,1150.09,377.34,1147.47,371.87Z" transform="translate(-619.92 -299.91)"/><path class="cls-4" d="M1225.83,422.73c-1.14-1-2.24-2-3.43-2.84s-2.41-1.63-3.71-2.49c2.72-1.81,4.62,1.25,7.16,1.41-.63-2.49-3.57-1.83-4.33-4,3.74-1.18,6.7-.86,9.7,2.32,12.8,13.57,22.84,28.75,28.57,46.61.24.77.36,1.57.72,3.15-4.69-3.11-7.58-7-11-10.37-1.25-1.22-2.07-3.1-4.26-3l.08-.08c-2.22-4.66-6.77-7-10.42-10.15-1.21-1.06-2.71-1.8-3.63-3.21-9.26-5.43-17.86-12-27.58-16.65-5-2.43-10-5.09-15.28-7.83,2.31-1.56,4.57-1.55,6.76-1.82,1.24-1,2.52-1.92,4.21-.95l5.92,2.05a42.57,42.57,0,0,1,4.24,1.86c-.74-1.11-3.54-.36-3-3,0-.08.24-.16.38-.17a1.9,1.9,0,0,1,.46.1c5.33-.25,8.46,3.85,12.44,6.25,1.55.93,3,1.92,4.57,2.89,3.05,1.29,5.34,3.67,7.75,5.27C1230.34,426.32,1227.46,425.25,1225.83,422.73Z" transform="translate(-619.92 -299.91)"/><path class="cls-5" d="M1245.45,470.84a4.13,4.13,0,0,1,.93,0c1.24,1.05,2,2.66,1,3.81s-2.74.28-4-.47c-6.31-3.66-11.72-8.46-17.05-13.37-.26-.91.28-1.25,1-1.44,3.43.77,5.46,3.56,8,5.6C1238.45,467.42,1241.27,470.28,1245.45,470.84Z" transform="translate(-619.92 -299.91)"/><path class="cls-6" d="M1231.28,440.06a26.23,26.23,0,0,1,14,13.36c-4.28-4.76-10.28-7.32-14.93-11.61Z" transform="translate(-619.92 -299.91)"/><path class="cls-4" d="M1153.29,420.92c2.7,1,5.85,1,8.69,4.35l-11.73-3.33C1151.2,421.4,1152.64,422.35,1153.29,420.92Z" transform="translate(-619.92 -299.91)"/><path class="cls-7" d="M1227.44,459.77l-1.1,1a11.23,11.23,0,0,1-4.16-3.85l1.06-.91C1226.18,455.55,1227.17,457.26,1227.44,459.77Z" transform="translate(-619.92 -299.91)"/><path class="cls-4" d="M1180.41,416.71l4.06,5.35a8.55,8.55,0,0,1-5.18-4.17Z" transform="translate(-619.92 -299.91)"/><path class="cls-8" d="M1062.44,438.75c1.3,2,3.32,1,5,1.05,15.27.15,30.54.18,45.8.25,0,6-.18,12,.13,18,.18,3.46-1.13,4.1-4.25,4.07-14-.14-27.95.09-41.92-.14-3.94-.07-5.22,1.08-5.12,5,.23,9.47,0,19,.09,28.44,0,3.32.09,5.54-4.6,3.62-3-1.21-5.92-2-8.66-3.94s-6.11-.3-8.23,1.56c-2.29,2-3.82,2.89-6.26.63-2.13-2-4.85,1.27-7.48-.92-1.66-1.38-2.87-2.19-2.86-4.49q.21-44.89.31-89.8c1.28-1.18,2.86-.63,4.29-.64,29.09,0,58.18,0,87.27-.11,3.93,0,5.26,1,5,5a91.49,91.49,0,0,0,0,13.45c.29,4-1.16,5.23-5.06,5.19-15-.14-29.92-.06-44.88-.05a57.93,57.93,0,0,0-7,.16,4.24,4.24,0,0,0-1.66,1Z" transform="translate(-619.92 -299.91)"/><path class="cls-2" d="M621.36,490l-1-.92c-.67-1.07-.43-2.26-.43-3.41q0-40.47,0-80.93a6.77,6.77,0,0,1,.34-3c1.76-1.36,3.84-.85,5.78-.86q32.45-.06,64.88,0a50.31,50.31,0,0,1,9.87.93A32.28,32.28,0,0,1,719.88,408c13.11,9.12,12.48,26.07-1.1,34.64-1.49.94-3.48,1.18-4.63,3.33,3,1.37,6,2.55,8.8,4.08,12.9,7,16.92,23,8.3,35-3,4.11-8,5.93-13.16,6.78-1.45.25-3.28-.4-4.27.88-3.14,4.09-8.26,3.1-12.25,5-1.23.58-3.4.82-4.34.12-5.61-4.18-10.33.1-15.33,1.36a4.87,4.87,0,0,1-2.81.31c-4.64-1.47-9.15-2.22-13.75.51-1.92,1.14-4.2-.35-6.23-.82-5-1.18-9.73-3.28-15.15-.63-3.11,1.52-6.27-.63-6.47-4.1-.52-9.42-6.48-8.94-13.1-4.87C623.26,490.2,622.51,490.61,621.36,490Z" transform="translate(-619.92 -299.91)"/><path class="cls-8" d="M843.51,425.87q0,6.44,0,12.88c1.55,1.91,3.7,1,5.56,1,15.07.16,30.15.2,45.22.28,0,6-.14,12,.12,17.94.14,3.29-.9,4.18-4.17,4.14-13.63-.19-27.26.1-40.88-.18-4.65-.09-6.49,1-6.18,6,.42,7,.18,14,.06,20.93-.07,4.4-7.84,8.54-11.63,6.32-1.92-1.12-3.73-1.22-5.43.43-2,1.91-3.62,1.32-4.81-.8-.69-1.22-1.9-1.82-2.71-2.82-1.38-1.7-2.91-2.75-5.14-2.1-2.58.74-2,3.14-2.57,5.15-.23-4.36-3.89-6-6.34-8.61.18-2.31.51-4.62.52-6.92q.06-36.35,0-72.68c0-2,.18-4,.27-5.95,30.91,0,61.83,0,92.74-.16,3.13,0,4.46.7,4.31,4.11-.29,6.3-.18,12.62-.24,18.93-1.84,1.62-4.08,1-6.17,1-16.68.08-33.37,0-50,.09A4.8,4.8,0,0,0,843.51,425.87Z" transform="translate(-619.92 -299.91)"/><path class="cls-9" d="M953.34,462.89c-1.89,2-.89,4.41-1,6.62-.15,6.13-.3,12.27,0,18.39.26,5.23-2.89,6.51-7,8-7.44,2.76-14.58-.83-21.88-.26-2,.16-4,.08-5.24,2-2.92-.1-3.94-1.79-3.94-4.51q.12-45.62.18-91.22c1.68-1.54,3.77-1.06,5.71-1.06q43.07,0,86.12,0c1.94,0,4-.51,5.72,1l.06,21.89c-1.68,1.55-3.76,1-5.69,1-16.07.05-32.14,0-48.21,0-2,0-4-.4-5.79.82-.6,14.13-.6,14.13,13.53,14.14,11.1,0,22.21.12,33.3-.07,3.29,0,4.34,1,4.22,4.22-.21,6-.09,11.93-.11,17.89" transform="translate(-619.92 -299.91)"/><path class="cls-10" d="M1217.31,405.58c-.38-1.79-1.79-1.62-3.13-1.72-9.33-.68-15.52-6-20.3-13.57-4.25-6.74-9-13.16-15.07-18.4-2.36-2-3.52-4.11-.49-6.5,2-1.53,2.24-3.63,2-5.85-.55-4.75,2.63-8.5,3.34-12.91a1.62,1.62,0,0,1,1.86-1.32,1.87,1.87,0,0,1,1.63,1.66c.53,3.76,2.45,5.18,6.23,4.14,1.54-.42,2.53.63,2.88,2.09,1.19,4.94,4.76,7.09,9.38,7.5,3.07.27,4,1.36,3.57,4.39-.54,3.8,1.5,6.57,3.51,9.8,3.29,5.3,8.24,9.49,10.84,14.73,2.22,4.46.73,10.67-3.22,15.14-.37,1-1.29,1.15-2.12,1.46A.69.69,0,0,1,1217.31,405.58Z" transform="translate(-619.92 -299.91)"/><path class="cls-4" d="M1146.45,361.87c-1.82-9.81,1.67-14,11.71-14a35.34,35.34,0,0,1,4.49.19c7.74,1,7.91,1.32,4.49,8.41-2,4.22-.77,9.14,4.69,13.18a79.84,79.84,0,0,1,21.89,24.51,23.86,23.86,0,0,0,6.44,6.77c0,2.26-1.68,1.46-2.77,1.33-2-.23-3.78-1.2-5.77-1.41-11.47-3.7-21.34-10.17-30.5-17.83a6.1,6.1,0,0,1-1.58-1.37c-1.55-2.23-3.68-3.93-5.46-6a6.21,6.21,0,0,1-.79-1.13C1151.13,370.29,1146.85,367.12,1146.45,361.87Z" transform="translate(-619.92 -299.91)"/><path class="cls-4" d="M1183.32,326.9l-1.07-.18c-1.54-.36-2.1-1.71-2.89-2.84a28.59,28.59,0,0,1-4-11c1-4.94,4.46-7.15,9-8,11.13-2,21.44.71,31.18,6a93.23,93.23,0,0,1,20.93,15.93c1.82,1.8,3.85,3.62,4,7.11a69.73,69.73,0,0,0-34.11-17.53,48.51,48.51,0,0,0-15.39-.55c-7,.87-8.94,4.39-6.19,11A1,1,0,0,1,1183.32,326.9Z" transform="translate(-619.92 -299.91)"/><path class="cls-1" d="M1180.87,323.94l1.38,2.78c-.8,9.89-1.17,19.84-4,29.45-.92,3.16-2,6.27-3.13,9.37s-2,2.44-3.74.18c-2-2.62-2.88-5-1.77-8.24,3.85-11.1,4.9-22.62,4.81-34.29,1-2.31-.32-4.92,1.1-7.68C1177.85,318.21,1177.62,322.28,1180.87,323.94Z" transform="translate(-619.92 -299.91)"/><path class="cls-11" d="M1161.81,381.82a99.88,99.88,0,0,0,29.12,18c3.38,1.16,6.94,1.75,10.2,3.27,5.32,1.3,10.49,3.57,16.18,2.51a2.63,2.63,0,0,0,.79.15c1.15-.16,2.56-1.19,3.09.87-11.54,1.73-22.27-1.58-32.74-5.67a89.46,89.46,0,0,1-28.08-17.13C1159.91,382.46,1160.92,382.18,1161.81,381.82Z" transform="translate(-619.92 -299.91)"/><path class="cls-4" d="M1161.81,381.82l-1.44,2c-5-3.4-8.33-8.33-12-12.92-1.08-3.14-3.48-5.73-3.84-9.17,0-.16,0-.41,0-.46.75-.52.59.43.93.59,3.17,4.21,5.21,9.2,9,13l-.07-.06a21.18,21.18,0,0,0,6,6.2Z" transform="translate(-619.92 -299.91)"/><path class="cls-12" d="M1180.87,323.94c-4-.58-3.62-4.62-5.54-7.17-.32,2.29-.6,4.36-.88,6.42-.1-3.46-1.35-7,.87-10.28C1178.78,315.78,1177.73,320.91,1180.87,323.94Z" transform="translate(-619.92 -299.91)"/><path class="cls-13" d="M1154.43,374.84c-4.63-3.2-6.8-8.09-9-13a1.64,1.64,0,0,1,1,0Z" transform="translate(-619.92 -299.91)"/><path class="cls-4" d="M1183.32,326.9l1.44,0,8.46,7.2A16.82,16.82,0,0,1,1183.32,326.9Z" transform="translate(-619.92 -299.91)"/><path class="cls-4" d="M1242.06,335.19c2,2.85,4.26,5.61,1.6,10.29C1243.22,341.26,1243.28,338,1242.06,335.19Z" transform="translate(-619.92 -299.91)"/><path class="cls-14" d="M1201.13,403.07a21.78,21.78,0,0,1-10.2-3.27c3.29-1.33,5.89,2.87,9.23,1.17C1201.68,401.12,1201.28,402.15,1201.13,403.07Z" transform="translate(-619.92 -299.91)"/><path class="cls-4" d="M1221.19,406.6l-3.09-.87,2.22-1,6.86-.88c-.61,2.21-2.77,1.68-4,2.62Z" transform="translate(-619.92 -299.91)"/><path class="cls-4" d="M1227.44,459.77l-4.2-3.73c-6.36-6.39-13.07-12.56-20.83-17-9.17-5.23-13-14.37-18.36-22.69,2.46,1.87,5,3.7,7.36,5.64s4.79,4.11,7.28,6.05c14.26,11.07,25.18,25.61,38.87,37.27,1.49,1.27,2.73,2.9,4.73,3.49a2.63,2.63,0,0,1,1.89.12l1.27,1.91c.71,2.67-.38,2.2-2,1.17A165.76,165.76,0,0,1,1227.44,459.77Z" transform="translate(-619.92 -299.91)"/><path class="cls-2" d="M1188.91,409.16a13,13,0,0,1-3.37-.36c-1.31-.49-3.64-.56-3.47-2.15s1.53-3.26,2.83-4.37,2.71-.24,3.74,1.1c.48.63,1.41.92,1.86,1.56.89,1.29,4,.46,3.28,2.83C1193.1,410,1190.62,408.69,1188.91,409.16Z" transform="translate(-619.92 -299.91)"/><path class="cls-4" d="M1232.32,453.85c-6.24-7.18-12.89-14-17.85-22.27,7.26,6.22,13,13.8,18.87,21.22C1233.73,453.87,1233.26,454.09,1232.32,453.85Z" transform="translate(-619.92 -299.91)"/><path class="cls-4" d="M1199.39,412.81c-1.51-.13-2.58,1.64-4.21.95,0-3.4-2.57-1.75-3.94-1.77-4.68-.09-9.19-.47-12.9-3.88C1184.94,411.65,1193.13,407.74,1199.39,412.81Z" transform="translate(-619.92 -299.91)"/><path class="cls-4" d="M1232.32,453.85l1-1.05a85,85,0,0,1,10.84,16.13c-.63,0-1.35,1.28-1.88-.12C1240.1,463.07,1235.66,458.83,1232.32,453.85Z" transform="translate(-619.92 -299.91)"/><path class="cls-15" d="M1225.83,422.73c4,2.4,7.54,5.26,10,9.5l-11.42-9.39Z" transform="translate(-619.92 -299.91)"/><path class="cls-16" d="M1207.36,413.7c.63,3.26,4.92,2.27,6.36,5.86-3.39-1.49-6.11-2.65-8.41-4.7,0-.65-.89-1.45.19-1.89A1.33,1.33,0,0,1,1207.36,413.7Z" transform="translate(-619.92 -299.91)"/><path class="cls-4" d="M1172.53,399.31c-1.32-.54-2.28-1.41-2.2-2.93a1.26,1.26,0,0,1,1.66-1.31,2.59,2.59,0,0,1,2.23,2.82A1.62,1.62,0,0,1,1172.53,399.31Z" transform="translate(-619.92 -299.91)"/><path class="cls-4" d="M658.39,423.71a95.81,95.81,0,0,1,28.64.53c3.68.59,6.39,2.9,6.37,7.12s-2.19,7.48-6.44,8.27a98.39,98.39,0,0,1-28.62.59A66.58,66.58,0,0,1,658.39,423.71Z" transform="translate(-619.92 -299.91)"/><path class="cls-4" d="M658.33,458.36c10.14-.63,20.27-1.27,30.38.35-1.15,1.62-3.07,1.63-4.68,2.28-5.92.87-11.89.43-17.83.41-3.79,0-5.53,1.42-5.19,5.26a27.69,27.69,0,0,1,0,4c-.19,3.46,1.56,4.69,4.82,4.63,3.8-.06,7.61-.06,11.41,0,2.13.05,4.34-.13,6.16,1.38a1.2,1.2,0,0,1-.33,1.63c-8.27.72-16.54,1.33-24.77-.34l.07-.05A93.84,93.84,0,0,1,658.33,458.36Z" transform="translate(-619.92 -299.91)"/><path class="cls-4" d="M683.54,477.79c0-.25,0-.51,0-.76,1.2-1.78,3.26-1.39,4.93-2,3.37-1.14,6.23-2.93,6.2-6.86s-2.73-5.8-6.2-6.81c-1.39-.4-3-.22-4-1.72,1.2-1.26,2.83-.63,4.25-1,7,1.86,8.95,4,8.76,9.84-.18,5.63-2.79,8.12-10,9.5C686.12,478.82,684.78,479.09,683.54,477.79Z" transform="translate(-619.92 -299.91)"/><path class="cls-4" d="M687.24,478.68l-28.81.16a2,2,0,0,1-.12-.89l25.23-.16c1.32.09,8.25-1.59,9.56-1.5A17.57,17.57,0,0,1,687.24,478.68Z" transform="translate(-619.92 -299.91)"/><path class="cls-17" d="M1160.38,381c-3.21-.9-5-3.16-6-6.2A19.48,19.48,0,0,1,1160.38,381Z" transform="translate(-619.92 -299.91)"/><path class="cls-4" d="M673.49,438.92c-4.43,0-7.77-.18-11.07.05-2.75.19-3.21-1-3.27-3.44-.25-10.67-.33-10.77,10.47-10.63,5.6.08,11.25-.68,16.8.89,3,.85,5.11,2.18,5.14,5.64s-1.69,5.38-4.9,6.56C682,439.72,677.12,438.35,673.49,438.92Z" transform="translate(-619.92 -299.91)"/><path class="cls-4" d="M684.46,459.68c7.67.42,12,3.52,11.89,8.54-.1,5.24-4.28,8.3-11.86,8.69-.33,0-.66.08-1,.12-6.94-.06-13.89-.23-20.84-.12-2.57,0-3.31-.74-3.43-3.35-.6-13.78-.69-13.76,12.83-13.77C676.19,459.79,680.33,459.72,684.46,459.68Z" transform="translate(-619.92 -299.91)"/></svg>