
<svg version="1.0" xmlns="http://www.w3.org/2000/svg"
 width="1280.000000pt" height="1280.000000pt" viewBox="0 0 1280.000000 1280.000000"
 preserveAspectRatio="xMidYMid meet">

<g transform="translate(0.000000,1280.000000) scale(0.100000,-0.100000)"
fill="#CD270F" stroke="none">
<path d="M2585 10980 c10 -11 20 -20 23 -20 3 0 -3 9 -13 20 -10 11 -20 20
-23 20 -3 0 3 -9 13 -20z"/>
<path d="M2726 10854 c56 -56 124 -114 150 -129 27 -16 65 -43 84 -60 19 -18
51 -40 71 -49 20 -9 49 -31 66 -49 116 -124 174 -176 218 -197 43 -21 87 -49
189 -120 51 -36 76 -64 64 -71 -8 -5 -2 -12 17 -21 22 -10 29 -10 33 0 2 6 11
12 20 12 13 0 11 5 -8 20 -14 11 -28 20 -32 20 -21 0 -370 244 -389 272 -29
41 -28 40 -118 132 -55 56 -82 76 -100 76 -14 0 -46 14 -71 30 -25 17 -59 38
-77 46 -30 15 -48 30 -169 142 -27 26 -4 1 52 -54z"/>
<path d="M4155 10640 c-21 -23 -14 -46 20 -62 14 -6 25 -15 25 -20 0 -4 9 -8
21 -8 16 0 19 4 14 18 -4 9 -10 28 -12 42 -5 23 -28 50 -43 50 -4 0 -15 -9
-25 -20z"/>
<path d="M2830 10526 c0 -20 16 -29 73 -42 45 -11 68 -2 28 11 -10 3 -26 14
-36 25 -21 23 -65 27 -65 6z"/>
<path d="M5147 10463 c-11 -10 -8 -63 3 -63 6 0 10 16 10 35 0 36 -2 40 -13
28z"/>
<path d="M4783 10416 c-13 -6 -23 -17 -23 -25 0 -8 -13 -29 -29 -46 -28 -30
-29 -31 -15 -76 15 -50 86 -139 112 -139 14 0 14 2 -1 18 -34 35 -64 78 -71
100 -9 28 11 92 29 92 8 0 15 16 17 43 3 23 4 42 4 43 -1 0 -11 -5 -23 -10z"/>
<path d="M4403 10345 c30 -59 107 -128 107 -97 0 12 -20 34 -74 83 -46 41 -48
42 -33 14z"/>
<path d="M5137 10363 c-12 -11 -7 -33 7 -33 9 0 16 -16 20 -42 4 -24 11 -50
17 -58 11 -17 6 24 -13 98 -10 41 -18 49 -31 35z"/>
<path d="M3690 10332 c0 -12 19 -26 26 -19 2 2 -2 10 -11 17 -9 8 -15 8 -15 2z"/>
<path d="M5104 10279 c-18 -20 -13 -24 14 -10 14 7 17 4 19 -20 2 -29 -10 -39
-23 -18 -4 8 -9 7 -15 -2 -15 -23 -10 -39 9 -32 16 5 16 5 1 -12 -24 -25 -59
-4 -59 35 0 17 -4 30 -9 30 -5 0 -7 -8 -4 -19 3 -10 0 -22 -7 -26 -8 -5 -6
-12 6 -26 12 -13 14 -26 9 -46 -6 -25 -8 -26 -14 -9 -6 14 -10 16 -15 7 -4 -6
-2 -19 5 -27 10 -13 10 -17 -1 -24 -11 -7 -12 -13 -1 -36 9 -20 9 -29 0 -34
-6 -4 -8 -16 -4 -29 3 -11 2 -21 -3 -21 -5 0 -14 -12 -21 -27 l-12 -27 -32 57
c-58 103 -65 107 -159 106 -85 -1 -106 -7 -139 -40 -19 -19 -41 -26 -37 -11 6
17 -40 54 -59 48 -14 -5 -31 6 -62 39 -24 26 -46 44 -49 41 -3 -4 4 -17 16
-29 12 -13 19 -26 16 -29 -16 -16 10 -48 45 -58 52 -14 67 -33 52 -66 -6 -14
-9 -30 -6 -35 4 -5 0 -9 -8 -9 -22 0 -66 38 -93 82 -14 21 -33 41 -42 44 -9 3
-25 10 -35 15 -13 7 -23 6 -33 -2 -11 -9 -18 -9 -26 -1 -18 18 -58 14 -65 -5
-4 -10 8 -43 30 -84 38 -68 49 -105 25 -81 -7 7 -16 12 -21 12 -10 0 37 -39
78 -64 l30 -19 -32 35 c-18 19 -33 40 -33 48 0 8 -14 38 -30 65 -46 78 -36
115 21 75 16 -12 33 -20 36 -16 3 3 18 -5 34 -17 15 -12 38 -29 51 -38 20 -14
79 -117 91 -159 6 -21 -22 -66 -50 -81 -20 -11 -27 -9 -51 13 -29 27 -60 42
-79 39 -7 -1 -38 14 -68 34 -56 36 -79 45 -57 23 18 -18 15 -36 -8 -43 -13 -4
-66 18 -162 66 -79 40 -149 77 -157 83 -7 5 -54 27 -103 48 l-89 37 40 -48
c22 -26 47 -48 55 -48 8 0 13 4 10 9 -16 25 107 -18 155 -54 31 -23 27 -23
-49 7 l-63 25 23 -25 c13 -14 29 -24 35 -21 7 2 12 -2 12 -9 0 -7 -5 -12 -11
-10 -85 25 -216 72 -233 83 -13 8 -23 20 -23 27 0 14 -72 65 -92 65 -21 1 -46
25 -57 53 -11 29 -41 37 -41 11 0 -22 56 -70 105 -89 28 -10 48 -26 56 -44 8
-15 16 -28 19 -29 6 -1 31 -10 110 -42 98 -39 211 -117 138 -95 -16 5 -20 4
-13 -3 16 -16 157 -52 203 -52 47 0 147 -44 137 -60 -9 -14 -24 -12 -41 5 -9
8 -23 15 -32 15 -16 -1 -16 -1 0 -13 10 -8 14 -18 8 -26 -9 -16 -33 -5 -24 12
3 7 -2 3 -10 -7 -21 -26 -20 -36 3 -36 10 0 29 -9 42 -19 20 -16 21 -20 8 -26
-19 -7 -64 9 -86 30 -8 8 -19 13 -23 10 -5 -3 -17 -1 -27 4 -37 21 -96 41
-122 41 -23 0 -21 -3 15 -19 48 -22 61 -38 45 -54 -8 -8 -20 -7 -44 5 -17 9
-48 22 -67 29 -39 15 -100 51 -100 60 0 9 53 -2 68 -14 9 -7 11 -6 6 6 -3 9
-19 20 -35 26 -16 5 -29 15 -29 20 0 6 -20 11 -44 11 -27 0 -51 6 -60 16 -30
30 -19 37 45 30 56 -5 60 -5 48 11 -13 15 -9 16 46 11 90 -9 33 8 -75 22 -52
7 -112 19 -133 27 -21 9 -40 13 -43 10 -3 -2 24 -15 60 -28 36 -13 66 -27 66
-31 0 -15 -124 -8 -144 7 -11 8 -27 15 -35 15 -10 -1 -4 -7 12 -16 15 -8 25
-19 22 -24 -4 -6 -1 -10 5 -10 8 0 10 -9 6 -23 -9 -39 28 -65 104 -72 36 -4
70 -11 75 -17 7 -7 1 -8 -20 -4 -43 8 -113 11 -120 4 -3 -3 29 -11 72 -17 170
-26 202 -50 176 -129 -17 -47 -7 -72 28 -72 26 0 34 19 13 34 -17 13 -16 15 3
47 11 19 26 32 34 31 8 -2 50 -11 94 -19 93 -17 128 -32 78 -33 -21 0 -32 -5
-30 -12 1 -8 -8 -13 -21 -13 -14 0 -28 -10 -35 -25 -7 -14 -21 -29 -32 -35
-16 -8 -20 -20 -20 -60 0 -46 -3 -51 -43 -82 -24 -18 -56 -34 -70 -34 -17 -1
-21 -3 -9 -6 9 -2 17 -11 17 -19 0 -14 -39 -20 -106 -16 -17 2 -36 -4 -43 -12
-9 -10 -31 -13 -84 -11 -57 3 -67 1 -50 -7 21 -10 22 -12 5 -25 -15 -13 -15
-13 5 -4 27 13 113 14 113 2 0 -5 -25 -17 -56 -26 -70 -20 -67 -29 4 -10 50
13 53 12 47 -5 -4 -13 1 -22 17 -30 22 -10 22 -10 4 4 -16 13 -17 18 -6 31 7
8 19 15 27 15 8 0 27 8 41 19 53 36 155 55 222 40 26 -6 39 -4 55 9 20 17 20
17 1 -6 -11 -12 -26 -21 -35 -20 -10 2 -15 -3 -13 -14 2 -10 -2 -18 -8 -18 -5
0 -10 -5 -10 -11 0 -8 5 -7 16 2 8 7 38 14 65 15 l49 2 -20 -28 -19 -27 22 4
c15 3 26 -3 35 -17 11 -19 10 -22 -20 -35 -48 -21 -81 -52 -74 -70 3 -8 1 -15
-5 -15 -6 0 -17 -7 -25 -15 -12 -11 -12 -15 -2 -15 20 1 51 27 44 39 -7 10 39
51 57 51 6 0 -2 -14 -19 -32 -16 -18 -22 -27 -13 -20 11 9 24 10 41 3 21 -8
33 -2 94 50 73 62 116 80 73 32 -17 -20 -18 -23 -3 -10 31 26 41 21 14 -8 -12
-13 -27 -22 -32 -19 -5 3 -6 -6 -2 -20 11 -44 10 -61 -3 -59 -7 2 -13 -4 -13
-12 0 -25 13 -18 49 28 12 15 12 17 -3 11 -20 -8 -20 -5 -1 40 13 31 19 35 45
32 24 -3 35 2 50 25 12 15 29 31 40 34 11 4 20 11 20 16 0 6 -4 7 -10 4 -5 -3
-10 -2 -10 4 0 6 10 15 21 22 17 9 20 8 14 -2 -6 -9 -3 -11 9 -6 10 4 24 7 32
7 8 0 14 6 14 13 0 12 72 49 155 80 47 17 165 40 172 33 3 -2 2 -14 -2 -26 -8
-26 -130 -147 -156 -155 -17 -6 -17 -8 -5 -21 10 -9 36 -14 77 -14 l63 0 -22
-20 c-12 -11 -27 -20 -34 -20 -16 -1 -72 -49 -65 -56 3 -3 21 0 41 7 20 7 39
10 43 6 4 -4 -18 -33 -49 -65 -65 -67 -69 -77 -58 -128 7 -32 5 -46 -15 -84
-31 -61 -38 -83 -23 -78 7 3 15 17 19 32 16 60 46 71 72 27 23 -40 7 -85 -35
-100 -25 -9 -29 -15 -24 -33 3 -13 6 -26 6 -30 0 -18 42 -6 74 22 29 26 33 35
27 58 -4 15 -6 32 -4 38 2 7 -10 27 -27 45 -48 53 -48 66 1 111 l44 40 -46
-36 c-25 -20 -49 -33 -52 -29 -4 3 -7 22 -7 40 0 29 10 45 60 95 33 34 60 69
60 79 0 23 21 34 97 50 61 13 61 12 108 -18 45 -29 46 -31 27 -42 -12 -6 -19
-17 -16 -25 4 -10 -24 -38 -80 -82 -101 -79 -178 -183 -154 -208 13 -12 16
-11 27 6 7 11 25 24 41 29 20 8 27 15 23 26 -6 14 1 15 47 10 29 -4 55 -9 59
-12 3 -3 -9 -17 -27 -31 -18 -14 -32 -31 -32 -37 0 -7 -21 -37 -46 -67 -87
-106 -88 -114 -1 -36 80 73 103 97 77 81 -22 -14 -8 13 22 41 17 16 27 22 23
14 -6 -10 -2 -10 12 3 19 17 22 17 37 2 24 -24 19 -83 -9 -130 -14 -22 -25
-50 -25 -62 0 -13 -6 -23 -13 -23 -16 0 -57 -41 -57 -57 0 -17 28 -35 56 -35
20 0 25 -4 21 -19 -3 -11 -1 -17 4 -13 19 11 7 -11 -40 -75 -43 -59 -95 -146
-59 -99 7 9 31 43 53 75 37 54 40 56 43 31 2 -14 -9 -50 -23 -79 -27 -51 -26
-60 8 -71 4 -2 0 -19 -9 -37 -9 -19 -17 -46 -17 -60 0 -45 12 -133 18 -140 12
-11 34 30 61 115 27 85 44 111 65 98 8 -5 10 -27 5 -75 -3 -37 -2 -70 3 -73 4
-3 6 -16 4 -28 -2 -13 0 -34 6 -48 9 -23 10 -21 10 18 1 28 8 49 20 61 11 11
23 36 27 55 3 20 9 36 13 36 7 0 51 -63 51 -74 0 -4 10 -21 21 -38 l22 -30
-49 -49 c-46 -46 -74 -61 -74 -39 0 6 -4 10 -10 10 -14 0 -1 -27 16 -34 9 -4
36 16 72 53 31 32 63 56 70 53 7 -2 20 -1 29 2 12 5 14 9 5 18 -7 7 -12 19
-12 27 0 36 33 -20 45 -76 l12 -58 0 70 c-1 93 4 181 12 192 3 5 14 12 23 16
16 6 18 -1 17 -63 -1 -49 -5 -68 -13 -64 -6 3 0 -3 13 -14 22 -18 23 -24 19
-95 -5 -82 -21 -115 -44 -96 -8 6 -14 20 -14 30 0 11 -5 19 -10 19 -6 0 -9 -6
-8 -12 2 -8 -6 -12 -19 -10 -12 2 -24 -2 -28 -8 -3 -5 -26 -10 -51 -10 -33 0
-44 4 -44 16 0 26 -33 11 -43 -20 -7 -22 -5 -37 12 -71 25 -51 27 -112 5 -240
-28 -172 -28 -171 -5 -226 13 -28 43 -83 69 -123 l46 -71 3 -211 c2 -237 17
-323 78 -444 32 -64 33 -66 24 -154 -8 -88 -6 -106 11 -106 16 0 32 40 22 53
-5 7 -12 35 -16 63 -5 43 -3 53 14 69 12 11 24 15 29 9 4 -5 18 -47 30 -94 13
-47 29 -105 37 -129 8 -25 14 -57 14 -72 0 -15 5 -31 11 -35 13 -7 7 43 -15
136 -56 233 -56 237 0 448 25 98 26 107 14 175 -7 40 -19 82 -26 94 -8 12 -14
29 -14 38 0 8 -15 37 -33 63 -98 141 -110 191 -110 497 -1 195 6 262 24 234 6
-10 9 -10 9 -1 0 7 -6 21 -12 32 -11 18 -9 23 15 43 24 19 28 32 34 89 9 103
23 77 36 -70 8 -78 17 -57 17 37 0 89 1 92 25 101 29 11 46 48 47 102 1 51 14
48 24 -4 9 -48 9 -47 17 -68 4 -13 39 -156 51 -212 2 -10 1 -20 -4 -23 -12 -8
2 -57 27 -96 17 -26 25 -55 28 -102 3 -36 14 -85 25 -109 11 -23 20 -51 20
-62 0 -25 53 -176 61 -176 7 0 2 18 -30 130 -33 117 -43 157 -40 170 5 26 -33
173 -52 205 -11 16 -19 39 -19 50 0 11 -7 49 -15 85 -8 36 -22 99 -31 140 -22
95 -34 301 -20 315 6 6 10 30 8 54 -2 24 0 47 5 52 11 11 87 -90 88 -118 2
-27 15 -44 15 -19 0 9 7 19 15 22 11 5 7 12 -15 30 -34 29 -63 81 -49 90 14 8
11 22 -8 42 -20 21 -53 76 -53 89 0 4 4 14 9 21 6 11 14 8 35 -11 16 -15 23
-28 17 -32 -10 -6 7 -45 20 -45 8 0 -2 63 -13 77 -14 18 -28 73 -18 73 18 0
62 -90 58 -115 -3 -13 -2 -22 3 -20 4 3 10 -3 14 -14 3 -11 12 -22 20 -25 8
-3 15 -14 15 -24 0 -10 5 -23 11 -29 6 -6 12 -28 14 -48 2 -21 8 -41 14 -44 5
-4 15 -28 21 -55 6 -27 15 -56 21 -65 12 -18 9 -4 -16 84 -8 28 -17 60 -21 73
-4 13 -2 22 5 22 6 0 10 10 10 23 -1 16 -2 18 -6 5 -7 -28 -23 -21 -29 11 -4
16 -14 38 -24 48 -30 32 -45 66 -31 71 8 3 8 8 3 15 -6 7 -15 36 -21 66 -10
46 -9 57 3 69 16 16 19 10 29 -58 3 -16 5 -10 6 15 l1 40 40 -60 c22 -33 40
-68 40 -77 0 -16 19 -67 41 -110 5 -10 9 -25 9 -34 0 -10 11 -32 25 -50 14
-18 25 -37 25 -43 0 -11 39 -26 47 -17 4 3 1 6 -5 6 -6 0 -19 11 -28 24 -24
38 -63 156 -51 156 6 0 1 9 -10 19 -12 11 -29 41 -39 68 -9 26 -23 55 -31 64
-14 17 -18 49 -5 49 11 0 46 -39 63 -71 29 -53 55 -93 87 -131 17 -22 32 -46
32 -53 0 -14 116 -125 131 -125 5 0 9 2 9 5 0 8 -55 60 -65 60 -5 0 -10 7 -11
15 -1 26 -16 54 -47 88 -32 33 -27 39 18 22 16 -6 32 -24 42 -47 8 -21 35 -57
60 -80 56 -52 66 -55 24 -8 -37 42 -41 88 -11 120 18 19 19 24 6 34 -11 9 -17
8 -30 -4 -26 -26 -43 1 -43 68 0 69 10 72 61 16 26 -29 40 -39 48 -31 11 11 1
55 -11 47 -9 -5 -61 39 -61 51 0 4 -9 17 -19 28 -25 28 -61 93 -54 99 3 3 26
-10 52 -29 25 -19 64 -47 86 -61 22 -14 45 -31 50 -38 22 -25 115 -96 115 -88
0 5 -19 24 -42 43 -23 19 -49 43 -58 53 -8 10 -46 39 -85 64 -87 57 -111 81
-96 96 6 6 11 18 11 26 0 12 -3 12 -12 3 -22 -22 -47 -13 -72 26 -13 21 -36
46 -50 56 -15 9 -24 21 -21 25 2 5 5 38 6 74 1 57 -2 72 -27 111 -28 45 -43
56 -96 76 -49 17 -30 74 28 85 l37 6 -26 14 c-14 7 -39 16 -56 20 -39 8 -69
50 -69 97 0 20 -3 46 -7 58 -8 26 12 80 31 80 13 0 12 -18 -1 -61 -9 -27 54
-158 76 -159 17 0 49 30 49 47 0 6 6 16 14 22 11 9 14 33 13 91 -2 64 0 80 13
84 8 2 4 3 -10 3 -14 0 -51 16 -83 37 -54 35 -58 39 -52 67 4 18 2 36 -5 44
-9 11 -8 18 4 31 11 10 14 24 10 38 -4 11 -8 28 -9 36 -6 56 -19 117 -28 128
-8 10 -24 12 -57 7 -47 -6 -47 -6 -53 25 -13 64 -64 95 -152 93 -11 0 -24 6
-28 13 -12 22 -37 17 -37 -7 0 -22 -25 -48 -47 -49 -7 0 -21 -8 -31 -17 -27
-27 -75 -63 -83 -63 -3 0 -14 9 -24 20 -10 11 -15 20 -10 20 4 0 2 7 -5 15 -7
9 -10 19 -6 22 4 4 11 1 17 -7 8 -13 11 -13 23 3 9 11 20 15 31 10 14 -5 17
-3 12 10 -3 9 -2 17 3 17 10 0 24 39 16 47 -3 3 -12 0 -21 -7 -8 -7 -26 -10
-41 -7 -20 3 -27 -1 -34 -19 -5 -13 -11 -24 -13 -24 -3 0 -15 32 -27 70 -19
59 -25 68 -37 58 -16 -13 -32 2 -34 32 0 8 -2 26 -3 40 -1 14 -3 37 -4 51 -3
34 -25 43 -48 18z m16 -119 c0 -5 -5 -10 -11 -10 -5 0 -7 5 -4 10 3 6 8 10 11
10 2 0 4 -4 4 -10z m115 -151 c25 -74 27 -106 6 -83 -19 20 -51 164 -37 164 2
0 16 -36 31 -81z m-720 51 c3 -5 2 -10 -4 -10 -5 0 -13 5 -16 10 -3 6 -2 10 4
10 5 0 13 -4 16 -10z m300 -43 c35 -24 59 -51 79 -89 16 -32 10 -72 -10 -64
-9 3 -11 0 -7 -12 6 -15 4 -15 -10 -4 -12 10 -14 19 -6 38 11 31 11 34 0 34
-5 0 -11 -10 -14 -22 -6 -21 -7 -21 -26 -4 -12 11 -31 16 -48 14 -15 -2 -28 2
-29 7 -1 18 -27 65 -36 65 -11 0 0 -49 18 -77 9 -14 12 -33 8 -48 -4 -15 -2
-25 4 -25 9 0 72 -119 72 -135 0 -15 -30 1 -97 51 -67 51 -74 58 -69 85 4 25
0 32 -20 39 -20 8 -24 16 -22 50 1 23 7 44 14 48 12 7 14 11 14 32 0 6 9 10
19 10 10 0 21 6 24 14 12 30 92 26 142 -7z m375 -102 c7 -8 21 -15 31 -15 10
0 21 -9 24 -21 6 -17 -6 -33 -56 -80 -35 -32 -68 -59 -75 -59 -7 0 -19 -3 -27
-6 -24 -9 -107 78 -100 105 3 11 12 21 20 21 8 0 27 13 41 28 15 16 34 31 42
35 30 11 88 7 100 -8z m-1215 -55 c3 -6 -1 -7 -9 -4 -18 7 -21 14 -7 14 6 0
13 -4 16 -10z m180 -86 c36 -20 81 -54 70 -54 -4 0 -40 12 -82 27 -47 16 -70
29 -62 34 7 4 18 5 24 3 5 -3 2 1 -7 9 -26 21 -22 32 5 13 12 -9 36 -23 52
-32z m92 -121 c-4 -3 -1 -13 6 -21 10 -13 9 -15 -8 -8 -11 5 -28 11 -37 13
-25 7 -15 18 18 21 15 1 24 -1 21 -5z m-337 -53 c13 -8 13 -10 -2 -10 -9 0
-20 5 -23 10 -8 13 5 13 25 0z m192 -10 c18 -11 45 -20 60 -20 33 0 108 -29
108 -41 0 -12 -27 -11 -35 1 -3 6 -26 10 -50 10 -24 0 -54 4 -68 9 -13 5 -41
12 -63 15 -43 7 -60 19 -50 35 11 18 63 13 98 -9z m72 -131 c-3 -6 -17 -9 -31
-6 -15 3 -22 0 -20 -7 3 -6 -3 -19 -11 -29 -14 -16 -14 -19 -2 -27 13 -8 13
-10 -1 -10 -9 0 -23 -8 -30 -17 -12 -15 -12 -16 4 -10 11 4 17 2 17 -8 0 -8
-12 -17 -27 -21 -16 -3 -35 -8 -44 -10 -19 -5 -34 11 -43 49 -5 22 -1 32 19
51 14 13 25 28 25 34 0 13 28 19 98 21 36 1 51 -2 46 -10z m487 0 c28 -15 13
-31 -16 -17 -25 11 -34 28 -14 28 6 0 19 -5 30 -11z m503 -133 c-6 -16 -8 -17
-16 -2 -11 19 0 42 13 29 6 -6 7 -18 3 -27z m-1155 -19 c15 -18 4 -27 -32 -27
-29 0 -30 0 -12 20 21 24 29 25 44 7z m231 9 c0 -3 -4 -8 -10 -11 -5 -3 -10
-1 -10 4 0 6 5 11 10 11 6 0 10 -2 10 -4z m-130 -16 c0 -6 -8 -14 -17 -17 -10
-4 -22 -12 -26 -20 -4 -7 -20 -12 -35 -12 -21 1 -22 2 -7 6 11 3 30 16 43 29
24 25 42 31 42 14z m190 -33 c-8 -7 -15 -19 -15 -27 0 -10 -10 -15 -30 -16
-17 -1 -51 -12 -75 -26 -25 -13 -63 -25 -84 -25 l-39 -1 28 24 c16 13 36 24
45 24 10 0 20 9 23 20 4 16 14 20 47 20 22 0 39 -4 36 -8 -2 -4 4 -8 14 -8 11
0 17 2 15 5 -8 8 17 31 34 31 14 -1 14 -2 1 -13z m90 9 c0 -2 -7 -7 -16 -10
-8 -3 -12 -2 -9 4 6 10 25 14 25 6z m643 -10 c5 -13 -40 -66 -56 -66 -15 0 -6
41 13 60 23 23 36 25 43 6z m-1036 -12 c0 -19 -53 -44 -92 -44 -34 0 -31 14 8
39 39 25 84 28 84 5z m323 -99 c0 -9 6 -12 18 -8 13 5 11 0 -8 -21 -13 -14
-30 -24 -37 -22 -7 3 -12 0 -10 -6 1 -7 -8 -13 -21 -14 -13 -1 -34 -12 -48
-25 -14 -13 -36 -24 -50 -24 -22 -1 -23 0 -6 18 28 32 99 77 121 77 11 0 23 5
27 11 4 8 -1 9 -17 4 -23 -7 -24 -7 -4 9 25 19 35 20 35 1z m58 -51 c-21 -19
-43 -34 -50 -34 -7 1 7 18 32 40 54 48 70 42 18 -6z m2 -34 c0 -14 -7 -20 -22
-20 -20 0 -21 1 -3 20 10 11 20 20 22 20 1 0 3 -9 3 -20z m540 -24 c0 -2 -15
-9 -32 -15 -30 -10 -31 -9 -14 4 18 14 46 20 46 11z m-750 -20 c0 -2 -8 -10
-17 -17 -16 -13 -17 -12 -4 4 13 16 21 21 21 13z m914 -118 c-5 -7 -21 -31
-36 -52 -17 -24 -26 -46 -23 -57 5 -16 1 -18 -32 -15 -21 2 -59 -4 -85 -14
-53 -20 -64 -10 -20 17 15 9 47 34 71 55 24 21 49 38 56 38 6 0 20 9 30 20 20
22 51 28 39 8z m813 -171 c6 2 23 -8 37 -22 27 -26 61 -85 51 -85 -4 0 3 -12
14 -27 34 -42 14 -40 -24 3 -19 21 -34 42 -35 46 0 4 -6 5 -14 2 -8 -3 -17 0
-21 5 -3 6 -11 8 -17 5 -6 -4 -14 0 -19 7 -13 20 -11 31 4 24 6 -4 0 5 -15 18
-15 14 -32 27 -39 29 -7 2 -9 9 -5 16 5 8 16 6 39 -7 18 -10 37 -16 44 -14z
m114 -4 c28 -18 39 -32 37 -47 -1 -12 6 -43 17 -69 14 -36 15 -51 7 -59 -9 -9
-12 -8 -12 4 0 8 -7 21 -15 28 -8 7 -15 20 -15 30 0 10 -7 23 -15 30 -20 16
-65 110 -53 110 4 0 27 -12 49 -27z m-161 -101 c-15 -5 -26 7 -34 38 -7 25 -7
25 20 -5 17 -19 22 -31 14 -33z m255 -309 l18 -28 -21 19 c-12 11 -22 23 -22
28 0 14 7 9 25 -19z m-516 -249 c-6 -7 -5 -22 1 -38 14 -39 13 -76 -4 -76 -23
0 -34 23 -44 94 -9 66 -8 69 17 94 l26 26 6 -44 c4 -25 2 -50 -2 -56z m-80 24
c-1 -39 -2 -41 -8 -13 -4 17 -5 36 -3 43 8 23 12 12 11 -30z m-452 15 c6 -14
-4 -64 -23 -118 l-7 -20 16 20 c15 18 15 16 0 -30 -22 -70 -33 -77 -34 -24 -3
73 2 122 14 157 12 35 24 41 34 15z m143 -28 c7 -9 9 -26 5 -45 -7 -30 -8 -31
-20 -13 -23 33 -30 73 -12 73 8 0 20 -7 27 -15z"/>
<path d="M4060 9389 c0 -5 5 -7 10 -4 6 3 10 8 10 11 0 2 -4 4 -10 4 -5 0 -10
-5 -10 -11z"/>
<path d="M4010 9340 c0 -5 4 -10 9 -10 6 0 13 5 16 10 3 6 -1 10 -9 10 -9 0
-16 -4 -16 -10z"/>
<path d="M5925 8690 c10 -11 20 -20 23 -20 3 0 -3 9 -13 20 -10 11 -20 20 -23
20 -3 0 3 -9 13 -20z"/>
<path d="M3798 10231 c34 -42 152 -142 152 -127 0 1 -44 43 -97 92 -90 82 -94
85 -55 35z"/>
<path d="M4880 10222 c0 -4 9 -13 20 -20 19 -12 20 -11 8 8 -13 20 -28 27 -28
12z"/>
<path d="M4866 10112 c12 -9 24 -24 27 -32 4 -10 6 -7 6 7 1 12 -8 27 -18 33
-30 16 -38 11 -15 -8z"/>
<path d="M5403 10100 c-13 -5 -23 -14 -23 -21 0 -7 7 -8 18 -4 9 4 22 8 27 9
13 2 19 20 8 23 -4 1 -18 -2 -30 -7z"/>
<path d="M8310 10080 c19 -13 30 -13 30 0 0 6 -10 10 -22 10 -19 0 -20 -2 -8
-10z"/>
<path d="M8248 10073 c6 -2 18 -2 25 0 6 3 1 5 -13 5 -14 0 -19 -2 -12 -5z"/>
<path d="M4000 10061 c0 -5 7 -12 16 -15 14 -5 15 -4 4 9 -14 17 -20 19 -20 6z"/>
<path d="M8153 10057 c-23 -7 -45 -15 -48 -19 -7 -6 48 5 100 21 44 14 -1 11
-52 -2z"/>
<path d="M8055 10025 c-25 -12 -26 -14 -5 -9 14 4 29 10 35 15 12 12 5 11 -30
-6z"/>
<path d="M6145 10007 c-20 -12 -162 -132 -200 -170 -39 -39 11 -2 81 59 39 34
80 65 90 68 11 4 27 18 37 31 20 28 20 29 -8 12z"/>
<path d="M7950 10000 c-25 -4 -74 -19 -109 -34 -36 -14 -74 -26 -85 -26 -12
-1 -32 -7 -46 -15 -25 -14 -25 -14 -3 -15 13 0 46 10 75 21 29 12 73 23 98 24
25 2 68 15 95 29 52 26 50 28 -25 16z"/>
<path d="M2784 9974 c3 -9 6 -22 6 -29 0 -23 71 -49 135 -50 62 -1 102 -16
142 -54 12 -12 26 -21 30 -21 16 0 168 -70 171 -78 3 -9 -42 -24 -78 -27 -43
-4 -90 -17 -90 -25 0 -15 -133 -12 -198 4 -52 13 -121 26 -227 41 -78 11 -11
-12 99 -35 60 -12 121 -26 135 -32 14 -5 91 -11 171 -13 80 -1 134 1 120 4
l-24 7 29 11 c17 6 57 10 90 9 74 -4 72 -3 57 -18 -7 -7 -36 -15 -65 -19 l-52
-6 63 -2 c67 -1 102 10 102 34 0 8 6 12 13 9 7 -2 24 -1 38 4 20 8 14 11 -38
17 -36 4 -63 12 -63 18 -1 30 -43 60 -106 76 -36 10 -75 26 -86 36 -12 9 -49
31 -83 46 -58 28 -91 33 -228 38 -22 1 -31 8 -43 36 -14 34 -32 51 -20 19z"/>
<path d="M3590 9940 c0 -5 7 -7 15 -4 8 4 15 8 15 10 0 2 -7 4 -15 4 -8 0 -15
-4 -15 -10z"/>
<path d="M7022 9889 c2 -6 8 -10 13 -10 5 0 11 4 13 10 2 6 -4 11 -13 11 -9 0
-15 -5 -13 -11z"/>
<path d="M3471 9851 c13 -11 26 -17 29 -14 6 6 -30 33 -43 33 -5 0 1 -9 14
-19z"/>
<path d="M3520 9769 c0 -5 5 -7 10 -4 6 3 10 8 10 11 0 2 -4 4 -10 4 -5 0 -10
-5 -10 -11z"/>
<path d="M4105 9700 c-3 -5 -1 -10 4 -10 6 0 11 5 11 10 0 6 -2 10 -4 10 -3 0
-8 -4 -11 -10z"/>
<path d="M6934 9700 c-26 -6 -99 -50 -91 -56 8 -6 86 14 106 28 31 22 24 36
-15 28z"/>
<path d="M3493 9683 c9 -2 25 -2 35 0 9 3 1 5 -18 5 -19 0 -27 -2 -17 -5z"/>
<path d="M3558 9673 c6 -2 18 -2 25 0 6 3 1 5 -13 5 -14 0 -19 -2 -12 -5z"/>
<path d="M3615 9610 c4 -6 11 -8 16 -5 14 9 11 15 -7 15 -8 0 -12 -5 -9 -10z"/>
<path d="M3778 9403 c6 -2 18 -2 25 0 6 3 1 5 -13 5 -14 0 -19 -2 -12 -5z"/>
<path d="M3659 9333 c-13 -15 -11 -16 21 -9 47 9 63 26 23 26 -17 0 -37 -8
-44 -17z"/>
<path d="M3344 9160 c-78 -32 -353 -57 -361 -32 -3 6 4 12 14 13 15 0 15 2 -4
9 -27 11 -63 2 -57 -15 3 -7 1 -16 -5 -20 -16 -10 -13 -42 5 -49 8 -3 25 -1
37 6 12 6 31 13 42 14 11 1 49 8 85 14 36 7 90 14 120 17 50 5 54 4 41 -11
-12 -14 -11 -16 10 -16 13 0 35 -3 48 -7 17 -4 22 -3 17 5 -4 7 -19 12 -34 13
-25 1 -25 2 11 16 20 9 37 20 37 24 0 5 9 9 19 9 11 0 23 5 26 10 7 12 -22 12
-51 0z"/>
<path d="M2755 9120 c-3 -5 -2 -10 4 -10 5 0 13 5 16 10 3 6 2 10 -4 10 -5 0
-13 -4 -16 -10z"/>
<path d="M3510 9111 c-8 -5 -32 -12 -54 -15 -21 -4 -36 -9 -34 -12 8 -7 118
18 118 27 0 11 -10 11 -30 0z"/>
<path d="M3950 9085 c-19 -14 -39 -25 -44 -25 -6 0 -49 -20 -97 -45 -95 -49
-108 -53 -88 -29 23 28 89 65 119 67 17 1 31 7 34 12 2 6 -23 10 -63 11 -36 0
-54 -2 -38 -4 15 -2 27 -6 27 -10 0 -4 -23 -22 -50 -40 -43 -27 -50 -37 -50
-64 l0 -31 23 20 c12 12 69 44 127 73 58 28 109 55 114 60 6 6 18 10 28 10 10
0 18 5 18 10 0 16 -23 11 -60 -15z"/>
<path d="M3520 9088 c-19 -6 -30 -12 -24 -14 5 -3 28 2 50 10 45 17 26 19 -26
4z"/>
<path d="M4050 9079 c0 -5 5 -7 10 -4 6 3 10 8 10 11 0 2 -4 4 -10 4 -5 0 -10
-5 -10 -11z"/>
<path d="M2695 9070 c-3 -5 -2 -10 4 -10 5 0 13 5 16 10 3 6 2 10 -4 10 -5 0
-13 -4 -16 -10z"/>
<path d="M3945 8984 c-39 -35 -39 -35 -7 -17 35 19 71 53 56 53 -5 -1 -27 -17
-49 -36z"/>
<path d="M6170 8971 c14 -12 41 -31 60 -42 19 -12 68 -59 109 -105 41 -47 88
-94 105 -106 17 -12 -3 14 -46 59 -42 44 -81 90 -87 101 -10 18 -7 21 28 27
35 6 120 0 166 -11 11 -3 32 0 45 6 25 10 25 10 -4 6 -16 -2 -43 0 -60 5 -17
6 -69 10 -115 10 -78 1 -87 3 -120 30 -20 16 -52 31 -71 35 l-35 6 25 -21z"/>
<path d="M3979 8943 c-13 -16 -12 -17 4 -4 16 13 21 21 13 21 -2 0 -10 -8 -17
-17z"/>
<path d="M3867 8931 c-34 -22 -43 -31 -31 -31 5 0 23 11 39 25 35 28 32 31 -8
6z"/>
<path d="M3725 8930 c-3 -6 -12 -9 -18 -8 -17 3 -59 -21 -53 -31 3 -4 0 -8 -7
-9 -32 -2 -128 -31 -141 -41 -8 -7 -26 -9 -43 -6 l-28 7 32 -20 c17 -12 37
-36 44 -56 13 -35 31 -46 80 -46 18 0 39 14 71 48 24 26 53 53 64 59 16 11 15
11 -8 3 -16 -5 -28 -7 -28 -4 0 2 12 27 26 55 14 28 23 53 21 56 -3 2 -8 -1
-12 -7z"/>
<path d="M6580 8909 c0 -5 5 -7 10 -4 6 3 10 8 10 11 0 2 -4 4 -10 4 -5 0 -10
-5 -10 -11z"/>
<path d="M4905 8890 c-3 -6 1 -7 9 -4 18 7 21 14 7 14 -6 0 -13 -4 -16 -10z"/>
<path d="M4810 8845 c-8 -9 -8 -15 -2 -15 12 0 26 19 19 26 -2 2 -10 -2 -17
-11z"/>
<path d="M4116 8831 c-4 -5 -2 -12 3 -15 5 -4 12 -2 15 3 4 5 2 12 -3 15 -5 4
-12 2 -15 -3z"/>
<path d="M4116 8703 c-6 -14 -5 -15 5 -6 7 7 10 15 7 18 -3 3 -9 -2 -12 -12z"/>
<path d="M3325 8650 c-3 -5 -1 -10 4 -10 6 0 11 5 11 10 0 6 -2 10 -4 10 -3 0
-8 -4 -11 -10z"/>
<path d="M3098 8587 c-19 -8 -27 -17 -26 -32 2 -21 3 -21 33 -6 16 9 34 22 38
29 4 6 13 12 18 12 6 0 8 -4 4 -9 -5 -9 52 3 62 13 9 9 -103 3 -129 -7z"/>
<path d="M5005 8570 c-3 -5 -1 -10 4 -10 6 0 11 5 11 10 0 6 -2 10 -4 10 -3 0
-8 -4 -11 -10z"/>
<path d="M2395 8510 c-3 -5 1 -10 9 -10 8 0 18 5 21 10 3 6 -1 10 -9 10 -8 0
-18 -4 -21 -10z"/>
<path d="M5800 8510 c0 -5 5 -10 11 -10 5 0 7 5 4 10 -3 6 -8 10 -11 10 -2 0
-4 -4 -4 -10z"/>
<path d="M4785 8500 c-3 -5 -2 -10 4 -10 5 0 13 5 16 10 3 6 2 10 -4 10 -5 0
-13 -4 -16 -10z"/>
<path d="M4475 8480 c-3 -5 -1 -10 4 -10 6 0 11 5 11 10 0 6 -2 10 -4 10 -3 0
-8 -4 -11 -10z"/>
<path d="M4732 8358 c-15 -29 -46 -71 -69 -93 -43 -41 -54 -65 -30 -65 18 0
37 24 71 90 16 30 38 70 48 88 11 17 17 32 14 32 -3 0 -18 -24 -34 -52z"/>
<path d="M6620 8377 c0 -22 23 -37 57 -37 18 0 33 -4 33 -10 0 -5 18 -19 39
-29 21 -11 49 -36 61 -56 29 -47 37 -45 9 4 -44 79 -199 178 -199 128z"/>
<path d="M5820 8263 c0 -4 7 -21 16 -38 26 -48 73 -165 67 -165 -11 0 -33 34
-58 88 -13 28 -25 52 -27 52 -2 0 -4 -27 -5 -59 -2 -42 2 -63 13 -72 13 -11
14 -9 9 14 -10 38 5 33 38 -13 16 -22 35 -40 43 -40 16 0 20 45 4 55 -14 9
-40 73 -40 97 0 11 -13 36 -30 55 -16 18 -30 30 -30 26z"/>
<path d="M6285 8172 c2 -32 22 -72 35 -72 6 0 10 -8 10 -18 0 -47 159 -134
279 -152 109 -17 159 -31 250 -70 102 -43 173 -91 284 -191 45 -40 69 -57 52
-39 -16 19 -34 37 -38 41 -4 3 -36 33 -70 66 -132 129 -294 233 -363 233 -21
0 -63 11 -92 25 -30 14 -64 25 -75 25 -12 0 -42 20 -67 44 -25 23 -65 52 -90
64 -25 12 -61 32 -81 46 l-36 24 2 -26z"/>
<path d="M6839 8195 c-8 -7 43 -105 55 -105 5 0 4 6 -2 13 -6 7 -19 32 -29 56
-10 23 -21 40 -24 36z"/>
<path d="M2715 8170 c-3 -5 -1 -10 4 -10 6 0 11 5 11 10 0 6 -2 10 -4 10 -3 0
-8 -4 -11 -10z"/>
<path d="M6150 8159 c0 -5 5 -7 10 -4 6 3 10 8 10 11 0 2 -4 4 -10 4 -5 0 -10
-5 -10 -11z"/>
<path d="M3730 8039 c0 -5 5 -7 10 -4 6 3 10 8 10 11 0 2 -4 4 -10 4 -5 0 -10
-5 -10 -11z"/>
<path d="M4857 8021 c-4 -17 -3 -21 5 -13 5 5 8 16 6 23 -3 8 -7 3 -11 -10z"/>
<path d="M5870 8005 c0 -8 4 -15 10 -15 5 0 7 7 4 15 -4 8 -8 15 -10 15 -2 0
-4 -7 -4 -15z"/>
<path d="M4823 7924 c-12 -38 -27 -96 -33 -129 -7 -33 -23 -80 -36 -104 -13
-24 -24 -51 -24 -61 0 -17 -20 -69 -39 -100 -12 -19 -38 -138 -46 -213 -6 -56
-25 -82 -56 -75 -6 2 -13 -2 -16 -9 -3 -9 5 -9 31 -1 31 10 38 18 47 52 6 23
17 61 24 86 7 25 20 75 28 111 15 64 32 107 62 159 52 90 123 251 118 269 -7
26 -19 27 -35 1 -22 -34 -29 -22 -12 20 9 21 14 45 12 51 -2 6 -13 -19 -25
-57z"/>
<path d="M7045 7930 c3 -5 8 -10 11 -10 2 0 4 5 4 10 0 6 -5 10 -11 10 -5 0
-7 -4 -4 -10z"/>
<path d="M6410 7921 c0 -5 5 -13 10 -16 6 -3 10 -2 10 4 0 5 -4 13 -10 16 -5
3 -10 2 -10 -4z"/>
<path d="M5780 7874 c0 -3 9 -17 20 -31 22 -29 25 -26 10 11 -8 23 -30 37 -30
20z"/>
<path d="M5857 7813 c3 -10 9 -22 14 -28 9 -12 31 -122 31 -150 -1 -10 7 -33
17 -50 11 -16 28 -59 39 -95 11 -36 31 -90 45 -121 14 -31 28 -72 32 -90 4
-18 11 -40 16 -49 33 -60 89 -185 89 -200 0 -10 7 -23 15 -30 8 -7 15 -23 15
-36 0 -12 4 -25 9 -29 5 -3 12 -20 16 -38 13 -64 54 -164 85 -211 18 -26 43
-84 57 -129 34 -112 75 -217 84 -217 4 0 1 12 -7 28 -7 15 -14 35 -14 44 0 9
-4 19 -9 22 -5 3 -12 18 -15 33 -18 79 -53 173 -78 211 -38 58 -56 102 -80
196 -11 44 -41 127 -66 185 -25 58 -56 139 -69 180 -13 41 -35 95 -49 120 -31
55 -77 212 -100 342 -16 94 -35 129 -70 129 -8 0 -11 -6 -7 -17z"/>
<path d="M4270 7809 c0 -5 5 -7 10 -4 6 3 10 8 10 11 0 2 -4 4 -10 4 -5 0 -10
-5 -10 -11z"/>
<path d="M5817 7703 c-4 -6 2 -28 14 -47 23 -39 37 -50 18 -14 -6 12 -15 33
-18 47 -5 15 -10 21 -14 14z"/>
<path d="M4180 7675 c-11 -13 -10 -14 4 -9 9 3 16 10 16 15 0 13 -6 11 -20 -6z"/>
<path d="M4130 7650 c0 -5 4 -10 9 -10 6 0 13 5 16 10 3 6 -1 10 -9 10 -9 0
-16 -4 -16 -10z"/>
<path d="M5177 7613 c-4 -3 -7 -11 -7 -17 0 -6 5 -5 12 2 6 6 9 14 7 17 -3 3
-9 2 -12 -2z"/>
<path d="M4023 7528 c-47 -50 -73 -86 -73 -105 0 -4 8 4 17 17 9 14 39 51 66
83 27 31 47 57 45 57 -2 0 -27 -24 -55 -52z"/>
<path d="M4923 7543 c-13 -8 -23 -21 -23 -28 0 -8 -7 -26 -15 -42 -61 -118
-67 -143 -70 -288 -3 -133 9 -241 33 -305 6 -14 15 -60 22 -102 l12 -76 102
-106 c55 -58 109 -106 119 -106 27 0 40 -44 23 -83 -7 -18 -20 -38 -29 -46
-18 -14 -24 -86 -8 -95 32 -20 59 47 63 158 1 46 -1 51 -51 100 -61 59 -151
180 -151 202 0 17 -26 70 -44 94 -7 8 -21 44 -30 80 -10 36 -22 75 -27 88 -5
12 -9 65 -10 117 -1 89 1 98 26 131 20 26 28 51 32 97 4 39 16 83 34 119 27
54 38 109 22 107 -5 0 -18 -7 -30 -16z"/>
<path d="M5521 7503 c-1 -12 -5 -25 -11 -28 -5 -3 -10 -26 -10 -51 0 -25 -5
-54 -11 -66 -15 -28 -1 -37 20 -12 29 36 46 101 33 127 -6 12 -13 29 -15 37
-4 9 -6 7 -6 -7z"/>
<path d="M6480 7516 c0 -14 29 -62 48 -79 11 -10 25 -38 32 -62 13 -47 34 -61
70 -50 11 3 20 12 20 18 0 19 -38 77 -50 77 -6 0 -36 23 -66 51 -30 29 -54 49
-54 45z"/>
<path d="M6760 7485 c0 -8 14 -29 31 -47 18 -18 26 -25 19 -15 -10 14 -10 17
4 17 12 0 9 8 -14 30 -35 34 -40 36 -40 15z"/>
<path d="M7365 7464 c18 -18 83 -64 90 -64 3 0 5 4 5 10 0 5 -16 16 -35 25
-19 9 -39 23 -46 31 -6 8 -16 14 -21 14 -5 0 -2 -7 7 -16z"/>
<path d="M5936 7350 c3 -25 8 -70 11 -101 6 -74 27 -133 48 -138 16 -3 17 3
11 60 -4 35 -14 74 -22 87 -9 13 -24 49 -35 80 l-19 57 6 -45z"/>
<path d="M5577 7242 c-14 -15 -17 -38 -16 -113 0 -52 4 -103 9 -114 6 -13 9
12 9 75 0 52 4 110 10 129 13 42 10 47 -12 23z"/>
<path d="M5196 7231 c-4 -7 -5 -15 -2 -18 9 -9 19 4 14 18 -4 11 -6 11 -12 0z"/>
<path d="M6830 7185 c35 -50 73 -80 92 -72 8 4 5 8 -9 12 -13 4 -23 11 -23 16
0 12 -70 89 -82 89 -5 0 5 -20 22 -45z"/>
<path d="M7020 7107 c0 -16 8 -30 20 -37 17 -9 20 -8 20 8 0 10 -9 27 -20 37
-20 18 -20 17 -20 -8z"/>
<path d="M4827 6663 c-4 -3 -7 -13 -7 -22 1 -13 3 -13 11 2 11 19 8 33 -4 20z"/>
<path d="M6499 6568 c-1 -7 -1 -17 0 -22 1 -5 4 -77 6 -160 4 -154 -2 -219
-20 -214 -5 2 -8 10 -6 18 1 8 -1 12 -5 7 -4 -4 -25 9 -46 30 l-38 37 -16 -22
c-17 -25 -29 -27 -50 -9 -8 6 -34 28 -59 47 -24 19 -47 46 -51 60 -4 14 -11
31 -17 38 -12 15 -63 16 -72 2 -11 -17 22 -58 63 -79 21 -11 64 -44 95 -74 49
-47 57 -59 57 -91 0 -128 131 -147 154 -22 4 23 17 43 36 56 26 19 30 28 30
70 0 48 14 66 43 54 29 -12 89 -188 111 -329 2 -16 9 -48 16 -70 17 -63 39
-233 40 -309 0 -78 21 -124 71 -153 16 -10 29 -22 29 -29 0 -10 19 -56 39 -93
10 -20 39 -37 47 -28 8 7 -14 84 -29 105 -6 7 -7 39 -3 75 4 34 7 73 7 87 -1
33 -52 94 -82 98 -38 6 -56 29 -64 85 -4 29 -9 65 -11 82 -2 16 -10 52 -18 80
-8 27 -22 97 -31 155 -26 172 -79 342 -116 376 -11 9 -26 40 -34 67 -16 54
-40 87 -62 87 -7 0 -14 -6 -14 -12z"/>
<path d="M5237 6473 c-12 -11 -8 -23 8 -23 8 0 15 7 15 15 0 16 -12 20 -23 8z"/>
<path d="M8360 6389 c0 -12 14 -41 30 -66 17 -24 30 -50 30 -56 0 -45 93 -94
125 -67 35 29 -16 123 -96 178 -54 38 -89 42 -89 11z"/>
<path d="M6426 6317 c3 -10 9 -15 12 -12 3 3 0 11 -7 18 -10 9 -11 8 -5 -6z"/>
<path d="M6451 6255 c1 -19 18 -51 18 -35 0 8 -4 22 -9 30 -5 8 -9 11 -9 5z"/>
<path d="M7710 6137 c0 -5 14 -28 30 -52 17 -24 30 -55 30 -69 0 -16 10 -32
26 -43 15 -10 37 -28 51 -40 13 -13 34 -28 47 -35 27 -15 133 -132 148 -165
10 -20 28 -32 28 -19 0 2 -34 46 -76 98 -42 51 -91 116 -109 144 -18 28 -48
62 -66 75 -19 13 -36 27 -38 32 -6 15 -71 82 -71 74z"/>
<path d="M6350 5950 c-6 -11 -9 -38 -7 -58 l4 -37 1 41 c1 22 7 45 14 52 6 6
9 14 6 18 -4 3 -12 -4 -18 -16z"/>
<path d="M5622 5920 c6 -23 13 -39 15 -36 7 7 -8 76 -17 76 -4 0 -3 -18 2 -40z"/>
<path d="M6395 5940 c3 -5 11 -10 16 -10 6 0 7 5 4 10 -3 6 -11 10 -16 10 -6
0 -7 -4 -4 -10z"/>
<path d="M3695 5930 c3 -5 8 -10 11 -10 2 0 4 5 4 10 0 6 -5 10 -11 10 -5 0
-7 -4 -4 -10z"/>
<path d="M6440 5890 c6 -11 13 -20 16 -20 2 0 0 9 -6 20 -6 11 -13 20 -16 20
-2 0 0 -9 6 -20z"/>
<path d="M5546 5871 c-4 -7 -5 -15 -2 -18 9 -9 19 4 14 18 -4 11 -6 11 -12 0z"/>
<path d="M6590 5854 c6 -14 14 -34 20 -44 13 -24 -11 -44 -42 -35 l-23 6 24
-20 c30 -27 39 -26 53 4 9 21 8 33 -11 70 -25 49 -36 60 -21 19z"/>
<path d="M5652 5805 c0 -16 2 -22 5 -12 2 9 2 23 0 30 -3 6 -5 -1 -5 -18z"/>
<path d="M2931 5547 c-13 -21 -12 -21 5 -5 10 10 16 20 13 22 -3 3 -11 -5 -18
-17z"/>
<path d="M5717 5420 c10 -206 29 -264 82 -258 20 2 27 9 29 32 3 22 -5 37 -33
66 -24 25 -38 49 -40 71 -5 50 -22 130 -33 159 -7 18 -9 -2 -5 -70z"/>
<path d="M6950 5146 c0 -4 7 -14 15 -22 8 -9 15 -11 15 -6 0 5 -7 15 -15 22
-8 7 -15 9 -15 6z"/>
<path d="M9335 4848 c-44 -16 -64 -36 -71 -75 -9 -46 6 -75 51 -101 20 -12 33
-18 30 -12 -3 5 -2 10 4 10 16 0 31 -35 31 -74 0 -19 5 -38 10 -41 14 -9 12
-35 -3 -35 -15 0 -47 -51 -47 -75 0 -14 3 -15 15 -5 8 7 15 21 15 31 0 11 7
19 16 19 8 0 13 4 10 9 -3 5 1 14 9 21 8 7 12 16 9 21 -3 5 0 9 6 9 8 0 10 -9
6 -26 -5 -17 -3 -23 4 -19 6 4 10 -4 10 -18 0 -13 13 -38 28 -55 l28 -32 22
30 c26 34 28 64 7 104 -15 28 -15 28 10 24 17 -4 25 -1 25 9 0 8 -4 11 -10 8
-5 -3 -10 -2 -10 4 0 20 22 23 35 5 12 -17 13 -16 8 10 -4 17 -1 31 7 36 9 6
0 26 -36 76 -69 98 -95 125 -131 140 -37 16 -47 16 -88 2z"/>
<path d="M7362 4691 c3 -46 21 -65 32 -35 4 9 -2 30 -14 48 l-20 31 2 -44z"/>
<path d="M4470 4704 c0 -8 5 -12 10 -9 6 4 8 11 5 16 -9 14 -15 11 -15 -7z"/>
<path d="M9339 4523 c-13 -16 -12 -17 4 -4 9 7 17 15 17 17 0 8 -8 3 -21 -13z"/>
<path d="M5460 4255 c0 -8 5 -15 10 -15 6 0 10 7 10 15 0 8 -4 15 -10 15 -5 0
-10 -7 -10 -15z"/>
<path d="M8390 4161 c0 -12 6 -21 16 -21 9 0 14 7 12 17 -5 25 -28 28 -28 4z"/>
<path d="M7374 4044 c26 -85 45 -155 51 -184 15 -70 60 -140 91 -140 13 0 1
70 -18 100 -35 56 -85 156 -98 194 -12 37 -37 65 -26 30z"/>
<path d="M5524 3776 c-6 -17 2 -36 17 -36 12 0 12 37 -1 45 -6 3 -13 -1 -16
-9z"/>
<path d="M6000 3700 c0 -5 5 -10 10 -10 6 0 10 5 10 10 0 6 -4 10 -10 10 -5 0
-10 -4 -10 -10z"/>
<path d="M7470 3643 c0 -13 5 -23 10 -23 13 0 13 11 0 30 -8 12 -10 11 -10 -7z"/>
<path d="M3810 3486 c0 -9 5 -16 10 -16 6 0 10 4 10 9 0 6 -4 13 -10 16 -5 3
-10 -1 -10 -9z"/>
<path d="M5900 3430 c0 -5 7 -10 15 -10 8 0 15 5 15 10 0 6 -7 10 -15 10 -8 0
-15 -4 -15 -10z"/>
</g>
</svg>
