<svg xmlns="http://www.w3.org/2000/svg" viewBox="0 0 2127.12 4252.56"><defs><style>.cls-1{fill:#be1b17;}</style></defs><g id="Calque_2" data-name="Calque 2"><g id="Calque_1-2" data-name="Calque 1"><path class="cls-1" d="M2127.12,347.5V3949.22c-7-.73-14-1.18-20.92-2.25-7.56-1.16-15.18-2.28-22.35-5.21-2.95-1.21-5.92-2.38-8.82-3.7a84.76,84.76,0,0,0-21.15-6,21.26,21.26,0,0,0-13.06,1.92,7,7,0,0,0-3.71,8.84,28.52,28.52,0,0,0,4.37,8.49c2.33,3,4.73,6,6.93,9.18a90.78,90.78,0,0,1,5,8.14,10.65,10.65,0,0,1,.85,3.68,3.43,3.43,0,0,1-2.58,3.54,27.64,27.64,0,0,1-2.85.33c-10.39.47-20.32-1.7-30-5.26a30.93,30.93,0,0,1-6.88-3.3c-4.67-3.2-9.93-4.24-15.36-4.71-3.49-.31-7-.47-10.53-.45-19.18.12-38.37.42-57.55.41-8,0-15.94-.53-23.91-1.09-10.91-.77-21.45-3.33-32-5.61q-23.89-5.16-47.95-9.31a166.18,166.18,0,0,0-18.09-2c-8.4-.51-16.41-2.56-23-8.24-3.39-2.91-6.94-5.66-10.2-8.71-5.6-5.25-10.74-10.91-14.44-17.75a29.61,29.61,0,0,0-3.74-5.52c-3.6-4.11-7.62-7.75-12.89-9.62a2.06,2.06,0,0,0-1.69.54,1.92,1.92,0,0,0-.43,1.63c1,2.69,2.22,5.29,3.14,8a45.91,45.91,0,0,1,2,15.13,115.88,115.88,0,0,0,1.38,19.06c1.15,7.25,1.88,14.55,3.81,21.68a96.78,96.78,0,0,1,2.19,12.26c1.56,11.35-1.64,21.54-8.15,30.72a21.86,21.86,0,0,1-13.28,8.8,60.66,60.66,0,0,1-14.21,1.79c-21.43-.11-42.86,0-64.3,0-2.55,0-5.11.05-7.67.08a3.76,3.76,0,0,0-3.2,1.81c-3.1,4.84-6.22,9.68-9.17,14.62a55.38,55.38,0,0,0-3.29,6.91,18.71,18.71,0,0,0-1.25,11.25c.39,1.87.65,3.77.88,5.67a16.71,16.71,0,0,1-3.83,13.42c-2.49,2.91-5,5.83-7.66,8.56q-8.38,8.58-17,17a170.31,170.31,0,0,0-15.12,17.32A220.11,220.11,0,0,0,1566.2,4141c-4.92,9.05-12.32,15.43-21.44,19.89-10.41,5.08-20.87,5.62-31.22-.21-2.78-1.57-5.5-3.25-8.2-4.94-3.79-2.37-7.54-4.81-11.32-7.19a43.8,43.8,0,0,0-12.44-4.9,9.34,9.34,0,0,0-7.34,1.29,11.06,11.06,0,0,0-4.88,5.75c-4.15,11-4.31,21.84,2.48,32.07,1.06,1.6,2.17,3.16,3.18,4.79a29.35,29.35,0,0,1,4.22,10.64c1.15,6.86.71,13.31-4.78,18.61-4.66,4.5-7.42,10.34-10.44,16a88.92,88.92,0,0,1-5.26,9.08c-2.18,3.13-4.82,5.94-7.19,9-.31.4-.15,1.16-.21,1.76H1288.17a22.37,22.37,0,0,1-.93-2.72c-1-5-4.07-8.51-8.12-11.4-11.25-8-23.17-14.69-36.48-18.73-5.18-1.57-10.28-3.46-15.34-5.39a32.07,32.07,0,0,1-15.36-12.52,122.46,122.46,0,0,1-6.75-11.57,94,94,0,0,0-9.3-14.49,47.3,47.3,0,0,0-27.73-17.59c-5.3-1.19-10.63-2.2-15.91-3.43a58.76,58.76,0,0,1-17.75-7,7.09,7.09,0,0,1-3.76-6.28c0-2.87.3-5.73.42-8.6.13-3.18.33-6.37.23-9.55a10,10,0,0,0-1.27-3.54,3,3,0,0,0-3.34-1.18,10.93,10.93,0,0,0-4.65,3.25,44.74,44.74,0,0,0-8.64,16.95,49.63,49.63,0,0,1-4.23,11.68,9.1,9.1,0,0,1-8.68,4.93,22.36,22.36,0,0,1-9.31-2c-2-1-4-2-6.06-2.88-6.29-2.54-12.72-4.41-19.56-2.4a14.32,14.32,0,0,1-7.52-.11,40.16,40.16,0,0,1-10.64-4.23c-3.34-1.88-6.71-3.74-10.21-5.28a15.16,15.16,0,0,0-15.48,1.52A49.87,49.87,0,0,0,1016,4145a59.47,59.47,0,0,1-17.6,11.41c-3.51,1.51-7.15,2.75-10.74,4.08a48.92,48.92,0,0,1-16.94,2.69,18.56,18.56,0,0,1-10.89-2.95c-3.45-2.31-6.92-4.6-10.42-6.84a76.12,76.12,0,0,0-9-5.49c-3.9-1.8-8-2.44-11.51,1.19a6.5,6.5,0,0,1-4.31,1.81,34.53,34.53,0,0,1-7.62.3c-4.42-.58-8.93-.48-13.37-1a21.53,21.53,0,0,0-12.92,2.31c-2.24,1.22-4.42,2.55-6.67,3.75a109,109,0,0,1-11.07,5.67,157.13,157.13,0,0,1-40.81,10c-7.28.77-14.68,1.42-21.7-1.78a11.83,11.83,0,0,0-2.82-.53,120.16,120.16,0,0,0-21.91-1.74,58.88,58.88,0,0,1-12.3-1.69,15.21,15.21,0,0,1-6.76-3.46,27.92,27.92,0,0,1-7.33-8.77c-1.59-3.14-3-6.33-4.53-9.51a130.26,130.26,0,0,0-8-15.25c-2.49-3.92-5.76-6.71-10.48-7.75a23.56,23.56,0,0,0-9.36-.34,48.85,48.85,0,0,0-17.66,7.08c-3.52,2.19-6.88,4.94-10.72,6.24-7.07,2.4-11.91,1.91-15.41-5-.58-1.14-1.26-2.23-1.77-3.39a53.87,53.87,0,0,1-4.51-20.43,44.43,44.43,0,0,1,7.94-27.07c1.08-1.59,2.12-3.2,3.1-4.85a58.57,58.57,0,0,0,3.2-5.87,9.72,9.72,0,0,0,.64-3.69c0-.37-.87-1.08-1.31-1.06a7.74,7.74,0,0,0-2.66.78c-5.58,2.58-10.3,6.44-14.88,10.41-6.75,5.86-13.28,12-19.84,18.07-6.33,5.88-12.77,11.61-20.24,16a37,37,0,0,1-23,5c-3.78-.37-7.49-1.49-11.24-2.24a49.67,49.67,0,0,1-17.5-7.46,149,149,0,0,1-17.36-13.55c-10.31-9.08-20.38-18.43-30.73-27.45a620.46,620.46,0,0,0-49.4-39.46c-7.56-5.34-15.09-10.75-23.49-14.78-8.64-4.16-8-4.51-17.81.33a25.37,25.37,0,0,0-5.44,3.86c-4.81,4.28-9,9-11.39,15.18a24.38,24.38,0,0,1-5.46,7.81c-5.69,6-12.83,9.47-20.66,11.51a59.87,59.87,0,0,1-29.41.33c-2.17-.51-4.31-1.16-6.49-1.66a20.08,20.08,0,0,0-7.6-.54c-3.16.48-6.1,2.42-6.65,5.94-.1.63-.15,1.27-.21,1.9q-1.11,10.3-11.2,12.6a6.87,6.87,0,0,1-2.83.23c-3.43-.77-6.9-1.49-9.29-4.47-.8-1-1.71-1.9-2.51-2.9a41.36,41.36,0,0,0-16.92-12.17,85.25,85.25,0,0,0-18.37-5.24c-4.72-.81-9.51-1.35-14.15-2.5-15.68-3.88-30.18-10.37-42.88-20.51a87.3,87.3,0,0,0-16.37-9.87c-6.08-3-12.54-4.76-18.87-7a38.78,38.78,0,0,1-16.05-10.07c-2.18-2.32-4.33-4.69-6.39-7.13a18.08,18.08,0,0,0-11.47-6.36,119.37,119.37,0,0,0-12.33-1.56,213,213,0,0,1-21.84-2.44,93.19,93.19,0,0,1-24.68-7.47c-9.62-4.34-19.36-8.37-30-9.37a12.07,12.07,0,0,1-5.32-2,31.93,31.93,0,0,1-9.31-8.17c-2.6-3.63-5.32-7.17-7.93-10.79a33.4,33.4,0,0,0-5.64-6.48,183.62,183.62,0,0,0-32.64-21.72c-2.54-1.33-5.13-2.63-8.09-2.82-.06-4.47-.18-8.95-.18-13.43q0-1747.08,0-3494.16c0-4.48.1-9,.15-13.43a80.67,80.67,0,0,0,8.94-17.8c3.53-10.56,5.18-21.52,6.46-32.52a35.85,35.85,0,0,0,0-7.61c-.57-5.79-2.4-11.07-6.62-15.39a77,77,0,0,0-8.76-7.27c-.06-2.56-.18-5.12-.18-7.67q0-99.75,0-199.48a72.14,72.14,0,0,1,.41-7.64,4.2,4.2,0,0,1,2.25-2.93c2.56,1.3,5.21,2.45,7.66,3.92,5,3,7.68,7.77,8.67,13.24a28.6,28.6,0,0,1-.28,12.38c-1.46,5.56-3.07,11.07-6.09,16.07a47.81,47.81,0,0,0-2.5,5.14A3.28,3.28,0,0,0,15,139.75,14.06,14.06,0,0,0,25,142c1.89-.28,3.74-.8,5.62-1.17a30.91,30.91,0,0,1,14.21.42,57.58,57.58,0,0,1,17.36,7.89c17.77,11.91,30.92,27.47,37.76,48,1.21,3.63,2.41,7.28,4,10.78,4.64,10.56,12.28,17.66,23.73,20.44,6.24,1.52,12.5,2.69,18.91,2.4,4.53-.21,8.88.74,13.3,1.32a21.57,21.57,0,0,1,11.1,5.28,32.12,32.12,0,0,1,4.75,4.72c4.35,5.57,9.59,10.28,14.47,15.33a95.29,95.29,0,0,0,15.58,12.69,67.14,67.14,0,0,0,12.55,6.92,13.7,13.7,0,0,0,12-.68,24.78,24.78,0,0,0,13-15.79,8.22,8.22,0,0,0-.22-5.6,63.88,63.88,0,0,0-12.17-19.39c-5.67-6.22-9.73-13.45-13.22-21a27.31,27.31,0,0,1-2.76-13c.14-2.87.06-5.76,0-8.63-.15-10,3.23-18.71,9-26.73,5.58-7.79,13.07-11.84,22.61-12.43,6.81-.41,11.16-4.29,12.93-10.7a28.07,28.07,0,0,0,.36-13.26,63.41,63.41,0,0,0-10.75-25.38c-2.07-2.83-4.31-5.55-6.38-8.39a133.58,133.58,0,0,1-7.71-11,234.71,234.71,0,0,1-16.74-34.42,68.73,68.73,0,0,1-4.6-16.56c-.93-8,.89-15.11,6.7-21.09a32.76,32.76,0,0,1,17.46-9.29c9-1.88,17.8-.59,26.56,1.14a41,41,0,0,1,10.86,3.6,58.65,58.65,0,0,0,21.06,6,35,35,0,0,1,16.84,6.21,29.53,29.53,0,0,0,6.74,3.6c4.41,1.61,8.71,1.43,12.7-1.54a26.56,26.56,0,0,0,6.76-8c2.62-4.36,4.41-9.23,7.92-13l81,.07c1.88,1.19,3.79,2.33,5.63,3.59a22.79,22.79,0,0,1,9.77,14.73,81.79,81.79,0,0,1,1.92,19,24.68,24.68,0,0,0,1.95,10.26,12.82,12.82,0,0,0,11.72,8.44,31.07,31.07,0,0,0,6.68-.16,62.11,62.11,0,0,0,24.91-9.28,62.27,62.27,0,0,0,23.83-29.14c2.29-5.59,4-11.43,5.91-17.16,4.48,0,9-.13,13.43-.13H1610.78c4.48,0,9,0,13.44,0a36.21,36.21,0,0,1,6.61,9.29,25,25,0,0,1,2.09,18.56A12.91,12.91,0,0,1,1627,38.1a47.54,47.54,0,0,1-8.44,4.45c-3.31,1.15-6.57,2.47-9.77,3.9-11.06,4.95-17.41,13.43-19.33,25.44A14.64,14.64,0,0,0,1591.23,82a61.52,61.52,0,0,0,13.64,15.91,14.89,14.89,0,0,0,3.28,1.93,6.69,6.69,0,0,0,6.42-.25,18.69,18.69,0,0,0,7.21-7.49c4.35-7.53,7.47-15.48,8.37-24.23a57.81,57.81,0,0,1,3.74-15.75c2.87-7.18,8.27-11.26,15.93-11.94a62.62,62.62,0,0,1,11.45.19,24.93,24.93,0,0,1,15.26,7.27,58.79,58.79,0,0,1,5.08,5.72,82.06,82.06,0,0,1,11,19,114,114,0,0,0,14.12,23.78,20.7,20.7,0,0,0,4,4.07c4.22,3.18,4.92,3.63,9,0,3.33-3,6.27-6.35,9.38-9.56,2.44-2.52,4.73-5.2,7.33-7.54A264.65,264.65,0,0,1,1767.35,59a62.88,62.88,0,0,0,15.34-14.28,122.17,122.17,0,0,0,10.43-16,84.54,84.54,0,0,1,8.82-13.62c6.17-7.47,13.79-12.18,23.47-13.38,13.07.07,26.14.16,39.21.2,1.9,0,3.81-.23,5.72-.36l28.1.22c1.27.06,2.54.18,3.81.18q71.14,0,142.3,0c1.58,6.73-.68,12.67-4.18,18.15a97.25,97.25,0,0,1-7.61,9.85c-4.29,5.16-8.52,10.34-11.87,16.2-3.67,6.42-6.68,13-7.6,20.49-.51,4.1-1.76,8.1-2.46,12.18-2.16,12.53-9,21.44-20.07,27.63a364.52,364.52,0,0,0-31.47,20.19c-7.06,4.95-14,10.11-20.82,15.37a79.71,79.71,0,0,0-16.19,17.55,3.14,3.14,0,0,0-.08,3.61c1.84,3,3.78,5.93,5.61,8.92A153.16,153.16,0,0,0,1948,197.6a218.18,218.18,0,0,0,39.8,32.9c8.06,5.2,16.06,10.5,23.93,16s15.55,11.2,23.23,16.93a34.05,34.05,0,0,1,5.55,5.25,18.76,18.76,0,0,1,4.6,10.33c.48,4.43,1.39,8.8,1.16,13.3a12,12,0,0,0,4,9.43,40.88,40.88,0,0,0,4.25,3.87c7.83,5.71,16.21,10.1,26,11.38a74,74,0,0,0,11.41,1c3.2-.07,6.41-.11,9.6,0,2.54.1,5.07.49,7.61.74a7,7,0,0,1,4.27,2,23.52,23.52,0,0,1,4.34,5c3.34,6.17,6.63,12.39,7.82,19.45C2125.7,346.06,2126.58,346.75,2127.12,347.5Z"/><path class="cls-1" d="M3.84,3905c-.86,1.48-2.36,1.74-3.84,2V384l3.8-.05c0,4.47-.15,8.95-.15,13.43q0,1747.08,0,3494.16C3.66,3896,3.78,3900.48,3.84,3905Z"/><path class="cls-1" d="M520.58,2.05l-.32-2H1624.14a13,13,0,0,1,.08,1.87c-4.48,0-9,0-13.44,0H534C529.54,1.92,525.06,2,520.58,2.05Z"/><path class="cls-1" d="M1752.76,4252.56c2-1.76,4.65-2,7-2.92a47.63,47.63,0,0,0,15.6-9.1,77.28,77.28,0,0,1,8.32-6.44c8.7-5.92,18.24-7.22,28.35-4.73,5.16,1.26,8,4.81,8.46,10.27.35,3.9-.59,7.61-1.4,11.35-.09.44.55,1,.84,1.57Z"/><path class="cls-1" d="M3.84,303.34H0V82.56a4.89,4.89,0,0,0,3.3,1.35c1.22.19,2.41.46,3,1.71a4.2,4.2,0,0,0-2.25,2.93,72.14,72.14,0,0,0-.41,7.64q0,99.74,0,199.48C3.66,298.22,3.78,300.78,3.84,303.34Z"/><path class="cls-1" d="M2044.57,0l0,1.93q-71.15,0-142.3,0c-1.27,0-2.54-.12-3.81-.18a6.47,6.47,0,0,0,.23-1.75Z"/><path class="cls-1" d="M428.11,0a13.82,13.82,0,0,0,.15,1.82l-81-.07A2,2,0,0,1,347.48,0Z"/><path class="cls-1" d="M1825.41,1.69a8.1,8.1,0,0,1,.3-1.69h44.16a1.3,1.3,0,0,1,.47,1.53c-1.91.13-3.82.37-5.72.36C1851.55,1.85,1838.48,1.76,1825.41,1.69Z"/><path class="cls-1" d="M1798.31,4170.36a14.69,14.69,0,0,1-9.86-3.7,13.22,13.22,0,0,1-4.35-13.8,19.57,19.57,0,0,1,1.36-3.57c5.9-13,22.16-13.08,29.67-5.28a25.93,25.93,0,0,1,3.46,4.54,11.53,11.53,0,0,1-1.07,13.38C1812.64,4167.48,1806.5,4170.43,1798.31,4170.36Z"/></g></g></svg>